<?xml version="1.0" encoding="utf-8"?>
<!-- Generator: Adobe Illustrator 16.0.4, SVG Export Plug-In . SVG Version: 6.00 Build 0)  -->
<!DOCTYPE svg PUBLIC "-//W3C//DTD SVG 1.1//EN" "http://www.w3.org/Graphics/SVG/1.1/DTD/svg11.dtd">
<svg version="1.1" id="Layer_2" xmlns="http://www.w3.org/2000/svg" xmlns:xlink="http://www.w3.org/1999/xlink" x="0px" y="0px"
	 width="22px" height="22px" viewBox="0 0 22 22" enable-background="new 0 0 22 22" xml:space="preserve">
<g>
	<g>
		<path fill="#007ECA" d="M18.749,3.251c-4.28-4.28-11.218-4.28-15.498,0c-4.28,4.279-4.28,11.218,0,15.498
			c4.28,4.28,11.218,4.28,15.498,0S23.029,7.53,18.749,3.251z M4.414,17.586c-3.638-3.638-3.638-9.535,0-13.173
			c3.638-3.638,9.536-3.639,13.174,0c3.638,3.638,3.638,9.536,0,13.174S8.052,21.225,4.414,17.586z"/>
	</g>
	<polygon fill="#007ECA" points="17.041,12.959 17.041,8.959 13.041,8.959 13.041,4.959 9.042,4.959 9.042,8.959 5.041,8.96 
		5.041,12.959 9.05,12.959 9.05,16.959 13.041,16.959 13.041,12.958 	"/>
</g>
<g>
</g>
<g>
</g>
<g>
</g>
<g>
</g>
<g>
</g>
<g>
</g>
<g>
</g>
<g>
</g>
<g>
</g>
<g>
</g>
<g>
</g>
<g>
</g>
<g>
</g>
<g>
</g>
<g>
</g>
</svg>
