<?xml version="1.0" encoding="utf-8"?>
<!-- Generator: Adobe Illustrator 16.0.4, SVG Export Plug-In . SVG Version: 6.00 Build 0)  -->
<!DOCTYPE svg PUBLIC "-//W3C//DTD SVG 1.1//EN" "http://www.w3.org/Graphics/SVG/1.1/DTD/svg11.dtd">
<svg version="1.1" id="Layer_2" xmlns="http://www.w3.org/2000/svg" xmlns:xlink="http://www.w3.org/1999/xlink" x="0px" y="0px"
	 width="16px" height="18px" viewBox="0 0 16 18" enable-background="new 0 0 16 18" xml:space="preserve">
<g>
	<path fill="#949494" d="M15.412,12.057c-1.587-0.592-2.332-1.596-2.332-5.099c0-2.326-1.553-4.269-3.67-4.907h0.068
		c0.042-0.144,0.072-0.293,0.072-0.45C9.551,0.717,8.834,0,7.95,0S6.35,0.717,6.35,1.601c0,0.157,0.03,0.307,0.072,0.45h0.033
		C4.337,2.689,2.784,4.632,2.784,6.958c0,3.459-0.535,4.416-2.303,5.099H0.45v2h15v-2H15.412z"/>
	<path fill="#949494" d="M6.417,15.059C6.38,15.192,6.35,15.33,6.35,15.476c0,0.884,0.717,1.601,1.601,1.601
		s1.601-0.717,1.601-1.601c0-0.146-0.03-0.283-0.067-0.417H6.417z"/>
</g>
<g>
</g>
<g>
</g>
<g>
</g>
<g>
</g>
<g>
</g>
<g>
</g>
<g>
</g>
<g>
</g>
<g>
</g>
<g>
</g>
<g>
</g>
<g>
</g>
<g>
</g>
<g>
</g>
<g>
</g>
</svg>
