<?xml version="1.0" encoding="utf-8"?>
<!-- Generator: Adobe Illustrator 16.0.4, SVG Export Plug-In . SVG Version: 6.00 Build 0)  -->
<!DOCTYPE svg PUBLIC "-//W3C//DTD SVG 1.1//EN" "http://www.w3.org/Graphics/SVG/1.1/DTD/svg11.dtd">
<svg version="1.1" id="Layer_1" xmlns="http://www.w3.org/2000/svg" xmlns:xlink="http://www.w3.org/1999/xlink" x="0px" y="0px"
	 width="16px" height="18px" viewBox="0 0 16 18" enable-background="new 0 0 16 18" xml:space="preserve">
<g>
	<path fill="#949494" d="M11.744,3.54c-0.623-0.687-1.42-1.214-2.332-1.489H9.48c0.041-0.144,0.072-0.293,0.072-0.45
		C9.553,0.717,8.836,0,7.952,0S6.352,0.717,6.352,1.601c0,0.157,0.03,0.307,0.072,0.45h0.033C4.339,2.689,2.786,4.632,2.786,6.958
		c0,3.458-0.535,4.415-2.303,5.099H0.452v2h0.775L11.744,3.54z"/>
	<path fill="#949494" d="M13.082,6.958c0-0.58-0.098-1.136-0.275-1.653l3.039-3.039l-0.707-0.707L12.348,4.35l-9.706,9.707
		l-2.487,2.486l0.707,0.707l3.194-3.193h11.396v-2h-0.037C13.826,11.465,13.082,10.461,13.082,6.958z"/>
	<path fill="#949494" d="M6.419,15.059c-0.037,0.133-0.067,0.271-0.067,0.416c0,0.885,0.717,1.602,1.601,1.602
		s1.601-0.717,1.601-1.602c0-0.145-0.031-0.283-0.068-0.416H6.419z"/>
</g>
<g>
</g>
<g>
</g>
<g>
</g>
<g>
</g>
<g>
</g>
<g>
</g>
<g>
</g>
<g>
</g>
<g>
</g>
<g>
</g>
<g>
</g>
<g>
</g>
<g>
</g>
<g>
</g>
<g>
</g>
</svg>
