<?xml version="1.0" encoding="utf-8"?>
<!-- Generator: Adobe Illustrator 16.0.4, SVG Export Plug-In . SVG Version: 6.00 Build 0)  -->
<!DOCTYPE svg PUBLIC "-//W3C//DTD SVG 1.1//EN" "http://www.w3.org/Graphics/SVG/1.1/DTD/svg11.dtd">
<svg version="1.1" id="Layer_1" xmlns="http://www.w3.org/2000/svg" xmlns:xlink="http://www.w3.org/1999/xlink" x="0px" y="0px"
	 width="176px" height="86px" viewBox="0 0 176 86" enable-background="new 0 0 176 86" xml:space="preserve">
<g>
	<path fill="#D7234A" d="M166,0H10C4.477,0,0,4.477,0,10v40c0,5.523,4.477,10,10,10h24.03C34.016,79.254,34,80.064,34,83.625
		c0,2.906,3.069,2.305,4.398,0.977C39.727,83.272,66.167,60,66.167,60H166c5.523,0,10-4.477,10-10V10C176,4.477,171.523,0,166,0z
		 M172,49.601c0,3.866-2.533,6.399-6.399,6.399H64.609L38,79.6V58c0,0,0-2-2-2s-25.601,0-25.601,0C6.533,56,4,53.467,4,49.601
		V10.399C4,6.533,6.533,4,10.399,4h155.201C169.467,4,172,6.533,172,10.399V49.601z"/>
</g>
<g>
</g>
<g>
</g>
<g>
</g>
<g>
</g>
<g>
</g>
<g>
</g>
<g>
</g>
<g>
</g>
<g>
</g>
<g>
</g>
<g>
</g>
<g>
</g>
<g>
</g>
<g>
</g>
<g>
</g>
</svg>
