<?xml version="1.0" encoding="utf-8"?>
<!-- Generator: Adobe Illustrator 16.0.4, SVG Export Plug-In . SVG Version: 6.00 Build 0)  -->
<!DOCTYPE svg PUBLIC "-//W3C//DTD SVG 1.1//EN" "http://www.w3.org/Graphics/SVG/1.1/DTD/svg11.dtd">
<svg version="1.1" id="Layer_1" xmlns="http://www.w3.org/2000/svg" xmlns:xlink="http://www.w3.org/1999/xlink" x="0px" y="0px"
	 width="223px" height="85px" viewBox="0 0 223 85" enable-background="new 0 0 223 85" xml:space="preserve">
<g>
	<path fill="#D7234A" d="M0,10v65c0,5.523,4.477,10,10,10h177c5.523,0,10-4.477,10-10v-6.029C216.254,68.984,217.064,69,220.625,69
		c2.906,0,2.305-3.069,0.977-4.398C220.272,63.273,197,36.833,197,36.833V10c0-5.523-4.477-10-10-10H10C4.477,0,0,4.477,0,10z
		 M186.601,4C190.467,4,193,6.533,193,10.399v27.991L216.6,65H195c0,0-2,0-2,2s0,7.601,0,7.601c0,3.866-2.533,6.399-6.399,6.399
		H10.399C6.533,81,4,78.467,4,74.601V10.399C4,6.533,6.533,4,10.399,4H186.601z"/>
</g>
<g>
</g>
<g>
</g>
<g>
</g>
<g>
</g>
<g>
</g>
<g>
</g>
<g>
</g>
<g>
</g>
<g>
</g>
<g>
</g>
<g>
</g>
<g>
</g>
<g>
</g>
<g>
</g>
<g>
</g>
</svg>
