<?xml version="1.0" encoding="utf-8"?>
<!-- Generator: Adobe Illustrator 16.0.4, SVG Export Plug-In . SVG Version: 6.00 Build 0)  -->
<!DOCTYPE svg PUBLIC "-//W3C//DTD SVG 1.1//EN" "http://www.w3.org/Graphics/SVG/1.1/DTD/svg11.dtd">
<svg version="1.1" id="Layer_1" xmlns="http://www.w3.org/2000/svg" xmlns:xlink="http://www.w3.org/1999/xlink" x="0px" y="0px"
	 width="268px" height="115px" viewBox="0 0 268 115" enable-background="new 0 0 268 115" xml:space="preserve">
<g>
	<path fill="#D7234A" d="M10,115h248c5.523,0,10-4.477,10-10V36c0-5.523-4.477-10-10-10h-24.029C233.984,6.746,234,5.936,234,2.375
		c0-2.906-3.069-2.305-4.398-0.976C228.273,2.728,201.833,26,201.833,26H10C4.477,26,0,30.477,0,36v69C0,110.523,4.477,115,10,115z
		 M4,36.399C4,32.533,6.533,30,10.399,30h192.991L230,6.4V28c0,0,0,2,2,2s25.601,0,25.601,0c3.866,0,6.399,2.533,6.399,6.399v68.201
		c0,3.866-2.533,6.399-6.399,6.399H10.399C6.533,111,4,108.467,4,104.601V36.399z"/>
</g>
<g>
</g>
<g>
</g>
<g>
</g>
<g>
</g>
<g>
</g>
<g>
</g>
<g>
</g>
<g>
</g>
<g>
</g>
<g>
</g>
<g>
</g>
<g>
</g>
<g>
</g>
<g>
</g>
<g>
</g>
</svg>
