<?xml version="1.0" encoding="utf-8"?>
<!-- Generator: Adobe Illustrator 16.0.4, SVG Export Plug-In . SVG Version: 6.00 Build 0)  -->
<!DOCTYPE svg PUBLIC "-//W3C//DTD SVG 1.1//EN" "http://www.w3.org/Graphics/SVG/1.1/DTD/svg11.dtd">
<svg version="1.1" id="Layer_1" xmlns="http://www.w3.org/2000/svg" xmlns:xlink="http://www.w3.org/1999/xlink" x="0px" y="0px"
	 width="20px" height="22px" viewBox="0 0 20 22" enable-background="new 0 0 20 22" xml:space="preserve">
<rect x="4" y="7" width="2" height="2"/>
<rect x="9" y="7" width="2" height="2"/>
<rect x="14" y="7" width="2" height="2"/>
<path d="M16.501,1c0.913,0,2.135,0.881,2.428,2.141C18.977,3.353,19,3.545,19,3.728v7.592c0,0.233-0.042,0.476-0.132,0.764
	C18.511,13.229,17.437,14,16.199,14h-5.865H9.927l-0.292,0.285l-4.619,4.514l-0.007-3.801L5.007,14H4.009H3.544
	C2.07,14,1,12.873,1,11.32V3.728c0-1.241,0.9-2.352,2.144-2.643C3.387,1.028,3.603,1,3.802,1h9.079H16.501 M16.501,0h-3.62H3.802
	C3.495,0,3.198,0.045,2.914,0.112C1.246,0.502,0,1.99,0,3.728v7.592C0,13.357,1.445,15,3.544,15h0.465l0.011,6.171L10.334,15h5.865
	c1.715,0,3.151-1.103,3.624-2.619C19.929,12.043,20,11.691,20,11.32V3.728c0-0.279-0.037-0.547-0.097-0.809
	C19.521,1.273,17.94,0,16.501,0L16.501,0z"/>
<g>
</g>
<g>
</g>
<g>
</g>
<g>
</g>
<g>
</g>
<g>
</g>
<g>
</g>
<g>
</g>
<g>
</g>
<g>
</g>
<g>
</g>
<g>
</g>
<g>
</g>
<g>
</g>
<g>
</g>
</svg>
