<?xml version="1.0" encoding="utf-8"?>
<!-- Generator: Adobe Illustrator 16.0.4, SVG Export Plug-In . SVG Version: 6.00 Build 0)  -->
<!DOCTYPE svg PUBLIC "-//W3C//DTD SVG 1.1//EN" "http://www.w3.org/Graphics/SVG/1.1/DTD/svg11.dtd">
<svg version="1.1" id="Layer_1" xmlns="http://www.w3.org/2000/svg" xmlns:xlink="http://www.w3.org/1999/xlink" x="0px" y="0px"
	 width="22px" height="22px" viewBox="0 0 22 22" enable-background="new 0 0 22 22" xml:space="preserve">
<g>
	<path fill="#007ECA" d="M11,0.041C4.947,0.041,0.041,4.947,0.041,11S4.947,21.959,11,21.959S21.959,17.053,21.959,11
		S17.053,0.041,11,0.041z M11,20.314c-5.145,0-9.315-4.17-9.315-9.314S5.855,1.685,11,1.685c5.145,0,9.314,4.171,9.314,9.315
		S16.145,20.314,11,20.314z"/>
</g>
<polygon fill="#007ECA" points="13.828,16.656 16.656,13.828 13.828,11 16.657,8.171 13.829,5.343 11,8.171 8.171,5.343 
	5.343,8.171 8.178,11.006 5.35,13.834 8.172,16.656 11.001,13.828 "/>
<g>
</g>
<g>
</g>
<g>
</g>
<g>
</g>
<g>
</g>
<g>
</g>
<g>
</g>
<g>
</g>
<g>
</g>
<g>
</g>
<g>
</g>
<g>
</g>
<g>
</g>
<g>
</g>
<g>
</g>
</svg>
