<?xml version="1.0" encoding="utf-8"?>
<!-- Generator: Adobe Illustrator 16.0.4, SVG Export Plug-In . SVG Version: 6.00 Build 0)  -->
<!DOCTYPE svg PUBLIC "-//W3C//DTD SVG 1.1//EN" "http://www.w3.org/Graphics/SVG/1.1/DTD/svg11.dtd">
<svg version="1.1" id="Layer_1" xmlns="http://www.w3.org/2000/svg" xmlns:xlink="http://www.w3.org/1999/xlink" x="0px" y="0px"
	 width="19px" height="18px" viewBox="0 0 19 18" enable-background="new 0 0 19 18" xml:space="preserve">
<path d="M18,0.43L7,5H1C0.447,5,0,5.448,0,6v6c0,0.553,0.447,1,1,1h2v4c0,0.553,0.447,1,1,1h2c0.553,0,1-0.447,1-1v-4l11,3.67
	c0.553,0,1-0.447,1-1V1.43C19,0.877,18.553,0.43,18,0.43z M6,17H4v-4h2V17z M6,12H4H1V6h6v6H6z M18,15.616L8,12.279V12V6V5.667
	l10-4.155V15.616z"/>
<g>
</g>
<g>
</g>
<g>
</g>
<g>
</g>
<g>
</g>
<g>
</g>
<g>
</g>
<g>
</g>
<g>
</g>
<g>
</g>
<g>
</g>
<g>
</g>
<g>
</g>
<g>
</g>
<g>
</g>
</svg>
