<?xml version="1.0" encoding="utf-8"?>
<!-- Generator: Adobe Illustrator 18.1.1, SVG Export Plug-In . SVG Version: 6.00 Build 0)  -->
<svg version="1.1" id="Layer_1" xmlns="http://www.w3.org/2000/svg" xmlns:xlink="http://www.w3.org/1999/xlink" x="0px" y="0px"
	 viewBox="0 0 35 35" enable-background="new 0 0 35 35" xml:space="preserve">
<g>
	<path fill="#046798" d="M34,15C33,7.4,26.4,1.2,18.8,0.7C10.4-0.1,2,6.4,1,15c-1.5,9.1,5.5,18,14.5,19.2h3.4
		C28.1,33.5,35.6,24.3,34,15z M16.8,32c-7.7-0.2-14.5-7.4-14-15.1C3,11,7.1,5.6,12.4,3.6c8.2-3.2,18,2.5,19.3,11.1
		C33.8,23.6,25.9,32.7,16.8,32z"/>
	<path fill="#046798" d="M13.3,6.4c-5.5,2-8.9,8.6-7.1,14.1C7.7,26.8,15,30.8,21,28.5c6.1-1.7,9.8-8.9,7.6-14.6
		C26.7,7.6,19.3,4.1,13.3,6.4z M19.7,26.8c-5,1.3-10.6-2.2-11.6-7.2c-1-4.4,1.3-9.1,5.4-10.9c5.2-2.5,11.9,0.7,13.3,6.2
		C28.2,19.9,24.9,25.6,19.7,26.8z"/>
	<path fill="#046798" d="M15.3,11.5c-3.9,1.2-5.5,6.6-2.9,9.8c2.9,4.2,10.4,2.7,11.3-2.5C24.9,14.2,19.8,9.6,15.3,11.5z M21.4,19.2
		c-1.2,3-5.7,3.4-7.4,0.5c-1.7-1.8-0.7-5,1.5-6.2C18.8,11.5,23.4,15.7,21.4,19.2z"/>
</g>
</svg>
