<?xml version="1.0" encoding="utf-8"?>
<!-- Generator: Adobe Illustrator 16.0.4, SVG Export Plug-In . SVG Version: 6.00 Build 0)  -->
<!DOCTYPE svg PUBLIC "-//W3C//DTD SVG 1.1//EN" "http://www.w3.org/Graphics/SVG/1.1/DTD/svg11.dtd">
<svg version="1.1" id="Layer_2" xmlns="http://www.w3.org/2000/svg" xmlns:xlink="http://www.w3.org/1999/xlink" x="0px" y="0px"
	 width="31px" height="22px" viewBox="0 0 31 22" enable-background="new 0 0 31 22" xml:space="preserve">
<g>
	<path fill="#999999" d="M8.35,1.082c1.899,0,3.624,0.68,4.858,1.914c1.995,1.995,2.599,4.975,1.538,7.59L14.497,11.2l0.469,0.469
		l6.354,6.354l-0.059,1.182l-1.688,1.689l-1.116,0.018l-6.331-6.332l-0.479-0.48l-0.623,0.27c-0.342,0.146-0.734,0.271-1.199,0.379
		c-0.527,0.121-1.068,0.184-1.607,0.184c-1.861,0-3.606-0.722-4.915-2.03c-1.351-1.35-2.067-3.164-2.02-5.107
		c0.01-0.386,0.091-0.852,0.235-1.367l4.939,4.94l0.707,0.707l0.707-0.707l3.917-3.917l0.707-0.707l-0.707-0.707L6.961,1.207
		C7.419,1.125,7.886,1.082,8.35,1.082 M8.35,0.082c-1.13,0-2.258,0.218-3.292,0.636l6.023,6.024l-3.917,3.917L1.11,4.603
		C0.707,5.548,0.309,6.758,0.284,7.768c-0.052,2.108,0.703,4.23,2.312,5.839c1.555,1.556,3.586,2.323,5.622,2.323
		c0.615,0,1.23-0.07,1.833-0.21c0.465-0.107,0.925-0.243,1.37-0.435l6.631,6.632l1.943-0.031l2.248-2.248l0.098-2.01l-6.667-6.667
		c1.172-2.891,0.587-6.328-1.757-8.673C12.411,0.784,10.377,0.082,8.35,0.082L8.35,0.082z"/>
	<circle fill="#999999" cx="18.64" cy="18.112" r="1"/>
	<g id="arrow_copy_2_">
		<g>
			<polygon fill="#999999" points="22.508,5.271 26.613,11.637 30.719,5.271 			"/>
		</g>
	</g>
</g>
<g>
</g>
<g>
</g>
<g>
</g>
<g>
</g>
<g>
</g>
<g>
</g>
<g>
</g>
<g>
</g>
<g>
</g>
<g>
</g>
<g>
</g>
<g>
</g>
<g>
</g>
<g>
</g>
<g>
</g>
</svg>
