<?xml version="1.0" encoding="utf-8"?>
<!-- Generator: Adobe Illustrator 16.0.4, SVG Export Plug-In . SVG Version: 6.00 Build 0)  -->
<!DOCTYPE svg PUBLIC "-//W3C//DTD SVG 1.1//EN" "http://www.w3.org/Graphics/SVG/1.1/DTD/svg11.dtd">
<svg version="1.1" id="Layer_1" xmlns="http://www.w3.org/2000/svg" xmlns:xlink="http://www.w3.org/1999/xlink" x="0px" y="0px"
	 width="23px" height="23px" viewBox="0 0 23 23" enable-background="new 0 0 23 23" xml:space="preserve">
<g>
	<path fill="#990000" d="M11.5,0.053C5.178,0.053,0.053,5.178,0.053,11.5S5.178,22.947,11.5,22.947S22.947,17.822,22.947,11.5
		S17.822,0.053,11.5,0.053z M11.6,2.885c2.115,0,3.828,1.717,3.828,3.835s-1.713,4.586-3.828,4.586
		c-2.114,0-3.828-2.468-3.828-4.586S9.485,2.885,11.6,2.885z M15.301,20.515c-0.732,0.359-1.518,0.542-2.184,0.64l0.066,0.398
		l-1.706,1.166l-1.744-1.183l0.064-0.372C8.991,21.072,8.13,20.89,7.75,20.529c-3.021-4.005-7.389-7.98,3.85-7.98
		C22.91,12.549,17.707,16.674,15.301,20.515z"/>
	<path fill="#990000" d="M11.557,21.26c0,0-0.845,0.01-1.758-0.096l-0.064,0.372l1.744,1.183l1.706-1.166l-0.066-0.398
		C12.229,21.285,11.557,21.26,11.557,21.26z"/>
	<path fill="#990000" d="M10.122,13.172l0.979,1.192l0.751-0.007l0.925-1.188c0,0-0.723-0.557-1.333-0.557
		C10.835,12.613,10.122,13.172,10.122,13.172z"/>
	<path fill="#990000" d="M10.917,14.711l-1.119,6.453c0.914,0.105,1.758,0.096,1.758,0.096s0.672,0.025,1.561-0.105l-1.088-6.449
		L10.917,14.711z"/>
</g>
<g>
</g>
<g>
</g>
<g>
</g>
<g>
</g>
<g>
</g>
<g>
</g>
<g>
</g>
<g>
</g>
<g>
</g>
<g>
</g>
<g>
</g>
<g>
</g>
<g>
</g>
<g>
</g>
<g>
</g>
</svg>
