<?xml version="1.0" encoding="utf-8"?>
<!-- Generator: Adobe Illustrator 16.0.4, SVG Export Plug-In . SVG Version: 6.00 Build 0)  -->
<!DOCTYPE svg PUBLIC "-//W3C//DTD SVG 1.1//EN" "http://www.w3.org/Graphics/SVG/1.1/DTD/svg11.dtd">
<svg version="1.1" id="Layer_2" xmlns="http://www.w3.org/2000/svg" xmlns:xlink="http://www.w3.org/1999/xlink" x="0px" y="0px"
	 width="25px" height="29px" viewBox="0 0 25 29" enable-background="new 0 0 25 29" xml:space="preserve">
<path fill="#999999" d="M18.387,16.486c-2.018,0-3.799,0.996-4.891,2.52l-1.55-1.55c0.414-0.819,0.652-1.742,0.652-2.723
	c0-1.041-0.263-2.019-0.725-2.875l1.723-1.723c1.104,1.49,2.869,2.459,4.865,2.459c3.346,0,6.059-2.713,6.059-6.059
	c0-3.347-2.713-6.06-6.059-6.06s-6.059,2.713-6.059,6.06c0,0.995,0.245,1.931,0.67,2.76l-1.741,1.74
	c-1.108-1.435-2.84-2.362-4.793-2.362c-3.346,0-6.059,2.712-6.059,6.059c0,3.346,2.713,6.059,6.059,6.059
	c2,0,3.767-0.973,4.871-2.466l1.564,1.563c-0.383,0.792-0.604,1.677-0.604,2.615c0,3.323,2.694,6.018,6.018,6.018
	s6.018-2.694,6.018-6.018C24.404,19.181,21.711,16.486,18.387,16.486z M18.434,1.541c2.762,0,5.002,2.239,5.002,5.003
	s-2.24,5.003-5.002,5.003s-5.002-2.239-5.002-5.003S15.672,1.541,18.434,1.541z M6.511,19.743c-2.763,0-5.002-2.239-5.002-5.001
	c0-2.765,2.24-5.004,5.002-5.004c2.763,0,5.004,2.239,5.004,5.004C11.515,17.504,9.274,19.743,6.511,19.743z M18.359,27.501
	c-2.756,0-4.988-2.233-4.988-4.989s2.232-4.989,4.988-4.989s4.99,2.233,4.99,4.989S21.115,27.501,18.359,27.501z"/>
<g>
</g>
<g>
</g>
<g>
</g>
<g>
</g>
<g>
</g>
<g>
</g>
<g>
</g>
<g>
</g>
<g>
</g>
<g>
</g>
<g>
</g>
<g>
</g>
<g>
</g>
<g>
</g>
<g>
</g>
</svg>
