<?xml version="1.0" encoding="utf-8"?>
<!-- Generator: Adobe Illustrator 16.0.4, SVG Export Plug-In . SVG Version: 6.00 Build 0)  -->
<!DOCTYPE svg PUBLIC "-//W3C//DTD SVG 1.1//EN" "http://www.w3.org/Graphics/SVG/1.1/DTD/svg11.dtd">
<svg version="1.1" id="Layer_1" xmlns="http://www.w3.org/2000/svg" xmlns:xlink="http://www.w3.org/1999/xlink" x="0px" y="0px"
	 width="24px" height="24px" viewBox="0 0 24 24" enable-background="new 0 0 24 24" xml:space="preserve">
<path d="M23.995,14.002v-3.987h-3.072c-0.216-1.022-0.619-1.998-1.143-2.863l2.188-2.188L18.943,1.94l-2.171,2.171
	c-0.849-0.527-1.778-0.935-2.781-1.162V0.032h-3.964v2.903C9.016,3.158,8.031,3.563,7.176,4.09l-2.15-2.15L2.002,4.964l2.154,2.154
	c-0.534,0.872-0.943,1.858-1.162,2.891H0.005v3.995h3.036c0.23,0.971,0.629,1.873,1.141,2.697l-2.18,2.182l3.024,3.023l2.195-2.195
	c0.852,0.518,1.783,0.916,2.788,1.133v3.125h3.993V20.82c0.982-0.225,1.893-0.621,2.727-1.131l2.216,2.217l3.024-3.023l-2.213-2.213
	c0.5-0.814,0.891-1.713,1.118-2.668H23.995z M11.972,15.932c-2.246,0-4.066-1.82-4.066-4.067c0-2.245,1.82-4.065,4.066-4.065
	c2.246,0,4.066,1.82,4.066,4.065C16.038,14.111,14.218,15.932,11.972,15.932z"/>
<g>
</g>
<g>
</g>
<g>
</g>
<g>
</g>
<g>
</g>
<g>
</g>
<g>
</g>
<g>
</g>
<g>
</g>
<g>
</g>
<g>
</g>
<g>
</g>
<g>
</g>
<g>
</g>
<g>
</g>
</svg>
