<?xml version="1.0" encoding="utf-8"?>
<!-- Generator: Adobe Illustrator 16.0.4, SVG Export Plug-In . SVG Version: 6.00 Build 0)  -->
<!DOCTYPE svg PUBLIC "-//W3C//DTD SVG 1.1//EN" "http://www.w3.org/Graphics/SVG/1.1/DTD/svg11.dtd">
<svg version="1.1" id="Layer_2" xmlns="http://www.w3.org/2000/svg" xmlns:xlink="http://www.w3.org/1999/xlink" x="0px" y="0px"
	 width="27px" height="27px" viewBox="0 0 27 27" enable-background="new 0 0 27 27" xml:space="preserve">
<g>
	<path fill="#999999" d="M21.698,25.871l-5.635-5.635c1.328-1.568,2.133-3.594,2.133-5.811c0-0.36-0.025-0.65-0.068-1
		c-0.381,0-0.725,0.031-1.076,0.031c0.041,0.317,0.064,0.641,0.064,0.969c0,4.375-3.546,7.92-7.92,7.92s-7.92-3.545-7.92-7.92
		c0-4.292,3.414-7.786,7.673-7.916c0-0.335,0-0.568,0-1.08C4.093,5.56,0.196,9.538,0.196,14.425c0,4.971,4.029,9,9,9
		c2.395,0,4.564-0.941,6.178-2.466l5.617,5.618L21.698,25.871z"/>
	<path fill="#999999" d="M21.185,7.735c0.779-1.919,0.39-4.2-1.166-5.757c-1.557-1.556-3.836-1.945-5.754-1.168l3.998,3.998
		l-1.567,1.567l-1.293,1.293l-2.007-2.006l-2.013-2.013c-0.287,0.672-0.421,1.391-0.42,2.108c0.002,1.229,0.433,2.448,1.285,3.437
		c0.085,0.1,0.161,0.205,0.256,0.299c1.385,1.386,3.343,1.838,5.109,1.372c0.254-0.067,0.505-0.153,0.748-0.258l5.615,5.606
		l1.29-0.021l1.473-1.492l0.064-1.335L21.185,7.735z M24.388,14.579c-0.23,0-0.434-0.092-0.598-0.229
		c-0.209-0.173-0.35-0.425-0.35-0.718c0-0.097,0.027-0.186,0.055-0.273c0.119-0.388,0.466-0.674,0.893-0.674
		c0.522,0,0.946,0.424,0.946,0.947C25.334,14.155,24.91,14.579,24.388,14.579z"/>
</g>
<g>
</g>
<g>
</g>
<g>
</g>
<g>
</g>
<g>
</g>
<g>
</g>
<g>
</g>
<g>
</g>
<g>
</g>
<g>
</g>
<g>
</g>
<g>
</g>
<g>
</g>
<g>
</g>
<g>
</g>
</svg>
