<?xml version="1.0" encoding="utf-8"?>
<!-- Generator: Adobe Illustrator 16.0.4, SVG Export Plug-In . SVG Version: 6.00 Build 0)  -->
<!DOCTYPE svg PUBLIC "-//W3C//DTD SVG 1.1//EN" "http://www.w3.org/Graphics/SVG/1.1/DTD/svg11.dtd">
<svg version="1.1" id="Layer_2" xmlns="http://www.w3.org/2000/svg" xmlns:xlink="http://www.w3.org/1999/xlink" x="0px" y="0px"
	 width="31px" height="28px" viewBox="0 0 31 28" enable-background="new 0 0 31 28" xml:space="preserve">
<g>
	<g>
		<path fill="#999999" d="M20.125,22.833c0,2.172-1.562,3.931-3.486,3.931c-1.923,0-3.513-1.759-3.513-3.931v-12.53
			c0-1.077,0.393-2.011,1.021-2.682c-0.118-0.312-0.202-0.632-0.268-0.956c-1.036,0.801-1.729,2.009-1.729,3.379v13.45
			c0,2.412,2.11,4.367,4.549,4.367c2.441,0,4.426-1.955,4.426-4.367l-0.01-11.745c0,0-0.654-0.005-0.99-0.003V22.833z"/>
		<path fill="#999999" d="M14.132,11.651v1.01l2.007,0.002v1.998h0.998v-1.992l2.049,0.002v-0.849
			c-0.275-0.036-0.547-0.09-0.814-0.162h-1.225l0.002-0.477c-0.354-0.179-0.695-0.384-1.018-0.633l0.008,1.109L14.132,11.651z"/>
		<path fill="#999999" d="M16.686,25.024c-0.553,0-1.002-0.449-1.002-1.002s0.449-1.002,1.002-1.002s1.002,0.449,1.002,1.002
			S17.238,25.024,16.686,25.024z"/>
		<path fill="#999999" d="M7.049,17.694c2.601-1.953,4.067-3.264,4.067-3.264l0.01-5.936L0.005,18.23
			C0.005,18.23,2.719,20.946,7.049,17.694z M10.29,10.489l-0.172,3.666c0,0-1.19,1.026-3.253,2.611
			C3.516,19.337,1.628,18.1,1.628,18.1L10.29,10.489z"/>
		<path fill="#999999" d="M10.097,20.113c-0.862-0.546-1.602-1.128-2.734-0.923c0,0-0.44,1.699,0.524,2.78
			c0.965,1.08,3.194,3.86,3.194,3.86l0.006-4.83C11.086,21.001,11.073,20.731,10.097,20.113z M8.482,21.499
			c-0.52-0.582-0.37-1.41-0.37-1.41c0.61-0.109,1.008,0.203,1.472,0.498c0.526,0.332,0.658,0.531,0.658,0.531l0.031,2.578
			C10.273,23.696,9.001,22.081,8.482,21.499z"/>
		<path fill="#999999" d="M19.186,11.66h-0.814c0.268,0.071,0.539,0.126,0.814,0.162V11.66z"/>
	</g>
	<path fill="#999999" d="M25.225,7.451c0.779-1.919,0.391-4.2-1.166-5.757c-1.557-1.556-3.836-1.945-5.754-1.168l3.998,3.998
		l-1.566,1.567l-1.293,1.293l-2.008-2.006l-2.012-2.013c-0.287,0.672-0.421,1.391-0.419,2.108c0.002,1.229,0.432,2.448,1.285,3.437
		c0.084,0.1,0.16,0.205,0.256,0.299c1.385,1.386,3.342,1.838,5.109,1.372c0.254-0.067,0.504-0.153,0.748-0.258l5.547,5.547
		l0.201-0.003l1.088-0.018l1.492-1.492l0.064-1.335L25.225,7.451z M28.555,14.285c-0.23,0-0.434-0.092-0.598-0.229
		c-0.209-0.173-0.35-0.425-0.35-0.718c0-0.097,0.027-0.185,0.055-0.273c0.119-0.388,0.467-0.674,0.893-0.674
		c0.523,0,0.947,0.424,0.947,0.947C29.502,13.861,29.078,14.285,28.555,14.285z"/>
</g>
<g>
</g>
<g>
</g>
<g>
</g>
<g>
</g>
<g>
</g>
<g>
</g>
<g>
</g>
<g>
</g>
<g>
</g>
<g>
</g>
<g>
</g>
<g>
</g>
<g>
</g>
<g>
</g>
<g>
</g>
</svg>
