<?xml version="1.0" encoding="utf-8"?>
<!-- Generator: Adobe Illustrator 16.0.4, SVG Export Plug-In . SVG Version: 6.00 Build 0)  -->
<!DOCTYPE svg PUBLIC "-//W3C//DTD SVG 1.1//EN" "http://www.w3.org/Graphics/SVG/1.1/DTD/svg11.dtd">
<svg version="1.1" id="Layer_1" xmlns="http://www.w3.org/2000/svg" xmlns:xlink="http://www.w3.org/1999/xlink" x="0px" y="0px"
	 width="27px" height="27px" viewBox="0 0 27 27" enable-background="new 0 0 27 27" xml:space="preserve">
<g>
	<path fill="#D7234A" d="M21.074,23.16l-4.186-4.184c0.797-1.34,1.262-2.9,1.262-4.573c0-0.446-0.043-0.882-0.105-1.311
		l-0.232-0.232c-1.326,0.291-2.695,0.191-3.96-0.245c0.21,0.553,0.337,1.146,0.337,1.772c0,2.761-2.238,5.001-5,5.001
		s-5-2.24-5-5.001c0-2.762,2.239-5.001,5-5.001c0.268,0,0.524,0.038,0.781,0.079C9.22,8.211,8.888,6.813,8.941,5.438
		c-4.849,0.125-8.744,4.086-8.744,8.966c0,4.958,4.019,8.977,8.977,8.977c1.866,0,3.599-0.57,5.035-1.545l4.094,4.094L21.074,23.16z
		"/>
	<g>
		<path fill="#D7234A" d="M21.166,7.724c0.777-1.919,0.389-4.201-1.168-5.757c-1.555-1.556-3.834-1.945-5.752-1.168l3.998,3.999
			l-2.861,2.86l-4.019-4.02c-0.268,0.627-0.397,1.296-0.414,1.967c-0.035,1.399,0.466,2.808,1.535,3.876
			c1.344,1.344,3.224,1.801,4.949,1.402c0.309-0.071,0.613-0.161,0.908-0.288l5.613,5.613l1.291-0.02l1.492-1.492l0.064-1.335
			L21.166,7.724z M24.381,14.567c-0.523,0-0.947-0.424-0.947-0.947s0.424-0.947,0.947-0.947c0.521,0,0.945,0.425,0.945,0.947
			S24.902,14.567,24.381,14.567z"/>
	</g>
</g>
<g>
</g>
<g>
</g>
<g>
</g>
<g>
</g>
<g>
</g>
<g>
</g>
<g>
</g>
<g>
</g>
<g>
</g>
<g>
</g>
<g>
</g>
<g>
</g>
<g>
</g>
<g>
</g>
<g>
</g>
</svg>
