<?xml version="1.0" encoding="utf-8"?>
<!-- Generator: Adobe Illustrator 16.0.4, SVG Export Plug-In . SVG Version: 6.00 Build 0)  -->
<!DOCTYPE svg PUBLIC "-//W3C//DTD SVG 1.1//EN" "http://www.w3.org/Graphics/SVG/1.1/DTD/svg11.dtd">
<svg version="1.1" id="Layer_2" xmlns="http://www.w3.org/2000/svg" xmlns:xlink="http://www.w3.org/1999/xlink" x="0px" y="0px"
	 width="26px" height="29px" viewBox="0 0 26 29" enable-background="new 0 0 26 29" xml:space="preserve">
<g>
	<g id="text_2_">
		<g>
			<path fill="#999999" d="M4.01,18v0.989l13.001-0.014V18H4.01z M4.01,23h13.001v-1H4.01V23z M11.01,14H4.031v0.965h6.979V14z"/>
		</g>
	</g>
	<path fill="#999999" d="M20.131,8.046c0.779-1.919,0.39-4.2-1.166-5.757c-1.557-1.556-3.836-1.945-5.755-1.168l4,3.998
		l-1.567,1.567l-1.293,1.293l-2.008-2.006l-2.013-2.013C10.041,4.631,9.907,5.35,9.908,6.067c0.002,1.229,0.432,2.448,1.285,3.437
		c0.085,0.1,0.162,0.205,0.256,0.299c1.385,1.386,3.344,1.838,5.111,1.372c0.254-0.067,0.505-0.153,0.748-0.258l5.547,5.547
		l0.201-0.003l1.089-0.018l1.492-1.492l0.064-1.335L20.131,8.046z M23.543,15.044c-0.23,0-0.434-0.092-0.598-0.229
		c-0.209-0.173-0.35-0.425-0.35-0.718c0-0.097,0.027-0.185,0.055-0.273c0.119-0.388,0.466-0.674,0.893-0.674
		c0.522,0,0.946,0.424,0.946,0.947C24.489,14.62,24.065,15.044,23.543,15.044z"/>
	<g>
		<g>
			<path fill="#999999" d="M19.002,25.26c0,1.006-0.783,1.764-1.824,1.764L3.848,27c-1.03,0-1.837-0.791-1.837-1.801V8.842
				c0-1.014,0.824-1.838,1.837-1.838h4.14v-1h-4.14c-1.567,0-2.837,1.271-2.837,2.838v16.357C1.01,26.767,2.281,28,3.848,28
				l13.333,0.023c1.567,0,2.821-1.195,2.821-2.764v-8.83l-1-0.972V25.26z"/>
		</g>
	</g>
</g>
<g>
</g>
<g>
</g>
<g>
</g>
<g>
</g>
<g>
</g>
<g>
</g>
<g>
</g>
<g>
</g>
<g>
</g>
<g>
</g>
<g>
</g>
<g>
</g>
<g>
</g>
<g>
</g>
<g>
</g>
</svg>
