<?xml version="1.0" encoding="utf-8"?>
<!-- Generator: Adobe Illustrator 16.0.4, SVG Export Plug-In . SVG Version: 6.00 Build 0)  -->
<!DOCTYPE svg PUBLIC "-//W3C//DTD SVG 1.1//EN" "http://www.w3.org/Graphics/SVG/1.1/DTD/svg11.dtd">
<svg version="1.1" id="Layer_1" xmlns="http://www.w3.org/2000/svg" xmlns:xlink="http://www.w3.org/1999/xlink" x="0px" y="0px"
	 width="27px" height="23px" viewBox="0 0 27 23" enable-background="new 0 0 27 23" xml:space="preserve">
<g>
	<g>
		<path fill="#D7234A" d="M21.651,13.236c0.527-1.143,0.828-2.41,0.828-3.75c0-4.958-4.019-8.978-8.977-8.978
			s-8.978,4.02-8.978,8.978c0,1.483,0.366,2.878,1.002,4.11l3.099-3.098c-0.07-0.333-0.108-0.676-0.108-1.029
			c0-2.762,2.238-5.001,5-5.001c2.763,0,5.001,2.239,5.001,5.001c0,1.63-0.792,3.063-2,3.978l0.025,0.007l-4.83,4.829
			c0.578,0.117,1.176,0.18,1.789,0.18c1.562,0,3.029-0.4,4.309-1.102l5.13,5.259l4.052-3.974L21.651,13.236z"/>
	</g>
	<polygon fill="#D7234A" points="4.956,21.541 0.007,16.592 2.032,14.566 5.032,17.516 11.855,10.692 13.83,12.668 	"/>
</g>
<g>
</g>
<g>
</g>
<g>
</g>
<g>
</g>
<g>
</g>
<g>
</g>
<g>
</g>
<g>
</g>
<g>
</g>
<g>
</g>
<g>
</g>
<g>
</g>
<g>
</g>
<g>
</g>
<g>
</g>
</svg>
