<?xml version="1.0" encoding="utf-8"?>
<!-- Generator: Adobe Illustrator 16.0.4, SVG Export Plug-In . SVG Version: 6.00 Build 0)  -->
<!DOCTYPE svg PUBLIC "-//W3C//DTD SVG 1.1//EN" "http://www.w3.org/Graphics/SVG/1.1/DTD/svg11.dtd">
<svg version="1.1" id="Layer_1" xmlns="http://www.w3.org/2000/svg" xmlns:xlink="http://www.w3.org/1999/xlink" x="0px" y="0px"
	 width="24px" height="24px" viewBox="0 0 24 24" enable-background="new 0 0 24 24" xml:space="preserve">
<g>
	<path fill="#FF6600" d="M12,7.625c-2.413,0-4.375,1.963-4.375,4.375c0,2.413,1.962,4.376,4.375,4.376
		c2.413,0,4.376-1.963,4.376-4.376C16.376,9.587,14.413,7.625,12,7.625z"/>
	<path fill="#FF6600" d="M12,0.464C5.629,0.464,0.464,5.629,0.464,12S5.629,23.536,12,23.536S23.536,18.371,23.536,12
		S18.371,0.464,12,0.464z M12,20.075c-4.459,0-8.075-3.615-8.075-8.075S7.541,3.924,12,3.924c4.46,0,8.075,3.616,8.075,8.076
		S16.46,20.075,12,20.075z"/>
</g>
<g>
</g>
<g>
</g>
<g>
</g>
<g>
</g>
<g>
</g>
<g>
</g>
<g>
</g>
<g>
</g>
<g>
</g>
<g>
</g>
<g>
</g>
<g>
</g>
<g>
</g>
<g>
</g>
<g>
</g>
</svg>
