<?xml version="1.0" encoding="utf-8"?>
<!-- Generator: Adobe Illustrator 16.0.4, SVG Export Plug-In . SVG Version: 6.00 Build 0)  -->
<!DOCTYPE svg PUBLIC "-//W3C//DTD SVG 1.1//EN" "http://www.w3.org/Graphics/SVG/1.1/DTD/svg11.dtd">
<svg version="1.1" id="Layer_2" xmlns="http://www.w3.org/2000/svg" xmlns:xlink="http://www.w3.org/1999/xlink" x="0px" y="0px"
	 width="19px" height="22px" viewBox="0 0 19 22" enable-background="new 0 0 19 22" xml:space="preserve">
<g>
	<path fill="#111C24" d="M14.09,4.998c0,0,3.089,0.002,4.061-0.003c-1.591-1.624-5.013-4.998-5.013-4.998v4.077L14.09,4.998z"/>
	<g>
		<path fill="#111C24" d="M9.496,9.492c-2.027,0-3.676,1.648-3.676,3.676c0,2.029,1.649,3.676,3.676,3.676
			c2.027,0,3.676-1.646,3.676-3.676C13.172,11.141,11.522,9.492,9.496,9.492z M9.496,14.864c-0.941,0-1.707-0.765-1.707-1.705
			c0-0.942,0.765-1.706,1.707-1.706c0.941,0,1.706,0.764,1.706,1.706C11.201,14.1,10.437,14.864,9.496,14.864z"/>
		<path fill="#111C24" d="M13.006,7.008l-1.992-1.964L10.977,0H2.837C1.271,0,0,1.271,0,2.838v16.361C0,20.767,1.271,22,2.837,22
			l13.331-0.037c1.568,0,2.822-1.196,2.822-2.764V7.006C18.475,7.004,13.006,7.008,13.006,7.008z M9.496,18.151
			c-2.748,0-4.984-2.235-4.984-4.983s2.236-4.983,4.984-4.983c2.75,0,4.985,2.235,4.985,4.983S12.245,18.151,9.496,18.151z"/>
	</g>
</g>
<g>
</g>
<g>
</g>
<g>
</g>
<g>
</g>
<g>
</g>
<g>
</g>
<g>
</g>
<g>
</g>
<g>
</g>
<g>
</g>
<g>
</g>
<g>
</g>
<g>
</g>
<g>
</g>
<g>
</g>
</svg>
