<?xml version="1.0" encoding="utf-8"?>
<!-- Generator: Adobe Illustrator 16.0.4, SVG Export Plug-In . SVG Version: 6.00 Build 0)  -->
<!DOCTYPE svg PUBLIC "-//W3C//DTD SVG 1.1//EN" "http://www.w3.org/Graphics/SVG/1.1/DTD/svg11.dtd">
<svg version="1.1" id="Layer_1" xmlns="http://www.w3.org/2000/svg" xmlns:xlink="http://www.w3.org/1999/xlink" x="0px" y="0px"
	 width="26px" height="29px" viewBox="0 0 26 29" enable-background="new 0 0 26 29" xml:space="preserve">
<g>
	<path fill="#FF6600" d="M11.546,21.438c-2.406,0-4.356-1.95-4.356-4.355c0-2.406,1.95-4.356,4.356-4.356s4.356,1.95,4.356,4.356
		C15.902,19.488,13.952,21.438,11.546,21.438z"/>
	<path fill="#FF6600" d="M19.488,15.573c0.1,0.504,0.154,1.023,0.154,1.557c0,4.434-3.595,8.028-8.029,8.028
		c-4.434,0-8.028-3.595-8.028-8.028c0-3.516,2.264-6.496,5.41-7.583c-0.664-1.056-1.026-2.22-1.104-3.392
		c-4.574,1.53-7.875,5.841-7.875,10.931c0,6.369,5.163,11.532,11.532,11.532c6.005,0,10.933-4.59,11.478-10.451l-0.928,0.015
		L19.488,15.573z"/>
	<circle fill="#FF6600" cx="11.546" cy="17.083" r="4.356"/>
	<path fill="#FF6600" d="M20.104,7.666c0.778-1.919,0.39-4.2-1.167-5.757c-1.555-1.556-3.835-1.945-5.753-1.168l3.998,3.998
		l-1.567,1.567l-1.293,1.293l-2.006-2.006l-2.013-2.013C10.016,4.251,9.882,4.97,9.883,5.688c0.002,1.229,0.432,2.448,1.285,3.437
		c0.085,0.1,0.162,0.205,0.256,0.299c1.385,1.386,3.342,1.838,5.109,1.372c0.254-0.067,0.504-0.153,0.748-0.258l5.547,5.547
		l0.201-0.003l1.09-0.018l1.492-1.492l0.064-1.335L20.104,7.666z M23.434,14.5c-0.229,0-0.433-0.092-0.597-0.229
		c-0.209-0.173-0.35-0.425-0.35-0.718c0-0.097,0.028-0.185,0.056-0.273c0.118-0.388,0.465-0.674,0.891-0.674
		c0.523,0,0.947,0.424,0.947,0.947C24.381,14.076,23.957,14.5,23.434,14.5z"/>
</g>
<g>
</g>
<g>
</g>
<g>
</g>
<g>
</g>
<g>
</g>
<g>
</g>
<g>
</g>
<g>
</g>
<g>
</g>
<g>
</g>
<g>
</g>
<g>
</g>
<g>
</g>
<g>
</g>
<g>
</g>
</svg>
