<?xml version="1.0" encoding="utf-8"?>
<!-- Generator: Adobe Illustrator 16.0.4, SVG Export Plug-In . SVG Version: 6.00 Build 0)  -->
<!DOCTYPE svg PUBLIC "-//W3C//DTD SVG 1.1//EN" "http://www.w3.org/Graphics/SVG/1.1/DTD/svg11.dtd">
<svg version="1.1" id="Layer_1" xmlns="http://www.w3.org/2000/svg" xmlns:xlink="http://www.w3.org/1999/xlink" x="0px" y="0px"
	 width="23px" height="25px" viewBox="0 0 23 25" enable-background="new 0 0 23 25" xml:space="preserve">
<g>
	<path fill="#851782" d="M20.318,0.501h-8.623c-1.481,0-2.683,1.167-2.683,2.605V7.5h4.292c1.48,0,2.682,1.167,2.682,2.605v1.518
		l3.992,4.29l0.037-4.379h0.303c1.48,0,2.682-1.166,2.682-2.604V3.106C23,1.668,21.799,0.501,20.318,0.501z"/>
	<path fill="#851782" d="M13.918,11.534c-0.27-1.163-1.334-2.033-2.613-2.033H9.083H2.672c-0.217,0-0.425,0.032-0.627,0.079
		C0.867,9.855,0,10.878,0,12.105v5.784c0,1.438,1.19,2.604,2.672,2.604H3l0.007,4.351l4.277-4.351h4.021
		c1.211,0,2.223-0.785,2.557-1.855c0.074-0.238,0.125-0.486,0.125-0.749v-5.784C13.986,11.909,13.96,11.719,13.918,11.534z"/>
</g>
<g>
</g>
<g>
</g>
<g>
</g>
<g>
</g>
<g>
</g>
<g>
</g>
<g>
</g>
<g>
</g>
<g>
</g>
<g>
</g>
<g>
</g>
<g>
</g>
<g>
</g>
<g>
</g>
<g>
</g>
</svg>
