<?xml version="1.0" encoding="utf-8"?>
<!-- Generator: Adobe Illustrator 16.0.4, SVG Export Plug-In . SVG Version: 6.00 Build 0)  -->
<!DOCTYPE svg PUBLIC "-//W3C//DTD SVG 1.1//EN" "http://www.w3.org/Graphics/SVG/1.1/DTD/svg11.dtd">
<svg version="1.1" id="Layer_1" xmlns="http://www.w3.org/2000/svg" xmlns:xlink="http://www.w3.org/1999/xlink" x="0px" y="0px"
	 width="24px" height="24px" viewBox="0 0 24 24" enable-background="new 0 0 24 24" xml:space="preserve">
<g>
	<path fill="#999999" d="M12,0.468C5.631,0.468,0.468,5.631,0.468,12c0,6.37,5.163,11.532,11.532,11.532S23.532,18.37,23.532,12
		C23.532,5.631,18.369,0.468,12,0.468z M12.065,22.69c-5.879,0-10.645-4.767-10.645-10.646c0-5.879,4.766-10.645,10.645-10.645
		c5.881,0,10.646,4.766,10.646,10.645C22.712,17.924,17.946,22.69,12.065,22.69z"/>
	<g>
		<g>
			<path fill="#999999" d="M12.01,7.621c-2.405,0-4.356,1.951-4.356,4.356c0,2.406,1.951,4.355,4.356,4.355s4.356-1.949,4.356-4.355
				C16.366,9.572,14.415,7.621,12.01,7.621z M12.01,15.462c-1.925,0-3.484-1.56-3.484-3.484c0-1.924,1.56-3.485,3.484-3.485
				s3.485,1.562,3.485,3.485C15.495,13.902,13.935,15.462,12.01,15.462z"/>
		</g>
		<path fill="#999999" d="M11.998,3.66c-4.604,0-8.337,3.734-8.337,8.338s3.732,8.336,8.337,8.336s8.337-3.732,8.337-8.336
			S16.603,3.66,11.998,3.66z M11.998,19.345c-4.058,0-7.348-3.289-7.348-7.348c0-4.058,3.29-7.347,7.348-7.347
			s7.347,3.289,7.347,7.347C19.345,16.056,16.056,19.345,11.998,19.345z"/>
	</g>
</g>
<g>
</g>
<g>
</g>
<g>
</g>
<g>
</g>
<g>
</g>
<g>
</g>
<g>
</g>
<g>
</g>
<g>
</g>
<g>
</g>
<g>
</g>
<g>
</g>
<g>
</g>
<g>
</g>
<g>
</g>
</svg>
