<?xml version="1.0" encoding="utf-8"?>
<!-- Generator: Adobe Illustrator 16.0.4, SVG Export Plug-In . SVG Version: 6.00 Build 0)  -->
<!DOCTYPE svg PUBLIC "-//W3C//DTD SVG 1.1//EN" "http://www.w3.org/Graphics/SVG/1.1/DTD/svg11.dtd">
<svg version="1.1" id="Layer_1" xmlns="http://www.w3.org/2000/svg" xmlns:xlink="http://www.w3.org/1999/xlink" x="0px" y="0px"
	 width="19px" height="23px" viewBox="0 0 19 23" enable-background="new 0 0 19 23" xml:space="preserve">
<g>
	<path fill="#0099CC" d="M10.999,6.044L10.981,1H2.842C1.275,1,0.005,2.271,0.005,3.838v16.361C0.005,21.767,1.275,23,2.842,23
		l13.331-0.037c1.568,0,2.822-1.196,2.822-2.764V8.025c-0.516-0.002-6.023-0.018-6.023-0.018L10.999,6.044z M2.995,8h7.024v2.003
		H2.995V8z M15.995,18.001H2.976L2.996,16h13V18.001z M16.009,14.015H2.976v-2.039L16.009,12V14.015z"/>
	<path fill="#0099CC" d="M14.095,5.996c0,0,3.09,0.001,4.061-0.003c-1.59-1.624-5.012-5.018-5.012-5.018v4.077L14.095,5.996z"/>
</g>
<g>
</g>
<g>
</g>
<g>
</g>
<g>
</g>
<g>
</g>
<g>
</g>
<g>
</g>
<g>
</g>
<g>
</g>
<g>
</g>
<g>
</g>
<g>
</g>
<g>
</g>
<g>
</g>
<g>
</g>
</svg>
