<?xml version="1.0" encoding="utf-8"?>
<!-- Generator: Adobe Illustrator 16.0.4, SVG Export Plug-In . SVG Version: 6.00 Build 0)  -->
<!DOCTYPE svg PUBLIC "-//W3C//DTD SVG 1.1//EN" "http://www.w3.org/Graphics/SVG/1.1/DTD/svg11.dtd">
<svg version="1.1" id="Layer_2" xmlns="http://www.w3.org/2000/svg" xmlns:xlink="http://www.w3.org/1999/xlink" x="0px" y="0px"
	 width="19px" height="23px" viewBox="0 0 19 23" enable-background="new 0 0 19 23" xml:space="preserve">
<g>
	<g id="text">
		<g>
			<path fill="#999999" d="M3.008,13v0.989L16,13.976V13H3.008z M3.008,18H16v-1H3.008V18z M10,9H3.029v0.965H10V9z"/>
		</g>
	</g>
	<g id="dogear">
		<g>
			<polygon fill="#999999" points="13.309,7.011 11.99,5.697 12,1 11.008,1 11.026,6.019 13.008,7.992 18.998,7.99 19,7.011 			"/>
		</g>
	</g>
	<g>
		<path fill="#999999" d="M12.743,2L18,7.235v12.964c0,1.006-0.783,1.764-1.824,1.764L2.847,22c-1.03,0-1.837-0.791-1.837-1.801
			V3.838C1.009,2.824,1.833,2,2.847,2H12.743 M13.156,1H2.847C1.28,1,0.009,2.271,0.009,3.838v16.361C0.009,21.767,1.28,23,2.847,23
			l13.331-0.037c1.568,0,2.822-1.196,2.822-2.764V6.819L13.156,1L13.156,1z"/>
	</g>
</g>
<g>
</g>
<g>
</g>
<g>
</g>
<g>
</g>
<g>
</g>
<g>
</g>
<g>
</g>
<g>
</g>
<g>
</g>
<g>
</g>
<g>
</g>
<g>
</g>
<g>
</g>
<g>
</g>
<g>
</g>
</svg>
