<?xml version="1.0" encoding="utf-8"?>
<!-- Generator: Adobe Illustrator 16.0.4, SVG Export Plug-In . SVG Version: 6.00 Build 0)  -->
<!DOCTYPE svg PUBLIC "-//W3C//DTD SVG 1.1//EN" "http://www.w3.org/Graphics/SVG/1.1/DTD/svg11.dtd">
<svg version="1.1" id="Layer_1" xmlns="http://www.w3.org/2000/svg" xmlns:xlink="http://www.w3.org/1999/xlink" x="0px" y="0px"
	 width="31px" height="28px" viewBox="0 0 31 28" enable-background="new 0 0 31 28" xml:space="preserve">
<g>
	<path fill="#4A0259" d="M19.027,12.665l-1.887,0.006v1.994h-1.02v-1.99l-1.991-0.002v-1.009l2.011-0.01v-0.22
		c-0.694-0.483-1.325-1.08-1.837-1.816c-0.489-0.704-0.829-1.466-1.043-2.249c-0.681,0.761-1.115,1.733-1.115,2.809v13.317
		c0,2.413,2.109,4.368,4.55,4.368c2.441,0,4.434-1.955,4.434-4.368v-10.8C20.422,12.774,19.723,12.789,19.027,12.665z M16.664,25.02
		c-0.553,0-1-0.448-1-1.001c0-0.554,0.447-1.002,1-1.002c0.555,0,1.002,0.448,1.002,1.002C17.666,24.571,17.219,25.02,16.664,25.02z
		"/>
	<path fill="#4A0259" d="M7.044,17.706c2.613-1.936,4.066-3.264,4.066-3.264l0.01-5.936L0,18.242
		C0,18.242,2.692,20.928,7.044,17.706z"/>
	<path fill="#4A0259" d="M10.101,20.113c-0.861-0.546-1.602-1.128-2.733-0.923c0,0-0.44,1.698,0.523,2.779
		c0.965,1.081,3.194,3.86,3.194,3.86l0.006-4.829C11.091,21.001,11.077,20.731,10.101,20.113z"/>
	<path fill="#4A0259" d="M25.234,7.45c0.777-1.919,0.389-4.201-1.168-5.756c-1.555-1.555-3.834-1.944-5.752-1.168l3.998,3.998
		L19.785,7.05l-0.334,0.333l-1.318-1.318l-2.7-2.702c-0.374,0.875-0.491,1.829-0.375,2.758c0.141,1.127,0.629,2.219,1.495,3.086
		c0.172,0.172,0.355,0.323,0.543,0.466h0.016v0.012c1.178,0.891,2.635,1.215,4.029,0.993c0.432-0.069,0.861-0.18,1.27-0.356
		l5.547,5.547l1.291-0.021l1.492-1.493l0.064-1.335L25.234,7.45z M28.494,14.138c-0.521,0-0.945-0.424-0.945-0.947
		c0-0.522,0.424-0.946,0.945-0.946c0.523,0,0.947,0.424,0.947,0.946C29.441,13.714,29.018,14.138,28.494,14.138z"/>
	<path fill="#4A0259" d="M17.096,9.673c0.006,0.004,0.01,0.008,0.016,0.012V9.673H17.096z"/>
</g>
<g>
</g>
<g>
</g>
<g>
</g>
<g>
</g>
<g>
</g>
<g>
</g>
<g>
</g>
<g>
</g>
<g>
</g>
<g>
</g>
<g>
</g>
<g>
</g>
<g>
</g>
<g>
</g>
<g>
</g>
</svg>
