<?xml version="1.0" encoding="utf-8"?>
<!-- Generator: Adobe Illustrator 16.0.4, SVG Export Plug-In . SVG Version: 6.00 Build 0)  -->
<!DOCTYPE svg PUBLIC "-//W3C//DTD SVG 1.1//EN" "http://www.w3.org/Graphics/SVG/1.1/DTD/svg11.dtd">
<svg version="1.1" id="Layer_2" xmlns="http://www.w3.org/2000/svg" xmlns:xlink="http://www.w3.org/1999/xlink" x="0px" y="0px"
	 width="24px" height="24px" viewBox="0 0 24 24" enable-background="new 0 0 24 24" xml:space="preserve">
<g>
	<g>
		<path fill="#999999" d="M20.137,3.864C17.964,1.691,15.074,0.492,12,0.493c-3.073,0-5.963,1.195-8.137,3.369
			C1.69,6.036,0.494,8.924,0.494,12c0,3.075,1.196,5.965,3.371,8.138C6.037,22.31,8.927,23.507,12,23.507
			c3.076,0,5.965-1.195,8.139-3.369c2.174-2.173,3.367-5.063,3.367-8.135C23.506,8.928,22.311,6.038,20.137,3.864z M19.436,19.434
			c-1.986,1.987-4.625,3.082-7.436,3.08c-2.809,0-5.445-1.095-7.432-3.08C2.581,17.448,1.487,14.81,1.487,12s1.093-5.448,3.08-7.435
			c4.098-4.097,10.769-4.098,14.868,0.001c1.986,1.986,3.078,4.628,3.078,7.438C22.514,14.81,21.422,17.449,19.436,19.434z"/>
	</g>
	<path fill="#999999" d="M11.962,5.417l1.49,4.634h4.788l-3.865,2.761l1.494,4.598l-3.907-2.838L8.056,17.41l1.493-4.598
		l-3.865-2.761h4.789L11.962,5.417 M11.962,2.15L9.743,9.052H2.562l5.81,4.148l-2.219,6.828l5.809-4.221l5.81,4.221L15.553,13.2
		l5.809-4.148h-7.18L11.962,2.15L11.962,2.15z"/>
</g>
<g>
</g>
<g>
</g>
<g>
</g>
<g>
</g>
<g>
</g>
<g>
</g>
<g>
</g>
<g>
</g>
<g>
</g>
<g>
</g>
<g>
</g>
<g>
</g>
<g>
</g>
<g>
</g>
<g>
</g>
</svg>
