<?xml version="1.0" encoding="utf-8"?>
<!-- Generator: Adobe Illustrator 16.0.4, SVG Export Plug-In . SVG Version: 6.00 Build 0)  -->
<!DOCTYPE svg PUBLIC "-//W3C//DTD SVG 1.1//EN" "http://www.w3.org/Graphics/SVG/1.1/DTD/svg11.dtd">
<svg version="1.1" id="Layer_2" xmlns="http://www.w3.org/2000/svg" xmlns:xlink="http://www.w3.org/1999/xlink" x="0px" y="0px"
	 width="17px" height="22px" viewBox="0 0 17 22" enable-background="new 0 0 17 22" xml:space="preserve">
<path fill="#999999" d="M13.131,16.375l-2.142-9.406h0.021l3.969-1.998V0H12l0.002,3.002H9.986L9.985,0H7v3.002H4.983L4.991,0H2
	v5.063l4.008,1.898h-0.03l-2.041,9.372L0,19.056v2.94L16.992,22v-2.944L13.131,16.375z M7.109,6.475L2.99,4.482V1h1.037L4.02,4
	h3.978V1h1.004l0.001,3h3.978l-0.002-3h1.039v3.417L9.93,6.528l1.928,9.411H5.245L7.109,6.475z M15.992,21.021L0.993,21v-1.394
	l4.047-2.622h7.031l3.928,2.607L15.992,21.021z"/>
<g>
</g>
<g>
</g>
<g>
</g>
<g>
</g>
<g>
</g>
<g>
</g>
<g>
</g>
<g>
</g>
<g>
</g>
<g>
</g>
<g>
</g>
<g>
</g>
<g>
</g>
<g>
</g>
<g>
</g>
</svg>
