<?xml version="1.0" encoding="utf-8"?>
<!-- Generator: Adobe Illustrator 16.0.4, SVG Export Plug-In . SVG Version: 6.00 Build 0)  -->
<!DOCTYPE svg PUBLIC "-//W3C//DTD SVG 1.1//EN" "http://www.w3.org/Graphics/SVG/1.1/DTD/svg11.dtd">
<svg version="1.1" id="Layer_2" xmlns="http://www.w3.org/2000/svg" xmlns:xlink="http://www.w3.org/1999/xlink" x="0px" y="0px"
	 width="26px" height="29px" viewBox="0 0 26 29" enable-background="new 0 0 26 29" xml:space="preserve">
<g>
	<path fill="#999999" d="M20.163,8.084c0.779-1.919,0.39-4.2-1.166-5.757c-1.557-1.556-3.836-1.945-5.754-1.168l3.998,3.998
		l-1.567,1.567l-1.293,1.293L12.375,6.01l-2.013-2.013C10.074,4.669,9.94,5.388,9.942,6.105c0.002,1.229,0.432,2.448,1.285,3.437
		c0.085,0.1,0.162,0.205,0.256,0.299c1.385,1.386,3.343,1.838,5.109,1.372c0.254-0.067,0.505-0.153,0.748-0.258l5.547,5.543
		l0.201-0.002l1.089-0.018l1.492-1.489l0.064-1.335L20.163,8.084z M23.532,15.047c-0.23,0-0.434-0.092-0.598-0.228
		c-0.209-0.173-0.35-0.425-0.35-0.718c0-0.097,0.027-0.185,0.055-0.273c0.119-0.388,0.466-0.674,0.893-0.674
		c0.522,0,0.946,0.424,0.946,0.947C24.479,14.624,24.055,15.047,23.532,15.047z"/>
	<g>
		<path fill="#999999" d="M17.054,18.315c0,1.35-1.012,2.395-2.352,2.395H8.71l-3.65,3.863l0.001-3.863H3.514
			c-1.35,0-2.46-1.09-2.46-2.395v-7.229c0-1.305,1.111-2.368,2.46-2.368h4.375V7.72H3.514c-1.916,0-3.447,1.507-3.447,3.366v7.229
			c0,1.859,1.533,3.367,3.447,3.367h0.547L4.06,27.102l5.084-5.419h5.559c1.914,0,3.352-1.508,3.352-3.367v-4.598h-1V18.315z"/>
	</g>
</g>
<g>
</g>
<g>
</g>
<g>
</g>
<g>
</g>
<g>
</g>
<g>
</g>
<g>
</g>
<g>
</g>
<g>
</g>
<g>
</g>
<g>
</g>
<g>
</g>
<g>
</g>
<g>
</g>
<g>
</g>
</svg>
