<?xml version="1.0" encoding="utf-8"?>
<!-- Generator: Adobe Illustrator 16.0.4, SVG Export Plug-In . SVG Version: 6.00 Build 0)  -->
<!DOCTYPE svg PUBLIC "-//W3C//DTD SVG 1.1//EN" "http://www.w3.org/Graphics/SVG/1.1/DTD/svg11.dtd">
<svg version="1.1" xmlns="http://www.w3.org/2000/svg" xmlns:xlink="http://www.w3.org/1999/xlink" x="0px" y="0px" width="27px"
	 height="23px" viewBox="0 0 27 23" enable-background="new 0 0 27 23" xml:space="preserve">
<g id="Layer_1" display="none">
	<g display="inline">
		<g>
			<path fill="#D7234A" d="M21.651,13.236c0.527-1.143,0.828-2.41,0.828-3.75c0-4.958-4.019-8.978-8.977-8.978
				s-8.978,4.02-8.978,8.978c0,1.483,0.366,2.878,1.002,4.11l3.099-3.098c-0.07-0.333-0.108-0.676-0.108-1.029
				c0-2.762,2.238-5.001,5-5.001c2.763,0,5.001,2.239,5.001,5.001c0,1.63-0.792,3.063-2,3.978l0.025,0.007l-4.83,4.829
				c0.578,0.117,1.176,0.18,1.789,0.18c1.562,0,3.029-0.4,4.309-1.102l5.13,5.259l4.052-3.974L21.651,13.236z"/>
		</g>
		<polygon fill="#D7234A" points="4.956,21.541 0.007,16.592 2.032,14.566 5.032,17.516 11.855,10.692 13.83,12.668 		"/>
	</g>
</g>
<g id="Layer_2">
	<g>
		<polygon fill="#999999" points="0.874,16.167 4.954,20.247 13.133,12.069 12.426,11.362 4.979,18.808 1.598,15.442 		"/>
		<path fill="#999999" d="M26.126,20.919l-5.702-5.703c1.293-1.559,2.07-3.558,2.07-5.742c0-4.971-4.029-9-9-9c-4.971,0-9,4.029-9,9
			c0,1.851,0.56,3.57,1.518,5l0.785-0.785c-0.771-1.221-1.223-2.664-1.223-4.214c0-4.374,3.546-7.92,7.92-7.92
			c4.375,0,7.92,3.546,7.92,7.92c0,4.375-3.546,7.919-7.92,7.919c-0.742,0-1.457-0.109-2.137-0.299l-0.858,0.857
			c0.938,0.332,1.943,0.521,2.996,0.521c2.427,0,4.626-0.965,6.246-2.527l5.679,5.68L26.126,20.919z"/>
	</g>
	<g>
	</g>
	<g>
	</g>
	<g>
	</g>
	<g>
	</g>
	<g>
	</g>
	<g>
	</g>
	<g>
	</g>
	<g>
	</g>
	<g>
	</g>
	<g>
	</g>
	<g>
	</g>
	<g>
	</g>
	<g>
	</g>
	<g>
	</g>
	<g>
	</g>
</g>
</svg>
