<?xml version="1.0" encoding="utf-8"?>
<!-- Generator: Adobe Illustrator 16.0.4, SVG Export Plug-In . SVG Version: 6.00 Build 0)  -->
<!DOCTYPE svg PUBLIC "-//W3C//DTD SVG 1.1//EN" "http://www.w3.org/Graphics/SVG/1.1/DTD/svg11.dtd">
<svg version="1.1" id="Layer_1" xmlns="http://www.w3.org/2000/svg" xmlns:xlink="http://www.w3.org/1999/xlink" x="0px" y="0px"
	 width="19px" height="22px" viewBox="0 0 19 22" enable-background="new 0 0 19 22" xml:space="preserve">
<g>
	<g>
		<g id="dogear_4_">
			<g>
				<polygon fill="#999999" points="13.299,6.011 11.981,4.697 11.99,0 10.998,0 11.018,5.019 12.998,6.992 18.988,6.99 
					18.99,6.011 				"/>
			</g>
		</g>
		<g>
			<path fill="none" d="M2.837,1C1.824,1,1,1.824,1,2.838v16.361C1,20.209,1.807,21,2.837,21l13.329-0.037
				c1.041,0,1.824-0.758,1.824-1.764V6.234L12.734,1H2.837z"/>
			<path fill="#999999" d="M13.146,0H2.837C1.271,0,0,1.271,0,2.838v16.361C0,20.767,1.271,22,2.837,22l13.332-0.037
				c1.567,0,2.821-1.196,2.821-2.764V5.819L13.146,0z M17.99,19.199c0,1.006-0.783,1.764-1.824,1.764L2.837,21
				C1.807,21,1,20.209,1,19.199V2.838C1,1.824,1.824,1,2.837,1h9.897l5.256,5.234V19.199z"/>
		</g>
	</g>
	<path fill="#999999" d="M9.496,15.764c-1.438,0-2.607-1.168-2.607-2.604c0-1.438,1.169-2.606,2.607-2.606
		c1.437,0,2.606,1.168,2.606,2.606C12.102,14.596,10.933,15.764,9.496,15.764z M9.496,11.453c-0.941,0-1.707,0.764-1.707,1.706
		c0,0.94,0.765,1.705,1.707,1.705c0.941,0,1.706-0.765,1.706-1.705C11.201,12.217,10.437,11.453,9.496,11.453z"/>
	<path fill="#999999" d="M9.496,18.156c-2.751,0-4.989-2.237-4.989-4.988S6.744,8.18,9.496,8.18c2.75,0,4.989,2.237,4.989,4.988
		S12.246,18.156,9.496,18.156z M9.496,9.08c-2.255,0-4.089,1.834-4.089,4.088c0,2.256,1.834,4.089,4.089,4.089
		c2.254,0,4.088-1.833,4.088-4.089C13.584,10.914,11.75,9.08,9.496,9.08z"/>
</g>
<g>
</g>
<g>
</g>
<g>
</g>
<g>
</g>
<g>
</g>
<g>
</g>
<g>
</g>
<g>
</g>
<g>
</g>
<g>
</g>
<g>
</g>
<g>
</g>
<g>
</g>
<g>
</g>
<g>
</g>
</svg>
