<?xml version="1.0" encoding="utf-8"?>
<!-- Generator: Adobe Illustrator 16.0.4, SVG Export Plug-In . SVG Version: 6.00 Build 0)  -->
<!DOCTYPE svg PUBLIC "-//W3C//DTD SVG 1.1//EN" "http://www.w3.org/Graphics/SVG/1.1/DTD/svg11.dtd">
<svg version="1.1" id="Layer_3" xmlns="http://www.w3.org/2000/svg" xmlns:xlink="http://www.w3.org/1999/xlink" x="0px" y="0px"
	 width="26px" height="29px" viewBox="0 0 26 29" enable-background="new 0 0 26 29" xml:space="preserve">
<g>
	<path fill="#851782" d="M9.253,10.242C8.708,9.456,8.343,8.6,8.139,7.721H3.531c-1.916,0-3.447,1.507-3.447,3.366v7.237
		c0,1.859,1.532,3.367,3.447,3.367h0.518l-0.002,5.418l5.084-5.418h5.559c1.914,0,3.352-1.508,3.352-3.367v-3.789l-1.209-1.324
		C14.025,13.828,10.996,12.75,9.253,10.242z"/>
	<path fill="#851782" d="M20.146,8.074c0.778-1.918,0.39-4.2-1.167-5.757c-1.555-1.555-3.834-1.944-5.752-1.168l3.998,3.998
		L14.37,8.001l-4.027-4.013c-0.507,1.186-0.561,2.516-0.167,3.732c0.249,0.771,0.675,1.498,1.288,2.111
		c1.584,1.584,3.917,1.949,5.858,1.113l0.795,0.795l4.752,4.752l1.291-0.02l1.492-1.493l0.064-1.334L20.146,8.074z M23.526,15.046
		c-0.522,0-0.946-0.424-0.946-0.947c0-0.522,0.424-0.946,0.946-0.946s0.946,0.424,0.946,0.946
		C24.473,14.622,24.049,15.046,23.526,15.046z"/>
</g>
<g>
</g>
<g>
</g>
<g>
</g>
<g>
</g>
<g>
</g>
<g>
</g>
<g>
</g>
<g>
</g>
<g>
</g>
<g>
</g>
<g>
</g>
<g>
</g>
<g>
</g>
<g>
</g>
<g>
</g>
</svg>
