<?xml version="1.0" encoding="utf-8"?>
<!-- Generator: Adobe Illustrator 16.0.4, SVG Export Plug-In . SVG Version: 6.00 Build 0)  -->
<!DOCTYPE svg PUBLIC "-//W3C//DTD SVG 1.1//EN" "http://www.w3.org/Graphics/SVG/1.1/DTD/svg11.dtd">
<svg version="1.1" id="Layer_1" xmlns="http://www.w3.org/2000/svg" xmlns:xlink="http://www.w3.org/1999/xlink" x="0px" y="0px"
	 width="22px" height="24px" viewBox="0 0 22 24" enable-background="new 0 0 22 24" xml:space="preserve">
<g>
	<g>
		<g>
			<path fill="#111C24" d="M17.575,0.145c-2.441,0-4.551,1.956-4.551,4.368v14.72c0,2.412,2.109,4.367,4.551,4.367
				c2.44,0,4.425-1.955,4.425-4.367V4.513C22,2.101,20.016,0.145,17.575,0.145z M17.544,20.406c-0.553,0-1.001-0.449-1.001-1.002
				s0.448-1.002,1.001-1.002c0.554,0,1.002,0.449,1.002,1.002S18.098,20.406,17.544,20.406z M20.048,7.01L18.02,7.008V9H17V7.002
				L14.995,7V5.99L17,5.999L16.988,4h1.028L18.01,5.999h2.038V7.01z"/>
		</g>
	</g>
	<path fill="#111C24" d="M7.923,12.041c2.614-1.936,4.067-3.264,4.067-3.264L12,2.842L0.879,12.577
		C0.879,12.577,3.572,15.263,7.923,12.041z"/>
	<path fill="#111C24" d="M10.98,15.448c-0.862-0.546-1.602-1.128-2.734-0.923c0,0-0.44,1.699,0.524,2.78
		c0.965,1.08,3.194,3.86,3.194,3.86l0.006-4.83C11.97,16.336,11.957,16.066,10.98,15.448z"/>
</g>
<g>
</g>
<g>
</g>
<g>
</g>
<g>
</g>
<g>
</g>
<g>
</g>
<g>
</g>
<g>
</g>
<g>
</g>
<g>
</g>
<g>
</g>
<g>
</g>
<g>
</g>
<g>
</g>
<g>
</g>
</svg>
