<?xml version="1.0" encoding="utf-8"?>
<!-- Generator: Adobe Illustrator 16.0.4, SVG Export Plug-In . SVG Version: 6.00 Build 0)  -->
<!DOCTYPE svg PUBLIC "-//W3C//DTD SVG 1.1//EN" "http://www.w3.org/Graphics/SVG/1.1/DTD/svg11.dtd">
<svg version="1.1" id="Layer_1" xmlns="http://www.w3.org/2000/svg" xmlns:xlink="http://www.w3.org/1999/xlink" x="0px" y="0px"
	 width="31px" height="22px" viewBox="0 0 31 22" enable-background="new 0 0 31 22" xml:space="preserve">
<g>
	<path d="M15.659,10.962c1.172-2.891,0.587-6.328-1.757-8.673c-2.343-2.344-5.968-2.74-8.857-1.571l6.023,6.024l-3.917,3.917
		L1.097,4.603C0.693,5.548,0.295,6.758,0.27,7.768c-0.052,2.108,0.703,4.231,2.312,5.839c2.025,2.025,4.857,2.714,7.455,2.113
		c0.465-0.107,0.925-0.243,1.37-0.435l6.63,6.632l1.945-0.031l2.247-2.248l0.099-2.01L15.659,10.962z M18.633,19.765
		c-0.926,0-1.676-0.75-1.676-1.675s0.75-1.677,1.676-1.677s1.676,0.752,1.676,1.677S19.559,19.765,18.633,19.765z"/>
	<g id="arrow_copy">
		<g>
			<polygon points="22.521,5.271 26.627,11.637 30.732,5.271 			"/>
		</g>
	</g>
</g>
<g>
</g>
<g>
</g>
<g>
</g>
<g>
</g>
<g>
</g>
<g>
</g>
<g>
</g>
<g>
</g>
<g>
</g>
<g>
</g>
<g>
</g>
<g>
</g>
<g>
</g>
<g>
</g>
<g>
</g>
</svg>
