<?xml version="1.0" encoding="utf-8"?>
<!-- Generator: Adobe Illustrator 16.0.4, SVG Export Plug-In . SVG Version: 6.00 Build 0)  -->
<!DOCTYPE svg PUBLIC "-//W3C//DTD SVG 1.1//EN" "http://www.w3.org/Graphics/SVG/1.1/DTD/svg11.dtd">
<svg version="1.1" id="Layer_2" xmlns="http://www.w3.org/2000/svg" xmlns:xlink="http://www.w3.org/1999/xlink" x="0px" y="0px"
	 width="24px" height="24px" viewBox="0 0 24 24" enable-background="new 0 0 24 24" xml:space="preserve">
<g>
	<path fill="#999999" d="M23.994,14.002v-3.987h-3.072c-0.215-1.022-0.617-1.998-1.143-2.863l2.188-2.188L18.943,1.94l-2.172,2.171
		c-0.848-0.527-1.777-0.935-2.781-1.162V0.032h-3.963v2.903C9.016,3.158,8.031,3.563,7.176,4.09l-2.15-2.15L2.002,4.964l2.154,2.154
		c-0.534,0.872-0.943,1.858-1.162,2.891H0.005v3.995h3.036c0.23,0.971,0.629,1.873,1.141,2.697l-2.18,2.182l3.024,3.023l2.195-2.195
		c0.852,0.518,1.783,0.916,2.788,1.133v3.125h3.984V20.82c0.98-0.225,1.9-0.621,2.734-1.131l2.217,2.217l3.023-3.023l-2.213-2.213
		c0.5-0.814,0.891-1.713,1.119-2.668H23.994z M19.9,13.771c-0.195,0.814-0.529,1.613-0.998,2.373l-0.414,0.674l2.064,2.064
		l-1.609,1.609l-2.066-2.066l-0.672,0.41c-0.787,0.482-1.604,0.822-2.426,1.01l-0.768,0.178v2.994h-2.013v-2.979l-0.778-0.172
		c-0.842-0.184-1.677-0.523-2.48-1.012l-0.671-0.406l-2.043,2.043l-1.61-1.609l2.034-2.035l-0.418-0.674
		c-0.481-0.775-0.824-1.584-1.018-2.4l-0.183-0.76H1.005V11h2.799l0.168-0.783c0.187-0.882,0.545-1.772,1.037-2.576L5.42,6.969
		L3.416,4.964l1.61-1.61l2.001,2.001L7.7,4.941c0.777-0.479,1.656-0.834,2.542-1.03l0.756-0.173V1h2.012v2.748l0.76,0.176
		c0.842,0.191,1.676,0.54,2.475,1.037l0.674,0.418l2.025-2.025l1.609,1.61L18.518,7l0.406,0.671c0.484,0.796,0.836,1.679,1.02,2.551
		l0.168,0.784h2.902v2.006h-2.932L19.9,13.771z"/>
	<g>
		<path fill="#999999" d="M11.972,6.799c-2.793,0-5.066,2.272-5.066,5.065c0,2.793,2.272,5.067,5.066,5.067
			c2.794,0,5.065-2.273,5.065-5.067C17.037,9.072,14.766,6.799,11.972,6.799z M11.972,15.932c-2.246,0-4.066-1.82-4.066-4.067
			c0-2.245,1.82-4.065,4.066-4.065c2.245,0,4.065,1.82,4.065,4.065C16.037,14.111,14.217,15.932,11.972,15.932z"/>
	</g>
</g>
<g>
</g>
<g>
</g>
<g>
</g>
<g>
</g>
<g>
</g>
<g>
</g>
<g>
</g>
<g>
</g>
<g>
</g>
<g>
</g>
<g>
</g>
<g>
</g>
<g>
</g>
<g>
</g>
<g>
</g>
</svg>
