<?xml version="1.0" encoding="utf-8"?>
<!-- Generator: Adobe Illustrator 16.0.4, SVG Export Plug-In . SVG Version: 6.00 Build 0)  -->
<!DOCTYPE svg PUBLIC "-//W3C//DTD SVG 1.1//EN" "http://www.w3.org/Graphics/SVG/1.1/DTD/svg11.dtd">
<svg version="1.1" id="Layer_4" xmlns="http://www.w3.org/2000/svg" xmlns:xlink="http://www.w3.org/1999/xlink" x="0px" y="0px"
	 width="26px" height="29px" viewBox="0 0 26 29" enable-background="new 0 0 26 29" xml:space="preserve">
<g>
	<path fill="#0099CC" d="M9.165,10.213C8.267,8.92,7.849,7.463,7.864,6H3.838C2.271,6,1,7.246,1,8.813v16.361
		C1,26.742,2.271,28,3.838,28h13.33c1.568,0,2.822-1.258,2.822-2.826V16.48l-3.275-3.292C13.915,13.792,10.901,12.712,9.165,10.213z
		 M3.961,13h7.063v2H3.961V13z M16.99,23H3.971v-2.033h13.02V23z M17.004,19H3.971v-2h13.033V19z"/>
	<path fill="#0099CC" d="M20.096,8.045c0.777-1.918,0.389-4.2-1.168-5.757c-1.555-1.556-3.834-1.945-5.752-1.168l3.999,3.998
		l-1.955,1.955l-0.906,0.905l-0.34-0.341L12.31,5.975L11.994,5.66l-1.701-1.701c-0.275,0.643-0.405,1.329-0.416,2.016
		c-0.021,1.383,0.481,2.771,1.537,3.827c0.183,0.183,0.377,0.345,0.578,0.495c1.469,1.1,3.371,1.325,5.033,0.704
		c0.109,0,0.219-0.001,0.33-0.001l1.998,1.998l0.652,0.653l2.812,2.812l1.291-0.02l1.492-1.493l0.064-1.334L20.096,8.045z
		 M23.527,15.043c-0.523,0-0.947-0.423-0.947-0.946c0-0.523,0.424-0.947,0.947-0.947s0.947,0.424,0.947,0.947
		C24.475,14.619,24.104,15.043,23.527,15.043z"/>
</g>
<g>
</g>
<g>
</g>
<g>
</g>
<g>
</g>
<g>
</g>
<g>
</g>
<g>
</g>
<g>
</g>
<g>
</g>
<g>
</g>
<g>
</g>
<g>
</g>
<g>
</g>
<g>
</g>
<g>
</g>
</svg>
