<?xml version="1.0" encoding="utf-8"?>
<!-- Generator: Adobe Illustrator 16.0.4, SVG Export Plug-In . SVG Version: 6.00 Build 0)  -->
<!DOCTYPE svg PUBLIC "-//W3C//DTD SVG 1.1//EN" "http://www.w3.org/Graphics/SVG/1.1/DTD/svg11.dtd">
<svg version="1.1" id="Layer_1" xmlns="http://www.w3.org/2000/svg" xmlns:xlink="http://www.w3.org/1999/xlink" x="0px" y="0px"
	 width="23px" height="23px" viewBox="0 0 23 23" enable-background="new 0 0 23 23" xml:space="preserve">
<g>
	<g>
		<path fill="#999999" d="M11.83,14.357l-0.722,0.007L10.1,13.172c0,0,0.772-0.559,1.381-0.559s1.276,0.566,1.276,0.566
			L11.83,14.357z"/>
	</g>
	<g>
		<g>
			<path fill="#999999" d="M11.5,0.053C5.178,0.053,0.053,5.178,0.053,11.5S5.178,22.947,11.5,22.947S22.947,17.822,22.947,11.5
				S17.822,0.053,11.5,0.053z M11.5,21.908c-6.141,0-10.454-5.25-10.454-10.406c0-5.776,4.682-10.458,10.458-10.458
				c5.775,0,10.459,4.682,10.459,10.458C21.963,16.689,17.641,21.908,11.5,21.908z"/>
			<g>
				<path fill="#999999" d="M11.589,2.874c-2.114,0-3.828,1.717-3.828,3.835s1.714,4.586,3.828,4.586s3.829-2.468,3.829-4.586
					S13.703,2.874,11.589,2.874z M11.589,10.368c-1.649,0-2.986-1.925-2.986-3.577c0-1.652,1.337-2.991,2.986-2.991
					s2.985,1.339,2.985,2.991C14.574,8.443,13.238,10.368,11.589,10.368z"/>
			</g>
			<g>
				<path fill="#999999" d="M11.598,12.323c-11.801,0-7.214,4.175-4.042,8.38c0.4,0.379,2.934,0.883,3.827,0.898
					c1.281,0.023,3.332-0.537,4.102-0.914C18.01,16.654,23.475,12.323,11.598,12.323z M12.888,20.606l0.037,0.219
					c-0.467,0.077-0.943,0.127-1.434,0.127c-0.517,0-1.02-0.053-1.512-0.139l0.034-0.198c-0.699-0.081-1.445-0.238-1.774-0.551
					c-2.616-3.47-7.061-6.913,3.335-6.913c10.545,0,5.289,3.574,3.207,6.901C14.146,20.363,13.467,20.521,12.888,20.606z"/>
			</g>
		</g>
		<path fill="#999999" d="M10.905,14.711l-1.119,6.453c0.914,0.105,1.758,0.096,1.758,0.096s0.672,0.025,1.561-0.105l-1.089-6.449
			L10.905,14.711z"/>
	</g>
</g>
<g>
</g>
<g>
</g>
<g>
</g>
<g>
</g>
<g>
</g>
<g>
</g>
<g>
</g>
<g>
</g>
<g>
</g>
<g>
</g>
<g>
</g>
<g>
</g>
<g>
</g>
<g>
</g>
<g>
</g>
</svg>
