<?xml version="1.0" encoding="utf-8"?>
<!-- Generator: Adobe Illustrator 16.0.4, SVG Export Plug-In . SVG Version: 6.00 Build 0)  -->
<!DOCTYPE svg PUBLIC "-//W3C//DTD SVG 1.1//EN" "http://www.w3.org/Graphics/SVG/1.1/DTD/svg11.dtd">
<svg version="1.1" id="Layer_1" xmlns="http://www.w3.org/2000/svg" xmlns:xlink="http://www.w3.org/1999/xlink" x="0px" y="0px"
	 width="24px" height="24px" viewBox="0 0 24 24" enable-background="new 0 0 24 24" xml:space="preserve">
<g>
	<g>
		<path fill="#8C8035" d="M20.136,3.864C17.964,1.691,15.073,0.492,12,0.493c-3.073,0-5.963,1.195-8.137,3.369
			C1.69,6.036,0.494,8.924,0.494,12c0,3.075,1.196,5.965,3.371,8.138C6.037,22.31,8.927,23.507,12,23.507
			c3.076,0,5.965-1.195,8.138-3.369c2.174-2.173,3.368-5.063,3.368-8.135C23.506,8.928,22.31,6.038,20.136,3.864z M18.95,18.948
			c-1.857,1.856-4.322,2.879-6.949,2.878c-2.625,0-5.09-1.023-6.945-2.878c-1.857-1.856-2.88-4.322-2.88-6.948
			c0-2.625,1.021-5.091,2.879-6.948c3.829-3.829,10.062-3.829,13.894,0.001c1.856,1.857,2.879,4.325,2.879,6.951
			C21.827,14.626,20.805,17.093,18.95,18.948z"/>
	</g>
	<polygon fill="#8C8035" points="11.962,2.15 14.181,9.052 21.361,9.052 15.552,13.2 17.771,20.028 11.962,15.808 6.153,20.028 
		8.372,13.2 2.562,9.052 9.743,9.052 	"/>
</g>
<g>
</g>
<g>
</g>
<g>
</g>
<g>
</g>
<g>
</g>
<g>
</g>
<g>
</g>
<g>
</g>
<g>
</g>
<g>
</g>
<g>
</g>
<g>
</g>
<g>
</g>
<g>
</g>
<g>
</g>
</svg>
