<?xml version="1.0" encoding="utf-8"?>
<!-- Generator: Adobe Illustrator 16.0.4, SVG Export Plug-In . SVG Version: 6.00 Build 0)  -->
<!DOCTYPE svg PUBLIC "-//W3C//DTD SVG 1.1//EN" "http://www.w3.org/Graphics/SVG/1.1/DTD/svg11.dtd">
<svg version="1.1" id="Layer_1" xmlns="http://www.w3.org/2000/svg" xmlns:xlink="http://www.w3.org/1999/xlink" x="0px" y="0px"
	 width="25px" height="29px" viewBox="0 0 25 29" enable-background="new 0 0 25 29" xml:space="preserve">
<path fill="#666666" d="M18.387,16.486c-1.705,0-3.242,0.713-4.338,1.854l-1.745-1.746c0.189-0.586,0.294-1.211,0.294-1.86
	c0-0.72-0.132-1.408-0.362-2.048l1.905-1.905c1.099,1.12,2.628,1.815,4.32,1.815c3.347,0,6.06-2.713,6.06-6.059
	c0-3.347-2.713-6.06-6.06-6.06c-3.346,0-6.059,2.713-6.059,6.06c0,0.72,0.132,1.407,0.363,2.048L10.86,10.49
	c-1.1-1.12-2.629-1.815-4.322-1.815c-3.346,0-6.059,2.712-6.059,6.059c0,3.346,2.713,6.059,6.059,6.059
	c1.66,0,3.163-0.669,4.257-1.75l1.809,1.81c-0.15,0.525-0.236,1.079-0.236,1.653c0,3.323,2.694,6.018,6.018,6.018
	s6.019-2.694,6.019-6.018C24.405,19.181,21.711,16.486,18.387,16.486z M18.434,4.541c1.106,0,2.004,0.896,2.004,2.003
	s-0.897,2.003-2.004,2.003c-1.105,0-2.002-0.896-2.002-2.003S17.328,4.541,18.434,4.541z M6.511,16.743
	c-1.106,0-2.002-0.896-2.002-2.002c0-1.106,0.896-2.003,2.002-2.003s2.003,0.896,2.003,2.003
	C8.514,15.847,7.617,16.743,6.511,16.743z M18.359,24.501c-1.098,0-1.988-0.891-1.988-1.989s0.891-1.989,1.988-1.989
	c1.1,0,1.99,0.891,1.99,1.989S19.459,24.501,18.359,24.501z"/>
<g>
</g>
<g>
</g>
<g>
</g>
<g>
</g>
<g>
</g>
<g>
</g>
<g>
</g>
<g>
</g>
<g>
</g>
<g>
</g>
<g>
</g>
<g>
</g>
<g>
</g>
<g>
</g>
<g>
</g>
</svg>
