<?xml version="1.0" encoding="utf-8"?>
<!-- Generator: Adobe Illustrator 16.0.4, SVG Export Plug-In . SVG Version: 6.00 Build 0)  -->
<!DOCTYPE svg PUBLIC "-//W3C//DTD SVG 1.1//EN" "http://www.w3.org/Graphics/SVG/1.1/DTD/svg11.dtd">
<svg version="1.1" id="Layer_2" xmlns="http://www.w3.org/2000/svg" xmlns:xlink="http://www.w3.org/1999/xlink" x="0px" y="0px"
	 width="22px" height="24px" viewBox="0 0 22 24" enable-background="new 0 0 22 24" xml:space="preserve">
<g id="_x30_2-skills">
	<g>
		<path fill="#999999" d="M17.574,0.148c-2.439,0-4.551,1.956-4.551,4.368v14.712c0,2.412,2.111,4.367,4.551,4.367
			c2.441,0,4.426-1.955,4.426-4.367V4.517C22,2.104,20.016,0.148,17.574,0.148z M21,18.568c0,2.171-1.564,3.93-3.486,3.93
			c-1.924,0-3.514-1.759-3.514-3.93V4.775c0-2.171,1.59-3.771,3.514-3.771C19.436,1.004,21,2.604,21,4.775V18.568z"/>
		<polygon fill="#999999" points="17.994,6.013 18,4.011 17,4.01 17,6.01 15,6.004 15,7.004 17.006,6.996 17.006,9.004 18,9.004 
			18,7.004 20,6.996 20,6.012 17.994,6.012 		"/>
		<circle fill="#999999" cx="17.533" cy="19.408" r="1.002"/>
	</g>
	<g>
		<path fill="#999999" d="M0.878,12.581c0,0,2.668,2.65,7.043-0.536c2.63-1.915,4.067-3.264,4.067-3.264l0.01-5.936L0.878,12.581z
			 M10.992,8.506c0,0-1.215,0.995-3.254,2.611C4.734,13.497,2.5,12.435,2.5,12.435l8.5-7.46L10.992,8.506z"/>
	</g>
	<g>
		<path fill="#999999" d="M10.979,15.452c-0.862-0.546-1.602-1.128-2.733-0.923c0,0-0.441,1.699,0.523,2.78
			c0.965,1.08,3.193,3.86,3.193,3.86l0.006-4.83C11.969,16.34,11.956,16.07,10.979,15.452z M9.365,16.838
			c-0.52-0.582-0.371-1.41-0.371-1.41c0.61-0.109,1.009,0.203,1.473,0.498c0.525,0.332,0.658,0.531,0.658,0.531l0.031,2.578
			C11.156,19.035,9.885,17.42,9.365,16.838z"/>
	</g>
</g>
<g>
</g>
<g>
</g>
<g>
</g>
<g>
</g>
<g>
</g>
<g>
</g>
<g>
</g>
<g>
</g>
<g>
</g>
<g>
</g>
<g>
</g>
<g>
</g>
<g>
</g>
<g>
</g>
<g>
</g>
</svg>
