<?xml version="1.0" encoding="utf-8"?>
<!-- Generator: Adobe Illustrator 16.0.4, SVG Export Plug-In . SVG Version: 6.00 Build 0)  -->
<!DOCTYPE svg PUBLIC "-//W3C//DTD SVG 1.1//EN" "http://www.w3.org/Graphics/SVG/1.1/DTD/svg11.dtd">
<svg version="1.1" id="Layer_2" xmlns="http://www.w3.org/2000/svg" xmlns:xlink="http://www.w3.org/1999/xlink" x="0px" y="0px"
	 width="23px" height="22px" viewBox="0 0 23 22" enable-background="new 0 0 23 22" xml:space="preserve">
<g>
	<rect x="6" y="9" fill="#999999" width="11" height="1"/>
	<rect x="9" y="12" fill="#999999" width="5" height="0.961"/>
	<path fill="#999999" d="M11.502,0.212L0,6.824v15.17h22.99V6.824L11.502,0.212z M22.006,8.894L19.998,10V6.175l2.008,1.158V8.894z
		 M19,10.549l-7.546,4.154l-7.456-4.206V6H19V10.549z M17.96,5H5.044l6.464-3.721L17.96,5z M3,6.177v3.757L0.99,8.8V7.333L3,6.177z
		 M0.99,21.006V9.985l10.505,6.062l10.511-6.061v11.02H0.99z"/>
</g>
<g>
</g>
<g>
</g>
<g>
</g>
<g>
</g>
<g>
</g>
<g>
</g>
<g>
</g>
<g>
</g>
<g>
</g>
<g>
</g>
<g>
</g>
<g>
</g>
<g>
</g>
<g>
</g>
<g>
</g>
</svg>
