<?xml version="1.0" encoding="utf-8"?>
<!-- Generator: Adobe Illustrator 16.0.4, SVG Export Plug-In . SVG Version: 6.00 Build 0)  -->
<!DOCTYPE svg PUBLIC "-//W3C//DTD SVG 1.1//EN" "http://www.w3.org/Graphics/SVG/1.1/DTD/svg11.dtd">
<svg version="1.1" id="Layer_2" xmlns="http://www.w3.org/2000/svg" xmlns:xlink="http://www.w3.org/1999/xlink" x="0px" y="0px"
	 width="23px" height="25px" viewBox="0 0 23 25" enable-background="new 0 0 23 25" xml:space="preserve">
<g>
	<path fill="#999999" d="M11.324,10.501c0.781,0,1.47,0.529,1.639,1.257c0.029,0.128,0.043,0.242,0.043,0.347v5.784
		c0,0.131-0.025,0.274-0.08,0.452c-0.215,0.689-0.858,1.162-1.602,1.162H6.865l-2.881,3.092l0.015-3.092H2.672
		C1.75,19.504,1,18.784,1,17.899v-5.794c0-0.738,0.523-1.376,1.272-1.552c0.154-0.036,0.281-0.053,0.399-0.053h6.411h2.232
		 M11.314,9.501H9.083H2.672c-0.217,0-0.425,0.032-0.627,0.079C0.867,9.855,0,10.878,0,12.105v5.784c0,1.438,1.19,2.604,2.672,2.604
		H3l0.007,4.351l4.277-4.351h4.03c1.211,0,2.223-0.784,2.557-1.855c0.074-0.239,0.125-0.487,0.125-0.749v-5.784
		c0-0.197-0.026-0.387-0.068-0.571C13.658,10.372,12.594,9.501,11.314,9.501L11.314,9.501z"/>
	<g>
		<path fill="#999999" d="M20.318,0.501h-8.632c-1.481,0-2.683,1.167-2.683,2.605V7.5h0.981l0-4.394
			c0-0.885,0.774-1.605,1.702-1.605h8.632c0.928,0,1.682,0.72,1.682,1.605V8.93c0,0.885-0.754,1.604-1.682,1.604h-1.295L19,13.394
			l-3.014-3.176v1.405l3.992,4.29l0.018-4.412h0.303c1.48,0,2.701-1.133,2.701-2.571V3.106C23,1.668,21.799,0.501,20.318,0.501z"/>
	</g>
</g>
<g>
</g>
<g>
</g>
<g>
</g>
<g>
</g>
<g>
</g>
<g>
</g>
<g>
</g>
<g>
</g>
<g>
</g>
<g>
</g>
<g>
</g>
<g>
</g>
<g>
</g>
<g>
</g>
<g>
</g>
</svg>
