<?xml version="1.0" encoding="utf-8"?>
<!-- Generator: Adobe Illustrator 16.0.4, SVG Export Plug-In . SVG Version: 6.00 Build 0)  -->
<!DOCTYPE svg PUBLIC "-//W3C//DTD SVG 1.1//EN" "http://www.w3.org/Graphics/SVG/1.1/DTD/svg11.dtd">
<svg version="1.1" id="Layer_2" xmlns="http://www.w3.org/2000/svg" xmlns:xlink="http://www.w3.org/1999/xlink" x="0px" y="0px"
	 width="26px" height="29px" viewBox="0 0 26 29" enable-background="new 0 0 26 29" xml:space="preserve">
<g>
	<path fill="#999999" d="M23.446,14.494c-0.23,0-0.434-0.092-0.598-0.229c-0.209-0.173-0.35-0.425-0.35-0.718
		c0-0.097,0.027-0.185,0.055-0.273c0.119-0.388,0.466-0.674,0.893-0.674c0.522,0,0.946,0.424,0.946,0.947
		C24.393,14.07,23.969,14.494,23.446,14.494z M20.116,7.66c0.779-1.919,0.39-4.2-1.166-5.757c-1.557-1.556-3.836-1.945-5.753-1.168
		l3.998,3.998L15.627,6.3l-1.293,1.293l-2.006-2.006l-2.013-2.013c-0.287,0.672-0.421,1.391-0.42,2.108
		c0.002,1.229,0.433,2.448,1.285,3.437c0.085,0.1,0.161,0.205,0.256,0.299c1.385,1.386,3.342,1.838,5.109,1.372
		c0.254-0.067,0.505-0.153,0.748-0.258l5.547,5.547l0.201-0.003l1.089-0.018l1.492-1.492l0.064-1.335L20.116,7.66z"/>
	<g>
		<path fill="#999999" d="M11.555,12.704c-2.406,0-4.356,1.951-4.356,4.356s1.95,4.355,4.356,4.355c2.405,0,4.356-1.95,4.356-4.355
			S13.96,12.704,11.555,12.704z M11.555,20.441c-1.868,0-3.381-1.514-3.381-3.381s1.513-3.381,3.381-3.381
			c1.866,0,3.379,1.514,3.379,3.381S13.421,20.441,11.555,20.441z"/>
	</g>
	<g>
		<path fill="#999999" d="M11.603,27.571c-5.764,0-10.437-4.673-10.437-10.437c0-4.563,2.935-8.427,7.016-9.845
			C8.093,6.914,8.037,6.527,8.01,6.13c-4.641,1.492-8.005,5.825-8.005,10.96c0,6.369,5.163,11.532,11.532,11.532
			c5.774,0,10.54-4.25,11.381-9.789l-0.918-0.918C21.6,23.314,17.104,27.571,11.603,27.571z"/>
		<path fill="#999999" d="M18.882,17.088c0,4.058-3.289,7.348-7.346,7.348c-4.058,0-7.348-3.29-7.348-7.348
			c0-3.345,2.238-6.163,5.298-7.051c-0.208-0.27-0.399-0.553-0.567-0.852c-3.32,1.099-5.72,4.215-5.72,7.902
			c0,4.604,3.732,8.336,8.337,8.336c4.604,0,8.336-3.732,8.336-8.336c0-0.492-0.055-0.969-0.138-1.438l-1.498-1.499
			C18.637,15.053,18.882,16.037,18.882,17.088z"/>
	</g>
</g>
<g>
</g>
<g>
</g>
<g>
</g>
<g>
</g>
<g>
</g>
<g>
</g>
<g>
</g>
<g>
</g>
<g>
</g>
<g>
</g>
<g>
</g>
<g>
</g>
<g>
</g>
<g>
</g>
<g>
</g>
</svg>
