<?xml version="1.0" encoding="utf-8"?>
<!-- Generator: Adobe Illustrator 16.0.4, SVG Export Plug-In . SVG Version: 6.00 Build 0)  -->
<!DOCTYPE svg PUBLIC "-//W3C//DTD SVG 1.1//EN" "http://www.w3.org/Graphics/SVG/1.1/DTD/svg11.dtd">
<svg version="1.1" id="Layer_1" xmlns="http://www.w3.org/2000/svg" xmlns:xlink="http://www.w3.org/1999/xlink" x="0px" y="0px"
	 width="17px" height="17px" viewBox="0 0 17 17" enable-background="new 0 0 17 17" xml:space="preserve">
<path d="M1,0v17h13.013L17,14.019V0H1z M16.04,13.34L13.4,16H13v-3.017L16.04,13V13.34z M16,12h-4v4H2V1h14V12z"/>
<g>
	<path d="M0,3v7h15V3H0z M5,5v2H4H3v2H2V4h1h2V5z M9,8H8v1H7H6V4h1h1v1h1V8z M13,5h-2v1h2v1h-2v2h-1V4h1h2V5z"/>
	<rect x="3" y="5" width="1" height="1"/>
	<rect x="7" y="5" width="1" height="3"/>
</g>
<g>
</g>
<g>
</g>
<g>
</g>
<g>
</g>
<g>
</g>
<g>
</g>
<g>
</g>
<g>
</g>
<g>
</g>
<g>
</g>
<g>
</g>
<g>
</g>
<g>
</g>
<g>
</g>
<g>
</g>
</svg>
