<?xml version="1.0" encoding="utf-8"?>
<!-- Generator: Adobe Illustrator 16.0.4, SVG Export Plug-In . SVG Version: 6.00 Build 0)  -->
<!DOCTYPE svg PUBLIC "-//W3C//DTD SVG 1.1//EN" "http://www.w3.org/Graphics/SVG/1.1/DTD/svg11.dtd">
<svg version="1.1" id="Layer_1" xmlns="http://www.w3.org/2000/svg" xmlns:xlink="http://www.w3.org/1999/xlink" x="0px" y="0px"
	 width="25px" height="24px" viewBox="0 0 25 24" enable-background="new 0 0 25 24" xml:space="preserve">
<g>
	<g id="eyeball">
		<g>
			<path fill="#007ECA" d="M12.5,8.849c-6.627,0-12,7.499-12,7.499s5.373,7.5,12,7.5c6.627,0,12-7.5,12-7.5S19.127,8.849,12.5,8.849
				z"/>
		</g>
	</g>
	<g id="iris">
		<g>
			<circle fill="#FFFFFF" cx="12.5" cy="15.848" r="5"/>
		</g>
	</g>
	<g id="iris_copy">
		<g>
			<circle fill="#007ECA" cx="12.5" cy="15.849" r="2.05"/>
		</g>
	</g>
	<g id="Rectangle_11">
		<g>
			<path fill="#007ECA" d="M10.5,0c0,0-0.017,4.832,2,6.849C14.444,4.904,14.5,0,14.5,0H10.5z"/>
		</g>
	</g>
	<g id="Rectangle_11_copy_2_">
		<g>
			<path fill="#007ECA" d="M21.245,2.539c0,0-2.483,3.554-1.745,6.31c2.656-0.712,5.209-4.31,5.209-4.31L21.245,2.539z"/>
		</g>
	</g>
	<g id="Rectangle_11_copy_2">
		<g>
			<path fill="#007ECA" d="M3.755,1.539l-3.464,2c0,0,2.554,4.598,5.209,5.31C6.238,6.093,3.755,1.539,3.755,1.539z"/>
		</g>
	</g>
</g>
<g>
</g>
<g>
</g>
<g>
</g>
<g>
</g>
<g>
</g>
<g>
</g>
<g>
</g>
<g>
</g>
<g>
</g>
<g>
</g>
<g>
</g>
<g>
</g>
<g>
</g>
<g>
</g>
<g>
</g>
</svg>
