<?xml version="1.0" encoding="utf-8"?>
<!-- Generator: Adobe Illustrator 16.0.4, SVG Export Plug-In . SVG Version: 6.00 Build 0)  -->
<!DOCTYPE svg PUBLIC "-//W3C//DTD SVG 1.1//EN" "http://www.w3.org/Graphics/SVG/1.1/DTD/svg11.dtd">
<svg version="1.1" id="Layer_1" xmlns="http://www.w3.org/2000/svg" xmlns:xlink="http://www.w3.org/1999/xlink" x="0px" y="0px"
	 width="79px" height="79px" viewBox="0 0 79 79" enable-background="new 0 0 79 79" xml:space="preserve">
<g>
	<path fill="#E9EAE8" d="M39.501,0.116C17.749,0.116,0.117,17.749,0.117,39.5s17.632,39.384,39.384,39.384
		c21.75,0,39.382-17.633,39.382-39.384S61.251,0.116,39.501,0.116z M39.501,73.161C20.91,73.161,5.84,58.091,5.84,39.5
		S20.91,5.839,39.501,5.839c18.59,0,33.66,15.07,33.66,33.661S58.091,73.161,39.501,73.161z"/>
	<path fill="#D7234A" d="M39.501,5.839C20.91,5.839,5.84,20.909,5.84,39.5s15.07,33.661,33.661,33.661
		c18.59,0,33.66-15.07,33.66-33.661S58.091,5.839,39.501,5.839z M47.671,45.839c0,2.209-1.791,4-4,4h-19c-2.209,0-4-1.791-4-4
		V33.837c0-2.209,1.791-4,4-4h19c2.209,0,4,1.791,4,4V45.839z M59.671,46.839h-3l-6-5v-4l6-5.002h3V46.839z"/>
</g>
<g>
</g>
<g>
</g>
<g>
</g>
<g>
</g>
<g>
</g>
<g>
</g>
<g>
</g>
<g>
</g>
<g>
</g>
<g>
</g>
<g>
</g>
<g>
</g>
<g>
</g>
<g>
</g>
<g>
</g>
</svg>
