<?xml version="1.0" encoding="utf-8"?>
<!-- Generator: Adobe Illustrator 18.1.1, SVG Export Plug-In . SVG Version: 6.00 Build 0)  -->
<svg version="1.1" id="Layer_1" xmlns="http://www.w3.org/2000/svg" xmlns:xlink="http://www.w3.org/1999/xlink" x="0px" y="0px"
	 viewBox="0 0 28 33" enable-background="new 0 0 28 33" xml:space="preserve">
<path fill="#666766" d="M24.8,32.9H2.9c-1.6,0-2.8-1.3-2.8-2.8V3c0-1.6,1.3-2.8,2.8-2.8h15.2l0,0l0,0l0,0c0.2,0,0.4,0.1,0.5,0.3l9,9
	c0.2,0.1,0.3,0.3,0.3,0.6l0,0l0,0l0,0v19.7C27.9,31.5,26.5,32.9,24.8,32.9z M18.8,3.4v4.3c0,0.9,0.7,1.6,1.6,1.6h4.3
	c0.3,0,0.4-0.4,0.2-0.6l-5.6-5.6C19.2,3,18.8,3.1,18.8,3.4z M26.2,10.7h-6.3c-1.3,0-2.3-1.1-2.3-2.3V1.9c0-0.2-0.2-0.3-0.3-0.3H3.2
	c-1,0-1.7,0.8-1.7,1.7v26.3c0,1,0.8,1.7,1.7,1.7h21.5c1,0,1.7-0.8,1.7-1.7V11C26.5,10.9,26.3,10.7,26.2,10.7z M16.9,14h-12
	c-0.2,0-0.3-0.2-0.3-0.3v-1.1c0-0.2,0.2-0.3,0.3-0.3h11.7c0.2,0,0.3,0.2,0.3,0.3V14H16.9z M23.1,20H4.9c-0.2,0-0.3-0.2-0.3-0.3v-1.1
	c0-0.2,0.2-0.3,0.3-0.3h18.1c0.2,0,0.3,0.2,0.3,0.3v1.1C23.4,19.8,23.2,20,23.1,20z M23.1,26H4.9c-0.2,0-0.3-0.2-0.3-0.3v-1.1
	c0-0.2,0.2-0.3,0.3-0.3h18.1c0.2,0,0.3,0.2,0.3,0.3v1.1C23.4,25.8,23.2,26,23.1,26z"/>
</svg>
