<?xml version="1.0" encoding="utf-8"?>
<!-- Generator: Adobe Illustrator 16.0.4, SVG Export Plug-In . SVG Version: 6.00 Build 0)  -->
<!DOCTYPE svg PUBLIC "-//W3C//DTD SVG 1.1//EN" "http://www.w3.org/Graphics/SVG/1.1/DTD/svg11.dtd">
<svg version="1.1" id="Layer_1" xmlns="http://www.w3.org/2000/svg" xmlns:xlink="http://www.w3.org/1999/xlink" x="0px" y="0px"
	 width="96px" height="96px" viewBox="0 0 96 96" enable-background="new 0 0 96 96" xml:space="preserve">
<g>
	<path d="M76.6240234,40.3095703l-5.6308594-5.6308594l-2.0605469-7.6904297l-7.6904297-2.0615234l-5.6308594-5.6303711
		l-7.6914062,2.0610352l-7.6914062-2.0610352l-5.6298828,5.6303711l-7.6914062,2.0605469l-2.0615234,7.6923828l-5.6298828,5.6298828
		L21.2763672,48l-2.0605469,7.6914062l5.6308594,5.6308594l2.0605469,7.6914062l7.6904297,2.0605469l5.6308594,5.6308594
		l7.6914062-2.0615234l7.6914062,2.0615234l5.6298828-5.6308594l7.6914062-2.0605469l2.0615234-7.6914062l5.6298828-5.6308594
		L74.5625,48.0009766L76.6240234,40.3095703z M47.921875,69.1669922c-11.6894531,0-21.1669922-9.4775391-21.1669922-21.1669922
		s9.4775391-21.1660156,21.1669922-21.1660156S69.0888672,36.3105469,69.0888672,48S59.6113281,69.1669922,47.921875,69.1669922z"/>
	<path d="M47.921875,61.9707031c-7.7148438,0-13.9697266-6.2548828-13.9697266-13.9707031
		c0-7.7148438,6.2548828-13.96875,13.9697266-13.96875c7.7158203,0,13.9697266,6.2539062,13.9697266,13.96875
		C61.8916016,55.7158203,55.6376953,61.9707031,47.921875,61.9707031z"/>
	<circle cx="47.921875" cy="48.0009766" r="13.9697266"/>
</g>
<polygon points="64,95.171875 47.6699219,87.078125 32,95.171875 32,75.171875 40.1621094,81.5947266 47.9199219,79.5585938 
	55.6835938,81.5849609 64,75.171875 "/>
<g>
	<polygon fill="#FFFFFF" points="21.7373047,31.6835938 6.9316406,23.1342773 5.9306641,24.8666992 20.7724609,33.4355469 
		21.4492188,32.7597656 	"/>
	<polygon fill="#FFFFFF" points="17.0556641,47 0,47 0,49 17.0976562,49 17.3447266,48.078125 	"/>
	<path fill="#FFFFFF" d="M15.8574219,38.3515625l-7.1484375-1.9150391
		c-0.1855469,0.6386719-0.3564453,1.2841797-0.5107422,1.9345703L15.25,40.2607422l-0.2753906-1.0263672L15.8574219,38.3515625z"/>
	<path fill="#FFFFFF" d="M15.2949219,55.7285156l-7.0234375,1.8818359c0.1601562,0.6494141,0.3349609,1.2929688,0.5263672,1.9296875
		l6.9355469-1.8583984l-0.7587891-0.7578125L15.2949219,55.7285156z"/>
	<polygon fill="#FFFFFF" points="33.4355469,20.7734375 24.8662109,5.9311523 23.1337891,6.9311523 31.7167969,21.7983398 
		32.6650391,21.5444336 	"/>
	<path fill="#FFFFFF" d="M40.2949219,15.378418l-1.9238281-7.1801758C37.7197266,8.3530273,37.0751953,8.5234375,36.4375,8.7089844
		l1.9150391,7.1474609l0.7871094-0.7875977L40.2949219,15.378418z"/>
	<polygon fill="#FFFFFF" points="49,17.1679688 49,0 47,0 47,17.1757812 47.984375,17.4399414 	"/>
	<path fill="#FFFFFF" d="M25.0087891,23.5947266l-5.2675781-5.2675781
		c-0.4833984,0.4599609-0.9541016,0.9316406-1.4140625,1.4145508l5.2128906,5.2133789l0.2792969-1.0415039L25.0087891,23.5947266z"
		/>
	<polygon fill="#FFFFFF" points="20.6738281,62.6230469 5.9306641,71.1347656 6.9306641,72.8662109 21.7021484,64.3378906 
		21.4501953,63.3984375 	"/>
	<path fill="#FFFFFF" d="M23.5078125,71.078125l-5.0166016,5.0175781c0.4628906,0.4794922,0.9365234,0.9482422,1.4228516,1.40625
		l4.9716797-4.9726562l-1.0664062-0.2851562L23.5078125,71.078125z"/>
	<polygon fill="#FFFFFF" points="74.2714844,64.3232422 89.0693359,72.8662109 90.0693359,71.1347656 75.3066406,62.6113281 
		74.5195312,63.3984375 	"/>
	<path fill="#FFFFFF" d="M71.109375,72.5234375l4.8134766,4.8134766c0.4824219-0.4599609,0.9541016-0.9306641,1.4140625-1.4140625
		L72.46875,71.0546875l-0.3193359,1.1894531L71.109375,72.5234375z"/>
	<path fill="#FFFFFF" d="M57.6416016,15.8818359l1.8984375-7.0839844c-0.6367188-0.190918-1.2802734-0.3662109-1.9296875-0.5263672
		l-1.9013672,7.0976562l1.1201172-0.300293L57.6416016,15.8818359z"/>
	<path fill="#FFFFFF" d="M80.2421875,57.6748047l6.6484375,1.78125c0.1894531-0.6367188,0.3632812-1.2802734,0.5214844-1.9306641
		L80.6708984,55.71875l0.3232422,1.2050781L80.2421875,57.6748047z"/>
	<polygon fill="#FFFFFF" points="78.8701172,49 96,49 96,47 78.9121094,47 78.6230469,48.0800781 	"/>
	<path fill="#FFFFFF" d="M80.7167969,40.2695312l6.7685547-1.8144531c-0.1533203-0.6503906-0.3222656-1.2949219-0.5058594-1.9335938
		l-6.8613281,1.8378906l0.8759766,0.875L80.7167969,40.2695312z"/>
	<polygon fill="#FFFFFF" points="75.2070312,33.4472656 90.0693359,24.8662109 89.0693359,23.1342773 74.234375,31.6992188 
		74.5185547,32.7597656 	"/>
	<polygon fill="#FFFFFF" points="64.2783203,21.8056641 72.8662109,6.9311523 71.1347656,5.9311523 62.5537109,20.7939453 
		63.3046875,21.5444336 	"/>
	<path fill="#FFFFFF" d="M72.4355469,24.980957l5.0664062-5.0668945c-0.4570312-0.4858398-0.9267578-0.9599609-1.4072266-1.4228516
		l-5.1103516,5.1113281l1.1650391,0.3120117L72.4355469,24.980957z"/>
</g>
<g>
</g>
<g>
</g>
<g>
</g>
<g>
</g>
<g>
</g>
<g>
</g>
<g>
</g>
<g>
</g>
<g>
</g>
<g>
</g>
<g>
</g>
<g>
</g>
<g>
</g>
<g>
</g>
<g>
</g>
</svg>
