<?xml version="1.0" encoding="utf-8"?>
<!-- Generator: Adobe Illustrator 18.1.1, SVG Export Plug-In . SVG Version: 6.00 Build 0)  -->
<svg version="1.1" id="Layer_1" xmlns="http://www.w3.org/2000/svg" xmlns:xlink="http://www.w3.org/1999/xlink" x="0px" y="0px"
	 viewBox="0 0 35 35" enable-background="new 0 0 35 35" xml:space="preserve">
<path fill="#8B4E21" d="M32.9,34.1L34,33l-8.4-8.4c2.2-2.5,3.6-5.8,3.6-9.4C29.2,7.4,22.9,1,15,1S1,7.3,1,15.1s6.3,14.2,14.2,14.2
	c3.6,0,6.9-1.4,9.4-3.6L32.9,34.1z M15.1,27.3C8.5,27.3,3,21.9,3,15.2C3,8.6,8.4,3.1,15.1,3.1s12.1,5.4,12.1,12.1
	C27.2,21.8,21.8,27.3,15.1,27.3z"/>
</svg>
