<?xml version="1.0" encoding="utf-8"?>
<!-- Generator: Adobe Illustrator 18.1.1, SVG Export Plug-In . SVG Version: 6.00 Build 0)  -->
<svg version="1.1" id="Layer_1" xmlns="http://www.w3.org/2000/svg" xmlns:xlink="http://www.w3.org/1999/xlink" x="0px" y="0px"
	 viewBox="0 0 20 19" enable-background="new 0 0 20 19" xml:space="preserve">
<g>
	<g>
		<g>
			<g>
				<path fill="#197DC2" d="M17.1,18.9l-4.5-4.5c-1.2,0.8-2.7,1.3-4.3,1.3c-4.3,0-7.8-3.5-7.8-7.8C0.6,3.5,4,0,8.4,0
					c4.3,0,7.8,3.5,7.8,7.8c0,1.5-0.4,2.9-1.2,4.1l4.5,4.5c0.2,0.2,0,0.8-0.4,1.3l-0.7,0.7C17.9,18.9,17.4,19.1,17.1,18.9z
					 M13.2,7.8C13.2,5.2,11,3,8.4,3C5.7,3,3.5,5.2,3.5,7.8s2.2,4.8,4.8,4.8C11,12.7,13.2,10.5,13.2,7.8z"/>
			</g>
		</g>
	</g>
</g>
</svg>
