<?xml version="1.0" encoding="utf-8"?>
<!-- Generator: Adobe Illustrator 16.0.4, SVG Export Plug-In . SVG Version: 6.00 Build 0)  -->
<!DOCTYPE svg PUBLIC "-//W3C//DTD SVG 1.1//EN" "http://www.w3.org/Graphics/SVG/1.1/DTD/svg11.dtd">
<svg version="1.1" id="Layer_1" xmlns="http://www.w3.org/2000/svg" xmlns:xlink="http://www.w3.org/1999/xlink" x="0px" y="0px"
	 width="22px" height="22px" viewBox="0 0 22 22" enable-background="new 0 0 22 22" xml:space="preserve">
<path fill="#007ECA" d="M21.993,12.836V9.181h-2.815C18.979,8.244,18.61,7.35,18.13,6.557l2.005-2.005l-2.771-2.771l-1.989,1.99
	c-0.778-0.483-1.63-0.857-2.549-1.065V0.032H9.192v2.661c-0.927,0.204-1.83,0.575-2.613,1.059l-1.97-1.971L1.837,4.552l1.975,1.975
	C3.322,7.326,2.947,8.23,2.747,9.175h-2.74v3.661H2.79c0.211,0.891,0.577,1.717,1.046,2.473l-1.999,1.998l2.772,2.771l2.011-2.012
	c0.78,0.475,1.634,0.84,2.555,1.039v2.863h3.659v-2.885c0.9-0.205,1.734-0.57,2.499-1.037l2.03,2.031l2.771-2.771l-2.028-2.027
	c0.459-0.746,0.816-1.568,1.025-2.443H21.993z M10.974,14.604c-2.058,0-3.727-1.67-3.727-3.727c0-2.058,1.669-3.727,3.727-3.727
	c2.059,0,3.727,1.669,3.727,3.727C14.7,12.934,13.032,14.604,10.974,14.604z"/>
<g>
</g>
<g>
</g>
<g>
</g>
<g>
</g>
<g>
</g>
<g>
</g>
<g>
</g>
<g>
</g>
<g>
</g>
<g>
</g>
<g>
</g>
<g>
</g>
<g>
</g>
<g>
</g>
<g>
</g>
</svg>
