<?xml version="1.0" encoding="utf-8"?>
<!-- Generator: Adobe Illustrator 18.1.1, SVG Export Plug-In . SVG Version: 6.00 Build 0)  -->
<svg version="1.1" id="Layer_1" xmlns="http://www.w3.org/2000/svg" xmlns:xlink="http://www.w3.org/1999/xlink" x="0px" y="0px"
	 viewBox="0 0 28 33" enable-background="new 0 0 28 33" xml:space="preserve">
<path fill="none" stroke="#8C8035" stroke-width="1.5" stroke-miterlimit="10" d="M22.8,32.1h-0.8c-2.4,0-4.3-1.9-4.3-4.3V5.1
	c0-2.4,1.9-4.3,4.3-4.3h0.8c2.4,0,4.3,1.9,4.3,4.3v22.7C27.1,30.2,25.2,32.1,22.8,32.1z"/>
<text transform="matrix(1 0 0 1 18.5425 10.8215)" fill="#8C8035" font-family="'SegoeUI'" font-size="11.3576">+</text>
<circle fill="#8C8035" cx="22.4" cy="27.7" r="1"/>
<path fill="none" stroke="#8C8034" stroke-miterlimit="10" d="M15.4,5v5.3l-8.3,4.4c0,0-1.5,0.7-5.8,0L15.4,5z"/>
<polygon fill="none" stroke="#8C8034" stroke-miterlimit="10" points="15.4,20.9 15.4,26.3 11.3,20 "/>
</svg>
