<?xml version="1.0" encoding="utf-8"?>
<!-- Generator: Adobe Illustrator 16.0.4, SVG Export Plug-In . SVG Version: 6.00 Build 0)  -->
<!DOCTYPE svg PUBLIC "-//W3C//DTD SVG 1.1//EN" "http://www.w3.org/Graphics/SVG/1.1/DTD/svg11.dtd">
<svg version="1.1" id="Layer_1" xmlns="http://www.w3.org/2000/svg" xmlns:xlink="http://www.w3.org/1999/xlink" x="0px" y="0px"
	 width="19px" height="19px" viewBox="0 0 19 19" enable-background="new 0 0 19 19" xml:space="preserve">
<g>
	<path fill="#B6B6B6" d="M12.217,8.855c0.906-2.238,0.453-4.899-1.361-6.715C9.041,0.326,6.383-0.128,4.145,0.778l4.664,4.663
		L5.465,8.782L0.782,4.088C0.193,5.471,0.129,7.023,0.589,8.442c0.29,0.9,0.785,1.747,1.502,2.463
		c1.849,1.847,4.57,2.272,6.832,1.299l6.47,6.471l1.506-0.024l1.74-1.74l0.075-1.557L12.217,8.855z M16.16,16.986
		c-0.61,0-1.104-0.494-1.104-1.105c0-0.609,0.494-1.104,1.104-1.104c0.609,0,1.104,0.494,1.104,1.104
		C17.264,16.492,16.77,16.986,16.16,16.986z"/>
</g>
<g>
</g>
<g>
</g>
<g>
</g>
<g>
</g>
<g>
</g>
<g>
</g>
<g>
</g>
<g>
</g>
<g>
</g>
<g>
</g>
<g>
</g>
<g>
</g>
<g>
</g>
<g>
</g>
<g>
</g>
</svg>
