<?xml version="1.0" encoding="utf-8"?>
<!-- Generator: Adobe Illustrator 16.0.4, SVG Export Plug-In . SVG Version: 6.00 Build 0)  -->
<!DOCTYPE svg PUBLIC "-//W3C//DTD SVG 1.1//EN" "http://www.w3.org/Graphics/SVG/1.1/DTD/svg11.dtd">
<svg version="1.1" id="Layer_1" xmlns="http://www.w3.org/2000/svg" xmlns:xlink="http://www.w3.org/1999/xlink" x="0px" y="0px"
	 width="21px" height="16px" viewBox="0 0 21 16" enable-background="new 0 0 21 16" xml:space="preserve">
<g>
	<path fill="#B6B6B6" d="M19.2,0H1.8C0.806,0,0,0.806,0,1.8v12.4C0,15.194,0.806,16,1.8,16h17.4c0.994,0,1.8-0.806,1.8-1.8V1.8
		C21,0.806,20.194,0,19.2,0z M4,15H2v-2h2V15z M4,11H2V9h2V11z M4,7H2V5h2V7z M4,3H2V1h2V3z M8,11.5l0-7L13.95,8L8,11.5z M19,15h-2
		v-2h2V15z M19,11h-2V9h2V11z M19,7h-2V5h2V7z M19,3h-2V1h2V3z"/>
</g>
<g>
</g>
<g>
</g>
<g>
</g>
<g>
</g>
<g>
</g>
<g>
</g>
<g>
</g>
<g>
</g>
<g>
</g>
<g>
</g>
<g>
</g>
<g>
</g>
<g>
</g>
<g>
</g>
<g>
</g>
</svg>
