<?xml version="1.0" encoding="utf-8"?>
<!-- Generator: Adobe Illustrator 16.0.4, SVG Export Plug-In . SVG Version: 6.00 Build 0)  -->
<!DOCTYPE svg PUBLIC "-//W3C//DTD SVG 1.1//EN" "http://www.w3.org/Graphics/SVG/1.1/DTD/svg11.dtd">
<svg version="1.1" id="Layer_1" xmlns="http://www.w3.org/2000/svg" xmlns:xlink="http://www.w3.org/1999/xlink" x="0px" y="0px"
	 width="24px" height="23px" viewBox="0 0 24 23" enable-background="new 0 0 24 23" xml:space="preserve">
<g>
	<path fill="#D7234A" d="M13.006,22.025c1.674-0.722,3.088-2.981,3.831-5.95c-1.176-0.319-2.469-0.533-3.831-0.61V22.025z"/>
	<path fill="#D7234A" d="M15.701,0.34c1.332,1.322,2.391,3.316,3.026,5.736c1.064-0.452,1.963-1.004,2.636-1.625
		C19.952,2.557,17.987,1.105,15.701,0.34z"/>
	<path fill="#D7234A" d="M19.397,11.431c0,1.146-0.093,2.246-0.25,3.297c1.291,0.515,2.403,1.165,3.289,1.919
		c0.79-1.575,1.245-3.347,1.245-5.229c0-1.893-0.46-3.674-1.259-5.255c-0.886,0.75-1.996,1.4-3.284,1.912
		C19.302,9.143,19.397,10.263,19.397,11.431z"/>
	<path fill="#D7234A" d="M13.006,13.464c1.498,0.075,2.911,0.296,4.207,0.637c0.116-0.858,0.185-1.751,0.185-2.67
		c0-0.94-0.071-1.854-0.192-2.73c-1.294,0.34-2.704,0.56-4.199,0.634V13.464z"/>
	<path fill="#D7234A" d="M18.743,16.729c-0.628,2.422-1.68,4.421-3.004,5.753c2.278-0.771,4.236-2.225,5.64-4.119
		C20.709,17.738,19.809,17.184,18.743,16.729z"/>
	<path fill="#D7234A" d="M6.882,16.075c0.786,3.14,2.314,5.478,4.114,6.051v-6.672C9.527,15.516,8.141,15.732,6.882,16.075z"/>
	<path fill="#D7234A" d="M7.83,22.328c-1.255-1.33-2.25-3.27-2.854-5.6c-0.984,0.421-1.819,0.929-2.471,1.494
		C3.83,20.067,5.675,21.505,7.83,22.328z"/>
	<path fill="#D7234A" d="M11,0.735c-1.789,0.57-3.313,2.882-4.104,5.991C8.152,7.067,9.537,7.283,11,7.344V0.735z"/>
	<path fill="#D7234A" d="M16.822,6.727c-0.747-2.939-2.153-5.174-3.816-5.891v6.498C14.362,7.257,15.65,7.044,16.822,6.727z"/>
	<path fill="#D7234A" d="M2.522,4.589c0.652,0.563,1.485,1.069,2.469,1.487c0.612-2.328,1.615-4.262,2.877-5.582
		C5.706,1.311,3.854,2.746,2.522,4.589z"/>
	<path fill="#D7234A" d="M4.321,11.431c0-1.167,0.096-2.288,0.259-3.356C3.382,7.599,2.344,7.001,1.491,6.317
		C0.74,7.86,0.307,9.586,0.307,11.418c0,1.82,0.429,3.537,1.171,5.074c0.854-0.688,1.894-1.287,3.094-1.765
		C4.414,13.677,4.321,12.576,4.321,11.431z"/>
	<path fill="#D7234A" d="M11,9.343C9.397,9.283,7.892,9.062,6.514,8.7c-0.121,0.877-0.192,1.79-0.192,2.73
		c0,0.919,0.068,1.812,0.185,2.67c1.38-0.362,2.889-0.585,4.494-0.646V9.343z"/>
</g>
<g>
</g>
<g>
</g>
<g>
</g>
<g>
</g>
<g>
</g>
<g>
</g>
<g>
</g>
<g>
</g>
<g>
</g>
<g>
</g>
<g>
</g>
<g>
</g>
<g>
</g>
<g>
</g>
<g>
</g>
</svg>
