<?xml version="1.0" encoding="utf-8"?>
<!-- Generator: Adobe Illustrator 16.0.4, SVG Export Plug-In . SVG Version: 6.00 Build 0)  -->
<!DOCTYPE svg PUBLIC "-//W3C//DTD SVG 1.1//EN" "http://www.w3.org/Graphics/SVG/1.1/DTD/svg11.dtd">
<svg version="1.1" id="Layer_1" xmlns="http://www.w3.org/2000/svg" xmlns:xlink="http://www.w3.org/1999/xlink" x="0px" y="0px"
	 width="27px" height="38px" viewBox="0 0 27 38" enable-background="new 0 0 27 38" xml:space="preserve">
<g>
	<g>
		<polygon points="13.497,27.717 10.306,28.649 8.397,27.482 8.345,37.869 13.501,33.926 19.335,37.901 19.345,27.488 
			17.419,28.645 		"/>
	</g>
	<g>
		<path d="M26.655,9.728l-2.581-2.579l-0.943-3.525L19.605,2.68l-2.581-2.581L13.5,1.043L9.976,0.099L7.395,2.68L3.87,3.623
			L2.925,7.148l-2.58,2.579l0.944,3.525l-0.944,3.524l2.581,2.581l0.944,3.526l3.524,0.942l2.582,2.583l3.524-0.947l3.524,0.947
			l2.58-2.583l3.526-0.942l0.944-3.526l2.58-2.581l-0.944-3.524L26.655,9.728z M13.5,23.853c-5.853,0-10.598-4.746-10.598-10.6
			c0-5.851,4.745-10.597,10.598-10.597c5.852,0,10.598,4.746,10.598,10.597C24.098,19.106,19.352,23.853,13.5,23.853z"/>
		<path d="M13.5,22.581c-5.15,0-9.325-4.177-9.325-9.327c0-5.148,4.175-9.325,9.325-9.325c5.149,0,9.326,4.177,9.326,9.325
			C22.826,18.404,18.649,22.581,13.5,22.581z"/>
	</g>
	<g>
		<path fill="#FFFFFF" d="M15.661,13.291c-0.406-0.247-1.019-0.501-1.836-0.762V9.139c0.802,0.058,1.591,0.239,2.367,0.547
			l0.406-1.023c-0.891-0.359-1.815-0.552-2.773-0.578V6.678h-1.008V8.1c-0.87,0.094-1.569,0.359-2.098,0.797
			c-0.529,0.438-0.793,0.997-0.793,1.68c0,0.708,0.215,1.286,0.645,1.734s1.178,0.841,2.246,1.18v3.438
			c-0.464,0-0.979-0.062-1.543-0.184c-0.565-0.122-1.064-0.28-1.496-0.473v1.219c0.349,0.161,0.797,0.288,1.344,0.379
			s1.111,0.137,1.695,0.137v1.742h1.008v-1.812c0.953-0.12,1.695-0.41,2.227-0.871s0.797-1.046,0.797-1.754
			c0-0.458-0.097-0.848-0.289-1.168C16.366,13.822,16.067,13.538,15.661,13.291z"/>
		<path fill="#FFFFFF" d="M15.661,13.291c-0.406-0.247-1.019-0.501-1.836-0.762V9.139c0.802,0.058,1.591,0.239,2.367,0.547
			l0.406-1.023c-0.891-0.359-1.815-0.552-2.773-0.578V6.678h-1.008V8.1c-0.87,0.094-1.569,0.359-2.098,0.797
			c-0.529,0.438-0.793,0.997-0.793,1.68c0,0.708,0.215,1.286,0.645,1.734s1.178,0.841,2.246,1.18v3.438
			c-0.464,0-0.979-0.062-1.543-0.184c-0.565-0.122-1.064-0.28-1.496-0.473v1.219c0.349,0.161,0.797,0.288,1.344,0.379
			s1.111,0.137,1.695,0.137v1.742h1.008v-1.812c0.953-0.12,1.695-0.41,2.227-0.871s0.797-1.046,0.797-1.754
			c0-0.458-0.097-0.848-0.289-1.168C16.366,13.822,16.067,13.538,15.661,13.291z"/>
	</g>
	<path d="M13.825,13.811v3.039c1.13-0.156,1.695-0.636,1.695-1.438c0-0.375-0.116-0.679-0.348-0.91
		C14.94,14.271,14.491,14.04,13.825,13.811z"/>
	<path d="M11.247,10.561c0,0.396,0.117,0.714,0.352,0.953s0.641,0.466,1.219,0.68V9.17c-0.516,0.083-0.906,0.246-1.172,0.488
		S11.247,10.201,11.247,10.561z"/>
</g>
<g>
</g>
<g>
</g>
<g>
</g>
<g>
</g>
<g>
</g>
<g>
</g>
<g>
</g>
<g>
</g>
<g>
</g>
<g>
</g>
<g>
</g>
<g>
</g>
<g>
</g>
<g>
</g>
<g>
</g>
</svg>
