<?xml version="1.0" encoding="utf-8"?><!DOCTYPE svg PUBLIC "-//W3C//DTD SVG 1.1//EN" "http://www.w3.org/Graphics/SVG/1.1/DTD/svg11.dtd"><svg width="444" height="367" viewBox="0 0 444 367" xmlns="http://www.w3.org/2000/svg" xmlns:xlink="http://www.w3.org/1999/xlink"><svg width="22" height="22" viewBox="0 0 22 22" id="add" x="312" y="223"><path fill="#007ECA" d="M18.75 3.25c-4.28-4.28-11.22-4.28-15.5 0-4.28 4.28-4.28 11.22 0 15.5 4.28 4.28 11.22 4.28 15.5 0s4.28-11.22 0-15.5zM4.413 17.587C.776 13.948.776 8.05 4.414 4.413s9.536-3.64 13.174 0c3.638 3.638 3.638 9.536 0 13.174s-9.536 3.638-13.174 0z"/><path fill="#007ECA" d="M17.04 12.96v-4h-4v-4H9.043v4h-4v4H9.05v4h3.99v-4.002"/></svg><svg width="21" height="21" viewBox="0 0 21 21" id="add-goal" x="247" y="200"><path fill="#FFF" d="M17.912 3.096C13.816-1 7.177-1 3.082 3.096c-4.096 4.095-4.096 10.736 0 14.832 4.095 4.096 10.734 4.096 14.83 0 4.097-4.096 4.097-10.737 0-14.832z"/><path fill="#007ECA" d="M16 12.065h-4v4H9v-4H5v-3.04h4v-4h3v4h4"/></svg><svg width="28" height="25" viewBox="0 0 28 25" id="alert" x="236" y="245"><path fill="#D7234A" d="M27.618 24.28S14.478.848 14.29.53s-.453-.218-.625.032S.447 24 .447 24c-.36.703.057 1 .61 1H26.96c.553 0 .875-.22.656-.72zM15.446 22h-3v-3h3v3zm0-5h-3V7h3v10z"/></svg><svg width="16" height="18" viewBox="0 0 16 18" id="alert-off" x="371" y="182"><g fill="#949494"><path d="M11.744 3.54c-.623-.687-1.42-1.214-2.332-1.49h.068c.04-.143.072-.292.072-.45 0-.883-.716-1.6-1.6-1.6s-1.6.717-1.6 1.6c0 .158.03.308.072.45h.033c-2.118.64-3.67 2.582-3.67 4.908 0 3.458-.536 4.415-2.304 5.1h-.03v2h.774L11.744 3.54zM13.082 6.958c0-.58-.098-1.136-.275-1.653l3.04-3.04-.708-.706-2.792 2.79-9.706 9.707-2.487 2.486.707.707 3.194-3.193h11.396v-2h-.037c-1.59-.592-2.333-1.596-2.333-5.1z"/><path d="M6.42 15.06c-.038.132-.068.27-.068.415 0 .885.717 1.602 1.6 1.602s1.602-.717 1.602-1.602c0-.145-.03-.283-.068-.416H6.42z"/></g></svg><svg width="16" height="18" viewBox="0 0 16 18" id="alert-on" x="401" y="182"><g fill="#949494"><path d="M15.412 12.057c-1.587-.592-2.332-1.596-2.332-5.1 0-2.325-1.553-4.268-3.67-4.906h.068c.042-.143.072-.292.072-.45 0-.883-.716-1.6-1.6-1.6s-1.6.717-1.6 1.6c0 .158.03.308.072.45h.033c-2.118.64-3.67 2.582-3.67 4.908 0 3.46-.536 4.416-2.304 5.1H.45v2h15v-2h-.038zM6.417 15.06c-.037.132-.067.27-.067.416 0 .884.717 1.6 1.6 1.6s1.602-.716 1.602-1.6c0-.146-.03-.283-.067-.417H6.417z"/></g></svg><svg width="16" height="15" viewBox="0 0 16 15" id="arrow-back" x="416" y="165"><g fill="#007ECA"><path d="M11.49.01h-4L0 7.5l7.488 7.49h4L4 7.5"/><path d="M3 6.01h13v2.98H3z"/></g></svg><svg width="16" height="15" viewBox="0 0 16 15" id="arrow-next" x="400" y="165"><g fill="#007ECA"><path d="M4.51.01h4L16 7.5l-7.488 7.49h-4L12 7.5"/><path d="M0 6.01h13v2.98H0z"/></g></svg><svg width="45" height="45" viewBox="0 0 45 45" id="back-circle" y="200"><path fill="#007ECA" d="M0 22.5C0 34.927 10.074 45 22.5 45S45 34.927 45 22.5 34.926 0 22.5 0 0 10.073 0 22.5zm10-.5l12.678-12h9.298L20.143 22l11.834 12H21.833L10 22z"/></svg><svg width="21" height="21" viewBox="0 0 21 21" id="back-square" x="268" y="200"><path fill="#007ECA" d="M0 0v21h21V0H0zm14.854 16h-4.47l-5.43-5.457L10.494 5h4.43l-5.51 5.533L14.854 16z"/></svg><svg width="176" height="86" viewBox="0 0 176 86" id="bubble-bl" x="268"><path fill="#D7234A" d="M166 0H10C4.477 0 0 4.477 0 10v40c0 5.523 4.477 10 10 10h24.03C34.016 79.254 34 80.064 34 83.625c0 2.906 3.07 2.305 4.398.977C39.728 83.272 66.168 60 66.168 60H166c5.523 0 10-4.477 10-10V10c0-5.523-4.477-10-10-10zm6 49.6c0 3.867-2.533 6.4-6.4 6.4H64.61L38 79.6V58s0-2-2-2H10.4C6.532 56 4 53.467 4 49.6V10.4C4 6.532 6.533 4 10.4 4h155.2c3.867 0 6.4 2.533 6.4 6.4v39.2z"/></svg><svg width="223" height="85" viewBox="0 0 223 85" id="bubble-r" y="115"><path fill="#D7234A" d="M0 10v65c0 5.523 4.477 10 10 10h177c5.523 0 10-4.477 10-10v-6.03c19.254.014 20.064.03 23.625.03 2.906 0 2.305-3.07.977-4.398-1.33-1.33-24.602-27.77-24.602-27.77V10c0-5.523-4.477-10-10-10H10C4.477 0 0 4.477 0 10zm186.6-6c3.867 0 6.4 2.533 6.4 6.4v27.99L216.6 65H195s-2 0-2 2v7.6c0 3.867-2.533 6.4-6.4 6.4H10.4C6.532 81 4 78.467 4 74.6V10.4C4 6.532 6.533 4 10.4 4h176.2z"/></svg><svg width="268" height="115" viewBox="0 0 268 115" id="bubble-tr"><path fill="#D7234A" d="M10 115h248c5.523 0 10-4.477 10-10V36c0-5.523-4.477-10-10-10h-24.03c.014-19.254.03-20.064.03-23.625 0-2.906-3.07-2.305-4.398-.976-1.33 1.328-27.77 24.6-27.77 24.6H10C4.477 26 0 30.477 0 36v69c0 5.523 4.477 10 10 10zM4 36.4c0-3.867 2.533-6.4 6.4-6.4h192.99L230 6.4V28s0 2 2 2h25.6c3.867 0 6.4 2.533 6.4 6.4v68.2c0 3.866-2.533 6.4-6.4 6.4H10.4c-3.867 0-6.4-2.533-6.4-6.4V36.4z"/></svg><svg width="15" height="15" viewBox="0 0 15 15" id="calendar" x="429" y="182"><g fill="#007ECA"><path d="M0 0h15v3H0zM0 4h3v3H0zM4 4h3v3H4zM8 4h3v3H8zM12 4h3v3h-3zM0 8h3v3H0zM4 8h3v3H4zM8 8h3v3H8zM12 8h3v3h-3zM0 12h3v3H0zM4 12h3v3H4zM8 12h3v3H8zM12 12h3v3h-3z"/></g></svg><svg width="20" height="22" viewBox="0 0 20 22" id="chat" x="112" y="223"><path d="M4 7h2v2H4zM9 7h2v2H9zM14 7h2v2h-2z"/><path d="M16.5 1c.914 0 2.136.88 2.43 2.14.047.213.07.405.07.588v7.592c0 .233-.042.476-.132.764C18.51 13.23 17.438 14 16.198 14H9.928l-.292.285-4.62 4.514-.006-3.802L5.006 14H3.543C2.07 14 1 12.873 1 11.32V3.728c0-1.24.9-2.352 2.144-2.643.243-.057.46-.085.658-.085h12.7m0-1H3.8c-.307 0-.604.045-.888.112C1.246.502 0 1.99 0 3.728v7.592C0 13.357 1.445 15 3.544 15h.465l.01 6.17L10.334 15H16.2c1.714 0 3.15-1.103 3.623-2.62.106-.337.177-.69.177-1.06V3.728c0-.28-.037-.547-.097-.81C19.52 1.274 17.94 0 16.5 0z"/></svg><svg width="36" height="28" viewBox="0 0 36 28" id="check-lg" x="138" y="245"><path fill="#CCC" d="M13.025 27.752L.478 15.204l5.134-5.134 7.606 7.477 17.3-17.3 5.004 5.008"/></svg><svg width="14" height="11" viewBox="0 0 14 11" id="check-sm" x="426" y="245"><path fill="#666" d="M5.038 10.925l-4.95-4.95L2.113 3.95l3 2.95L11.937.074 13.91 2.05"/></svg><svg width="21" height="21" viewBox="0 0 21 21" id="checkbox" x="289" y="200"><path fill="#666" d="M19.2 0H1.8C.806 0 0 .806 0 1.8v17.4c0 .994.806 1.8 1.8 1.8h17.4c.994 0 1.8-.806 1.8-1.8V1.8c0-.994-.806-1.8-1.8-1.8zM18 18H3V3h15v15z"/></svg><svg width="21" height="21" viewBox="0 0 21 21" id="checkbox-done" x="351" y="200"><path fill="#666" d="M21 19.2c0 .994-.806 1.8-1.8 1.8H1.8C.806 21 0 20.194 0 19.2V1.8C0 .806.806 0 1.8 0h17.4c.994 0 1.8.806 1.8 1.8v17.4z"/><path fill="#FFF" d="M8.538 15.925l-4.95-4.95L5.613 8.95l3 2.95 6.825-6.824 1.974 1.975"/></svg><svg width="22" height="22" viewBox="0 0 22 22" id="close" x="334" y="223"><path fill="#007ECA" d="M11 .04C4.947.04.04 4.948.04 11S4.948 21.96 11 21.96 21.96 17.052 21.96 11 17.052.04 11 .04zm6.35 14.478l-2.828 2.828-3.535-3.535-3.535 3.536-2.828-2.828 3.535-3.536-3.537-3.536L7.45 4.618l3.536 3.535 3.535-3.535 2.83 2.828-3.536 3.536 3.537 3.536z"/></svg><svg width="22" height="22" viewBox="0 0 22 22" id="close-tool" x="356" y="223"><path d="M21.606 1.808L20.192.394 11 9.586 1.808.394.394 1.808 9.586 11 .394 20.192l1.414 1.414L11 12.414l9.192 9.192 1.414-1.414L12.414 11"/></svg><svg width="20" height="20" viewBox="0 0 20 20" id="collapse" x="232" y="318"><circle fill="#007ECA" cx="10" cy="10" r="9.667"/><path fill="#FFF" d="M15.765 14.183v-4.46l-5.49-5.49-5.49 5.49v4.46l5.49-5.49"/></svg><svg width="14" height="14" viewBox="0 0 14 14" id="collapse-filter" x="324" y="318"><path fill="#007ECA" d="M0 0v14h14V0H0zm11 8H3V6h8v2z"/></svg><svg width="15" height="16" viewBox="0 0 15 16" id="company" x="385" y="165"><path fill="#0098CE" d="M9 4V0H0v16h15V4H9zm-6 8H2V2h1v10zm2 0H4V2h1v10zm2 0H6V2h1v10zm4 0h-1V6h1v6zm2 0h-1V6h1v6z"/></svg><svg width="11" height="11" viewBox="0 0 11 11" id="delete" x="257" y="183"><path fill="#CCC" d="M10.863 2.52L8.48.136 5.5 3.116 2.52.136.136 2.52l2.98 2.98-2.98 2.98 2.384 2.383L5.5 7.885l2.98 2.978 2.383-2.383-2.98-2.98"/></svg><svg width="22" height="22" viewBox="0 0 22 22" id="delete02" x="270" y="223"><path fill="#007ECA" d="M11 .04C4.947.04.04 4.948.04 11S4.948 21.96 11 21.96 21.96 17.052 21.96 11 17.052.04 11 .04zm0 20.274c-5.145 0-9.315-4.17-9.315-9.314S5.855 1.685 11 1.685s9.314 4.17 9.314 9.315-4.17 9.314-9.314 9.314z"/><path fill="#007ECA" d="M13.828 16.656l2.828-2.828L13.828 11l2.83-2.83-2.83-2.827L11 8.17 8.17 5.344 5.344 8.17l2.835 2.836-2.828 2.828 2.822 2.822 2.83-2.828"/></svg><svg width="17" height="20" viewBox="0 0 17 20" id="download" x="378" y="223"><g fill="#007ECA"><path d="M10 10.6V0H7.02v10.6l-6-6V8.51L8.51 16 16 8.51V4.6M0 18h17v2H0z"/></g></svg><svg width="11" height="10" viewBox="0 0 11 10" id="dropdown" x="426" y="256"><path fill="#007ECA" d="M.01.026v4.46l5.49 5.49 5.49-5.49V.026L5.5 5.516"/></svg><svg width="20" height="21" viewBox="0 0 20 21" id="duplicate" x="331" y="200"><path fill="#007ECA" d="M20 19h-2V2H2V0h18M8 19H6v-4H2v-2h6"/><path fill="#007ECA" d="M0 4v12l5 5h11V4H0zm14 15H6l-4-4V6h12v13z"/></svg><svg width="19" height="20" viewBox="0 0 19 20" id="edit" x="213" y="318"><path fill="#007ECA" d="M14 11v7H2V5h6l2-2H0v17h16V9l-2 2z"/><path fill="#007ECA" d="M16.2 0L19 2.804l-8.485 8.484-2.803-2.804zM5.318 14L6.61 9.88l2.83 2.827"/></svg><svg width="14" height="18" viewBox="0 0 14 18" id="edit-title" x="387" y="182"><g fill="#007ECA"><path d="M0 16h13v2H0zM10.88 0l2.802 2.803-8.486 8.484-2.803-2.803zM0 14l1.293-4.12 2.828 2.827"/></g></svg><svg width="20" height="20" viewBox="0 0 20 20" id="expand" x="395" y="223"><circle fill="#007ECA" cx="10" cy="10" r="9.667"/><path fill="#FFF" d="M4.51 5.026v4.46l5.49 5.49 5.49-5.49v-4.46L10 10.516"/></svg><svg width="14" height="14" viewBox="0 0 14 14" id="expand-filter" x="310" y="318"><path fill="#007ECA" d="M0 0v14h14V0H0zm11 8H8v3H6V8H3V6h3V3h2v3h3v2z"/></svg><svg width="21" height="21" viewBox="0 0 21 21" id="fast-forward" x="310" y="200"><path fill="#007ECA" d="M0 0v21h21V0H0zm15 5h2v11h-2V5zm-5.49 5.533L4 5h4.43l5.538 5.543L8.538 16h-4.47l5.44-5.467z"/></svg><svg width="19" height="18" viewBox="0 0 19 18" id="feedback" x="314" y="182"><path d="M18 .43L7 5H1c-.553 0-1 .448-1 1v6c0 .553.447 1 1 1h2v4c0 .553.447 1 1 1h2c.553 0 1-.447 1-1v-4l11 3.67c.553 0 1-.447 1-1V1.43c0-.553-.447-1-1-1zM6 17H4v-4h2v4zm0-5H1V6h6v6H6zm12 3.616L8 12.28V5.666l10-4.155v14.104z"/></svg><svg width="12" height="14" viewBox="0 0 12 14" id="flag" x="432" y="165"><path fill="#CBC3B7" d="M0 1.048V14h2V7.693c2.9-.136 6.24 3.452 10 1.85V2.048c-4 2-9-4-12-1z"/></svg><svg width="12" height="17" viewBox="0 0 12 17" id="geo" x="417" y="182"><path fill="#007ECA" d="M12 6.48c0 3.31-6 10.04-6 10.04S0 9.792 0 6.48c0-3.314 2.687-6 6-6s6 2.686 6 6z"/><circle fill="#FFF" cx="5.979" cy="6.459" r="2.958"/></svg><svg viewBox="0 0 35 35" width="35" height="35" id="goals" y="283"><g fill="#046798"><path d="M34 15C33 7.4 26.4 1.2 18.8.7 10.4-.1 2 6.4 1 15c-1.5 9.1 5.5 18 14.5 19.2h3.4c9.2-.7 16.7-9.9 15.1-19.2zM16.8 32c-7.7-.2-14.5-7.4-14-15.1C3 11 7.1 5.6 12.4 3.6c8.2-3.2 18 2.5 19.3 11.1 2.1 8.9-5.8 18-14.9 17.3z"/><path d="M13.3 6.4c-5.5 2-8.9 8.6-7.1 14.1 1.5 6.3 8.8 10.3 14.8 8 6.1-1.7 9.8-8.9 7.6-14.6-1.9-6.3-9.3-9.8-15.3-7.5zm6.4 20.4c-5 1.3-10.6-2.2-11.6-7.2-1-4.4 1.3-9.1 5.4-10.9 5.2-2.5 11.9.7 13.3 6.2 1.4 5-1.9 10.7-7.1 11.9z"/><path d="M15.3 11.5c-3.9 1.2-5.5 6.6-2.9 9.8 2.9 4.2 10.4 2.7 11.3-2.5 1.2-4.6-3.9-9.2-8.4-7.3zm6.1 7.7c-1.2 3-5.7 3.4-7.4.5-1.7-1.8-.7-5 1.5-6.2 3.3-2 7.9 2.2 5.9 5.7z"/></g></svg><svg width="20" height="20" viewBox="0 0 20 20" id="info" x="252" y="318"><path fill="#007ECA" d="M10.333 0C4.993 0 .666 4.328.666 9.666c0 5.34 4.328 9.668 9.667 9.668S20 15.006 20 9.666C20 4.328 15.672 0 10.333 0zM12 17H9V9h3v8zm0-10H9V4h3v3z"/></svg><svg viewBox="0 0 35 35" width="35" height="35" id="jobs" x="35" y="283"><path fill="none" stroke="#4BA5C3" stroke-width="1.5" stroke-miterlimit="10" d="M.8 15.6l10.5 12.7L34.2 8.9"/></svg><svg width="37" height="37" viewBox="0 0 37 37" id="level-advanced" x="27" y="245"><path fill="#007ECA" d="M18.5.01C8.29.01.01 8.29.01 18.5S8.29 36.99 18.5 36.99s18.49-8.28 18.49-18.49S28.71.01 18.5.01zm.05 7.57l3.655 7.346-7.308-.002L18.55 7.58zm-4.656 9.314l9.325.02 2.018 4.036H11.864l2.03-4.056zm3.163 10.03h-8.18l2.008-4.016 15.33-.003 2.01 4.02H17.057z"/></svg><svg width="37" height="37" viewBox="0 0 37 37" id="level-beginner" x="101" y="245"><path fill="#007ECA" d="M18.5.01C8.29.01.01 8.29.01 18.5S8.29 36.99 18.5 36.99s18.49-8.28 18.49-18.49S28.71.01 18.5.01zm-1.443 26.915h-8.18l2.008-4.017 15.33-.003 2.01 4.02H17.057z"/></svg><svg width="37" height="37" viewBox="0 0 37 37" id="level-intermediate" x="64" y="245"><path fill="#007ECA" d="M18.5.01C8.29.01.01 8.29.01 18.5S8.29 36.99 18.5 36.99s18.49-8.28 18.49-18.49S28.71.01 18.5.01zm-4.606 16.884l9.325.02 2.018 4.036H11.864l2.03-4.056zm3.163 10.03h-8.18l2.008-4.016 15.33-.003 2.01 4.02H17.057z"/></svg><svg width="22" height="22" viewBox="0 0 22 22" id="list" x="176" y="223"><g fill="#007ECA"><path d="M0 0h22v2H0zM0 4h22v2H0zM0 8h22v2H0zM0 12h22v2H0zM0 16h22v2H0zM0 20h22v2H0z"/></g></svg><svg width="40" height="23" viewBox="0 0 40 23" id="marker-next" x="45" y="200"><path fill="#D7234A" d="M30.968 23H1.8C.806 23 0 22.194 0 21.2V1.8C0 .806.806 0 1.8 0h29.18l8.697 11.497L30.967 23z"/></svg><svg width="44" height="23" viewBox="0 0 44 23" id="marker-start" x="223" y="160"><path fill="#D7234A" d="M34.576 23H1.8C.806 23 0 22.194 0 21.2V1.8C0 .806.806 0 1.8 0h32.79l8.696 11.497L34.576 23z"/></svg><svg width="19" height="19" viewBox="0 0 19 19" id="more" x="272" y="318"><path fill="#007ECA" d="M9.48 0C4.24 0-.01 4.248-.01 9.488c0 5.24 4.25 9.488 9.49 9.488s9.487-4.247 9.487-9.488C18.967 4.248 14.72 0 9.48 0zM4.5 11.01c-.828 0-1.5-.672-1.5-1.5 0-.83.672-1.5 1.5-1.5S6 8.68 6 9.51c0 .828-.672 1.5-1.5 1.5zm5 0c-.828 0-1.5-.672-1.5-1.5 0-.83.672-1.5 1.5-1.5s1.5.67 1.5 1.5c0 .828-.672 1.5-1.5 1.5zm5 0c-.828 0-1.5-.672-1.5-1.5 0-.83.672-1.5 1.5-1.5s1.5.67 1.5 1.5c0 .828-.672 1.5-1.5 1.5z"/></svg><svg width="4" height="20" viewBox="0 0 4 20" id="move" x="435" y="200"><circle fill="#007ECA" cx="2" cy="2" r="2"/><circle fill="#007ECA" cx="2" cy="10" r="2"/><circle fill="#007ECA" cx="2" cy="18" r="2"/></svg><svg width="23" height="18" viewBox="0 0 23 18" id="nav-advance" x="291" y="182"><path fill="#999" d="M22.97 1.02h-7.96L15 9.03l-7.994.007L7 17.02l-6.994.002L0 17.98l7.94.003.02-7.99 8.03-.008-.005-8.002 6.984-.013"/></svg><svg width="23" height="18" viewBox="0 0 23 18" id="nav-advance-active" x="268" y="182"><path fill="#A50052" d="M23 3.973L22.998 0H13l.012 7-6.002.004L7.005 14 0 14.023l.004 3.96 10.992-.017v-6.982l5.998-.008-.005-6.98"/></svg><svg width="23" height="22" viewBox="0 0 23 22" id="nav-coverletter" x="68" y="223"><g fill="#999"><path d="M6 9h11v1H6zM9 12h5v.96H9z"/><path d="M11.502.212L0 6.824v15.17h22.99V6.824L11.502.212zm10.504 8.682L19.998 10V6.175l2.008 1.158v1.56zM19 10.55l-7.546 4.153-7.456-4.206V6H19v4.55zM17.96 5H5.044l6.464-3.72L17.96 5zM3 6.177v3.757L.99 8.8V7.333L3 6.177zM.99 21.007V9.984l10.505 6.062 10.51-6.06v11.02H.99z"/></g></svg><svg width="23" height="22" viewBox="0 0 23 22" id="nav-coverletter-active" x="45" y="223"><g fill="#4FAC1C"><path d="M3 5.055L0 6.798v.546l2.99 1.722M23 7.328v-.53l-2.986-1.682-.01 3.924M11.496.238l-8.392 4.76h16.703M22.988 9.364L20 11.11l-8.505 4.96-8.503-4.934L0 9.386V22h23"/><path d="M7.86 12l3.636 2.084L15.046 12M16.988 10.997V9.01L6 9.006V11"/></g></svg><svg width="27" height="21" viewBox="0 0 27 21" id="nav-dashboard" x="147" y="200"><path fill="#999" d="M13.503 6.248L6.02 12.33v8.66l5.98.006v-5.01h3.028V21L21 20.995v-8.64l-7.497-6.107zm6.52 13.765H16l-.006-4.995H11.02v4.992l-4.023-.005v-7.34l6.513-5.277 6.514 5.298v7.327z"/><path fill="#999" d="M13.48 1.98L1.86 11.664h1.25L13.506 3.1l10.334 8.59h1.307"/></svg><svg width="27" height="21" viewBox="0 0 27 21" id="nav-dashboard-active" x="174" y="200"><path d="M13.49 6.23L6 12.33v8.66l6 .006v-5.01h3V21l5.98-.005v-8.64"/><path d="M13.508.54L0 11.98h3.246l10.24-8.34 10.195 8.326h3.267"/></svg><svg width="17" height="22" viewBox="0 0 17 22" id="nav-gameplan" x="236" y="223"><path fill="#999" d="M13.13 16.375L10.99 6.97h.02l3.97-2V0H12l.002 3.002H9.986V0H7v3.002H4.983L4.99 0H2v5.063L6.008 6.96h-.03l-2.04 9.373L0 19.056v2.94L16.992 22v-2.944l-3.86-2.68zm-6.02-9.9L2.99 4.482V1h1.037L4.02 4h3.978V1h1.004v3h3.98l-.003-3h1.038v3.417L9.93 6.527l1.928 9.412H5.245L7.11 6.474zM15.99 21.02l-15-.02v-1.394l4.048-2.622h7.03L16 19.59l-.008 1.43z"/></svg><svg width="17" height="22" viewBox="0 0 17 22" id="nav-gameplan-active" x="253" y="223"><path fill="#006697" d="M14.98 4.97V0H12l.002 3.03H9.996V0H7v3.03H4.984L4.952 0H2v5.063l4.008 1.9h-.03l-1.97 9.007 9-.07-2.02-8.93h.022M12.95 17.022H4.138L0 19.056v2.94L16.992 22v-2.944"/></svg><svg width="24" height="24" viewBox="0 0 24 24" id="nav-goals" x="49" y="318"><path fill="#999" d="M12 .468C5.63.468.468 5.63.468 12 .468 18.37 5.63 23.532 12 23.532S23.532 18.37 23.532 12 18.37.468 12 .468zm.065 22.222c-5.88 0-10.645-4.767-10.645-10.646C1.42 6.164 6.186 1.4 12.065 1.4c5.88 0 10.646 4.765 10.646 10.644.002 5.88-4.764 10.646-10.645 10.646z"/><path fill="#999" d="M12.01 7.62c-2.405 0-4.356 1.952-4.356 4.357 0 2.406 1.95 4.355 4.356 4.355s4.356-1.95 4.356-4.355c0-2.405-1.95-4.356-4.356-4.356zm0 7.842c-1.925 0-3.484-1.56-3.484-3.484s1.56-3.485 3.484-3.485 3.485 1.562 3.485 3.485c0 1.924-1.56 3.484-3.485 3.484z"/><path fill="#999" d="M11.998 3.66c-4.604 0-8.337 3.734-8.337 8.338S7.394 20.334 12 20.334s8.337-3.732 8.337-8.336-3.732-8.338-8.337-8.338zm0 15.685c-4.058 0-7.348-3.29-7.348-7.348S7.94 4.65 11.998 4.65s7.347 3.29 7.347 7.347c0 4.06-3.29 7.348-7.347 7.348z"/></svg><svg width="24" height="24" viewBox="0 0 24 24" id="nav-goals-active" x="167" y="318"><g fill="#F60"><path d="M12 7.625c-2.413 0-4.375 1.963-4.375 4.375 0 2.413 1.962 4.376 4.375 4.376 2.413 0 4.376-1.963 4.376-4.376 0-2.413-1.963-4.375-4.376-4.375z"/><path d="M12 .464C5.63.464.464 5.63.464 12S5.63 23.536 12 23.536 23.536 18.37 23.536 12 18.37.464 12 .464zm0 19.61c-4.46 0-8.075-3.614-8.075-8.074S7.54 3.924 12 3.924c4.46 0 8.075 3.616 8.075 8.076S16.46 20.075 12 20.075z"/></g></svg><svg width="23" height="23" viewBox="0 0 23 23" id="nav-image" x="365" y="245"><path fill="#999" d="M11.83 14.357l-.722.007-1.008-1.192s.772-.56 1.38-.56 1.277.567 1.277.567l-.927 1.177z"/><path fill="#999" d="M11.5.053C5.178.053.053 5.178.053 11.5S5.178 22.947 11.5 22.947 22.947 17.822 22.947 11.5 17.822.053 11.5.053zm0 21.855c-6.14 0-10.454-5.25-10.454-10.406 0-5.776 4.682-10.458 10.458-10.458 5.775 0 10.46 4.682 10.46 10.458 0 5.187-4.323 10.406-10.464 10.406z"/><path fill="#999" d="M11.59 2.874c-2.115 0-3.83 1.717-3.83 3.835s1.715 4.585 3.83 4.585 3.828-2.468 3.828-4.586-1.715-3.836-3.83-3.836zm0 7.494c-1.65 0-2.987-1.925-2.987-3.577 0-1.65 1.337-2.99 2.986-2.99s2.984 1.34 2.984 2.99c0 1.653-1.336 3.578-2.985 3.578zM11.598 12.323c-11.8 0-7.214 4.175-4.042 8.38.4.38 2.934.883 3.827.898 1.28.024 3.332-.536 4.102-.913 2.525-4.033 7.99-8.364-3.887-8.364zm1.29 8.283l.037.22c-.467.076-.943.126-1.434.126-.516 0-1.02-.053-1.51-.14l.033-.197c-.7-.08-1.445-.238-1.774-.55-2.617-3.47-7.062-6.914 3.334-6.914 10.545 0 5.29 3.575 3.207 6.902-.634.31-1.313.47-1.892.554z"/><path fill="#999" d="M10.905 14.71l-1.12 6.454c.915.105 1.76.096 1.76.096s.67.025 1.56-.105l-1.09-6.45-1.11.006z"/></svg><svg width="23" height="23" viewBox="0 0 23 23" id="nav-image-active" x="342" y="245"><g fill="#900"><path d="M11.5.053C5.178.053.053 5.178.053 11.5S5.178 22.947 11.5 22.947 22.947 17.822 22.947 11.5 17.822.053 11.5.053zm.1 2.832c2.115 0 3.828 1.717 3.828 3.835s-1.713 4.586-3.828 4.586c-2.114 0-3.828-2.468-3.828-4.586S9.485 2.885 11.6 2.885zm3.7 17.63c-.73.36-1.517.542-2.183.64l.066.398-1.706 1.166-1.744-1.184.064-.372c-.806-.092-1.667-.274-2.047-.635-3.02-4.006-7.39-7.98 3.85-7.98 11.31 0 6.107 4.124 3.7 7.965z"/><path d="M11.557 21.26s-.845.01-1.758-.096l-.065.372 1.744 1.183 1.705-1.167-.066-.398c-.89.13-1.563.105-1.563.105zM10.122 13.172l.98 1.192.75-.007.925-1.188s-.723-.558-1.333-.558-1.322.56-1.322.56z"/><path d="M10.917 14.71l-1.12 6.454c.915.105 1.76.096 1.76.096s.67.025 1.56-.105l-1.088-6.45-1.113.006z"/></g></svg><svg width="23" height="25" viewBox="0 0 23 25" id="nav-interview" x="421" y="283"><path fill="#999" d="M11.324 10.5c.78 0 1.47.53 1.64 1.258.028.128.042.242.042.347v5.784c0 .13-.025.273-.08.45-.215.69-.858 1.163-1.602 1.163h-4.46l-2.88 3.092L4 19.503H2.67C1.75 19.503 1 18.783 1 17.9v-5.795c0-.738.523-1.376 1.272-1.552.154-.036.28-.053.4-.053h8.642m0-1H2.672c-.217 0-.425.033-.627.08C.867 9.855 0 10.878 0 12.105v5.784c0 1.437 1.19 2.603 2.672 2.603H3l.007 4.35 4.277-4.35h4.03c1.21 0 2.223-.784 2.557-1.855.075-.24.126-.487.126-.75v-5.783c0-.197-.026-.387-.068-.57-.27-1.163-1.334-2.034-2.614-2.034z"/><path fill="#999" d="M20.318.5h-8.632c-1.48 0-2.683 1.168-2.683 2.606V7.5h.98V3.106c0-.885.775-1.605 1.703-1.605h8.632c.928 0 1.682.72 1.682 1.606V8.93c0 .885-.754 1.604-1.682 1.604h-1.295L19 13.394l-3.014-3.176v1.405l3.992 4.29.018-4.412h.303c1.48 0 2.7-1.132 2.7-2.57V3.106C23 1.668 21.8.5 20.318.5z"/></svg><svg width="23" height="25" viewBox="0 0 23 25" id="nav-interview-active" y="342"><g fill="#851782"><path d="M20.318.5h-8.623c-1.48 0-2.683 1.168-2.683 2.606V7.5h4.292c1.48 0 2.682 1.167 2.682 2.605v1.518l3.992 4.29.037-4.38h.303c1.48 0 2.682-1.165 2.682-2.603V3.106C23 1.668 21.8.5 20.318.5z"/><path d="M13.918 11.534c-.27-1.163-1.334-2.033-2.613-2.033H2.673c-.218 0-.426.033-.628.08C.867 9.855 0 10.878 0 12.105v5.784c0 1.437 1.19 2.603 2.672 2.603H3l.007 4.35 4.277-4.35h4.02c1.212 0 2.224-.785 2.558-1.855.074-.238.125-.486.125-.75v-5.783c0-.196-.027-.386-.07-.57z"/></g></svg><svg width="23" height="21" viewBox="0 0 23 21" id="nav-jobs" x="201" y="200"><path fill="#999" d="M16 4V0H7v4H0v17h23V4h-7zM8 1h7v3H8V1zM1 20V5h6v15H1zm7 0V5h7v15H8zm14 0h-6V5h6v15z"/></svg><svg width="23" height="21" viewBox="0 0 23 21" id="nav-jobs-active" x="224" y="200"><g fill="#111C24"><path d="M0 4h6v17H0zM17 4h6v17h-6zM8 4h7v17H8zM17 0H6v4h2V2h7v2h2V2"/></g></svg><svg width="25" height="29" viewBox="0 0 25 29" id="nav-network" x="213" y="283"><path fill="#999" d="M18.387 16.486c-2.018 0-3.8.996-4.89 2.52l-1.55-1.55c.413-.82.65-1.742.65-2.723 0-1.04-.262-2.02-.724-2.875l1.723-1.723c1.104 1.49 2.87 2.46 4.865 2.46 3.347 0 6.06-2.714 6.06-6.06 0-3.347-2.713-6.06-6.06-6.06s-6.058 2.713-6.058 6.06c0 .995.245 1.93.67 2.76l-1.74 1.74C10.22 9.6 8.49 8.673 6.537 8.673c-3.346 0-6.06 2.712-6.06 6.06 0 3.345 2.714 6.058 6.06 6.058 2 0 3.767-.972 4.87-2.465l1.565 1.563c-.383.792-.604 1.677-.604 2.615 0 3.323 2.693 6.018 6.017 6.018s6.018-2.693 6.018-6.017c0-3.322-2.694-6.017-6.018-6.017zm.047-14.945c2.762 0 5.002 2.24 5.002 5.004s-2.24 5.003-5.002 5.003-5.002-2.24-5.002-5.003 2.24-5.003 5.002-5.003zM6.51 19.744c-2.762 0-5-2.24-5-5 0-2.766 2.24-5.005 5-5.005 2.764 0 5.005 2.24 5.005 5.004 0 2.762-2.24 5-5.004 5zM18.36 27.5c-2.757 0-4.99-2.232-4.99-4.988s2.233-4.99 4.99-4.99 4.99 2.234 4.99 4.99-2.235 4.99-4.99 4.99z"/></svg><svg width="25" height="29" viewBox="0 0 25 29" id="nav-network-active" x="264" y="283"><path fill="#666" d="M18.387 16.486c-1.705 0-3.242.713-4.338 1.854l-1.746-1.746c.19-.586.294-1.21.294-1.86 0-.72-.132-1.408-.362-2.048l1.905-1.905c1.1 1.12 2.63 1.816 4.32 1.816 3.348 0 6.06-2.713 6.06-6.06 0-3.346-2.712-6.06-6.06-6.06-3.345 0-6.058 2.714-6.058 6.06 0 .72.132 1.408.363 2.05L10.86 10.49c-1.1-1.12-2.63-1.815-4.322-1.815-3.346 0-6.06 2.712-6.06 6.06 0 3.345 2.714 6.058 6.06 6.058 1.66 0 3.163-.67 4.257-1.75l1.81 1.81c-.15.525-.237 1.08-.237 1.653 0 3.323 2.694 6.018 6.018 6.018s6.02-2.694 6.02-6.018c0-3.325-2.695-6.02-6.02-6.02zm.047-11.945c1.106 0 2.004.897 2.004 2.004s-.897 2.003-2.004 2.003c-1.105 0-2.002-.896-2.002-2.003s.896-2.003 2.002-2.003zM6.51 16.744c-1.105 0-2-.896-2-2.002 0-1.105.895-2.002 2-2.002s2.004.896 2.004 2.003c0 1.107-.897 2.003-2.003 2.003zM18.36 24.5c-1.1 0-1.99-.89-1.99-1.988s.892-1.99 1.99-1.99c1.1 0 1.99.892 1.99 1.99s-.89 1.99-1.99 1.99z"/></svg><svg width="19" height="22" viewBox="0 0 19 22" id="nav-resgoals" x="198" y="223"><path fill="#999" d="M13.3 6.01l-1.32-1.313L11.99 0h-.992l.02 5.02 1.98 1.972 5.99-.002.002-.98"/><path fill="none" d="M2.837 1C1.824 1 1 1.824 1 2.838v16.36C1 20.21 1.807 21 2.837 21l13.33-.037c1.04 0 1.823-.758 1.823-1.764V6.233L12.734 1H2.837z"/><path fill="#999" d="M13.146 0H2.836C1.272 0 0 1.27 0 2.838v16.36C0 20.77 1.27 22 2.837 22l13.332-.037c1.566 0 2.82-1.196 2.82-2.764V5.82L13.146 0zm4.844 19.2c0 1.005-.783 1.763-1.824 1.763L2.836 21C1.807 21 1 20.21 1 19.2V2.837C1 1.824 1.824 1 2.837 1h9.897l5.256 5.234V19.2z"/><path fill="#999" d="M9.496 15.764c-1.438 0-2.607-1.168-2.607-2.604 0-1.438 1.168-2.606 2.606-2.606 1.437 0 2.606 1.168 2.606 2.606 0 1.436-1.17 2.604-2.606 2.604zm0-4.31c-.94 0-1.707.763-1.707 1.705 0 .94.764 1.704 1.706 1.704.94 0 1.706-.765 1.706-1.705 0-.943-.765-1.707-1.706-1.707z"/><path fill="#999" d="M9.496 18.156c-2.75 0-4.99-2.237-4.99-4.988S6.745 8.18 9.497 8.18c2.75 0 4.99 2.237 4.99 4.988s-2.24 4.988-4.99 4.988zm0-9.076c-2.255 0-4.09 1.834-4.09 4.088 0 2.256 1.835 4.09 4.09 4.09 2.254 0 4.088-1.834 4.088-4.09 0-2.254-1.834-4.088-4.088-4.088z"/></svg><svg width="19" height="22" viewBox="0 0 19 22" id="nav-resgoals-active" x="217" y="223"><g fill="#111C24"><path d="M14.09 4.998s3.09.002 4.06-.003C16.56 3.37 13.14-.003 13.14-.003v4.077l.952.924zM9.496 9.492c-2.027 0-3.676 1.648-3.676 3.676 0 2.03 1.65 3.676 3.676 3.676 2.027 0 3.676-1.646 3.676-3.676 0-2.027-1.65-3.676-3.676-3.676zm0 5.372c-.94 0-1.707-.765-1.707-1.705 0-.943.764-1.707 1.706-1.707.94 0 1.706.764 1.706 1.706 0 .94-.765 1.704-1.706 1.704z"/><path d="M13.006 7.008l-1.992-1.964L10.977 0h-8.14C1.27 0 0 1.27 0 2.838v16.36C0 20.77 1.27 22 2.837 22l13.33-.037c1.57 0 2.823-1.196 2.823-2.764V7.005c-.515-.002-5.984.002-5.984.002zM9.496 18.15c-2.748 0-4.984-2.234-4.984-4.982s2.236-4.983 4.984-4.983c2.75 0 4.985 2.235 4.985 4.983s-2.235 4.983-4.984 4.983z"/></g></svg><svg width="19" height="23" viewBox="0 0 19 23" id="nav-resume" x="388" y="245"><path fill="#999" d="M3.008 13v.99L16 13.975V13H3.008zm0 5H16v-1H3.008v1zM10 9H3.03v.965H10V9zM13.31 7.01l-1.32-1.313L12 1h-.992l.018 5.02 1.982 1.972 5.99-.002.002-.98"/><path fill="#999" d="M12.743 2L18 7.235V20.2c0 1.005-.783 1.763-1.824 1.763L2.846 22c-1.03 0-1.836-.79-1.836-1.8V3.837C1.01 2.824 1.833 2 2.847 2h9.896m.413-1H2.846C1.28 1 .01 2.27.01 3.838v16.36C.01 21.77 1.28 23 2.846 23l13.33-.037c1.57 0 2.823-1.196 2.823-2.764V6.82L13.156 1z"/></svg><svg width="19" height="23" viewBox="0 0 19 23" id="nav-resume-active" x="407" y="245"><g fill="#09C"><path d="M11 6.044L10.98 1H2.843C1.275 1 .005 2.27.005 3.838v16.36C.005 21.77 1.275 23 2.842 23l13.33-.037c1.57 0 2.823-1.196 2.823-2.764V8.024l-6.023-.018L11 6.044zM2.994 8h7.024v2.003H2.994V8zm13 10H2.975l.02-2h13v2zm.014-3.985H2.975v-2.04L16.01 12v2.015z"/><path d="M14.095 5.996s3.09 0 4.06-.003c-1.59-1.624-5.01-5.018-5.01-5.018v4.077l.95.944z"/></g></svg><svg width="27" height="23" viewBox="0 0 27 23" id="nav-searchapply" x="291" y="245"><g fill="#999"><path d="M.874 16.167l4.08 4.08 8.18-8.178-.708-.708-7.447 7.446-3.382-3.366"/><path d="M26.126 20.92l-5.702-5.704c1.293-1.56 2.07-3.558 2.07-5.742 0-4.97-4.03-9-9-9s-9 4.03-9 9c0 1.85.56 3.57 1.518 5l.785-.785c-.77-1.222-1.223-2.665-1.223-4.215 0-4.374 3.546-7.92 7.92-7.92 4.375 0 7.92 3.546 7.92 7.92 0 4.375-3.546 7.92-7.92 7.92-.742 0-1.457-.11-2.137-.3l-.858.857c.937.332 1.942.52 2.995.52 2.427 0 4.626-.964 6.246-2.526l5.68 5.68.706-.707z"/></g></svg><svg width="27" height="23" viewBox="0 0 27 23" id="nav-searchapply-active" x="264" y="245"><path fill="#D7234A" d="M21.65 13.236c.528-1.143.83-2.41.83-3.75 0-4.958-4.02-8.978-8.978-8.978s-8.978 4.02-8.978 8.978c0 1.483.366 2.878 1.002 4.11l3.1-3.098c-.07-.333-.11-.676-.11-1.03 0-2.76 2.24-5 5-5 2.764 0 5.002 2.24 5.002 5 0 1.63-.792 3.064-2 3.98l.025.006-4.83 4.83c.578.116 1.176.18 1.79.18 1.56 0 3.028-.4 4.308-1.103l5.13 5.26 4.053-3.974-5.342-5.41z"/><path fill="#D7234A" d="M4.956 21.54l-4.95-4.948 2.026-2.026 3 2.95 6.823-6.824 1.975 1.976"/></svg><svg width="24" height="24" viewBox="0 0 24 24" id="nav-settings" x="119" y="318"><path fill="#999" d="M23.994 14.002v-3.987h-3.072c-.215-1.022-.617-1.998-1.143-2.863l2.187-2.188-3.024-3.024-2.172 2.17c-.847-.526-1.776-.934-2.78-1.16V.03h-3.963v2.903c-1.01.223-1.996.628-2.85 1.155l-2.15-2.15L2 4.964l2.154 2.154c-.534.872-.943 1.858-1.162 2.89H.004v3.996h3.037c.23.97.63 1.873 1.142 2.697l-2.18 2.183 3.024 3.023L7.22 19.71c.853.52 1.784.917 2.79 1.134v3.125h3.983v-3.15c.98-.225 1.9-.62 2.734-1.13l2.217 2.216 3.023-3.023-2.213-2.213c.5-.814.89-1.713 1.12-2.668h3.12zm-4.094-.23c-.195.813-.53 1.612-.998 2.372l-.414.674 2.064 2.064-1.61 1.61-2.065-2.067-.672.41c-.787.482-1.604.822-2.426 1.01l-.77.178v2.994H11v-2.98l-.778-.17c-.842-.185-1.677-.524-2.48-1.013l-.67-.406-2.044 2.043-1.61-1.608 2.034-2.035-.418-.674c-.48-.775-.824-1.584-1.018-2.4l-.183-.76H1.006V11h2.8l.167-.783c.187-.882.545-1.772 1.037-2.576l.41-.67-2.004-2.006 1.61-1.61 2 2 .674-.413c.777-.478 1.656-.833 2.542-1.03l.756-.172V1h2.012v2.748l.76.176c.842.19 1.676.54 2.475 1.037l.674.42 2.024-2.026 1.61 1.61L18.517 7l.406.67c.484.797.836 1.68 1.02 2.552l.168.784h2.902v2.006h-2.932l-.182.76z"/><path fill="#999" d="M11.972 6.8c-2.793 0-5.066 2.27-5.066 5.064 0 2.793 2.272 5.067 5.066 5.067s5.065-2.272 5.065-5.066c0-2.792-2.27-5.065-5.065-5.065zm0 9.132c-2.246 0-4.066-1.82-4.066-4.067 0-2.245 1.82-4.065 4.066-4.065 2.245 0 4.065 1.82 4.065 4.065 0 2.246-1.82 4.067-4.065 4.067z"/></svg><svg width="24" height="24" viewBox="0 0 24 24" id="nav-settings-active" x="95" y="318"><path d="M23.995 14.002v-3.987h-3.072c-.216-1.022-.62-1.998-1.143-2.863l2.188-2.188-3.025-3.024-2.17 2.17c-.85-.526-1.78-.934-2.782-1.16V.03h-3.963v2.903c-1.01.223-1.996.628-2.85 1.155l-2.15-2.15L2 4.964l2.154 2.154c-.534.872-.943 1.858-1.162 2.89H.004v3.996h3.037c.23.97.63 1.873 1.142 2.697l-2.18 2.183 3.024 3.023L7.22 19.71c.853.52 1.784.917 2.79 1.134v3.125H14v-3.15c.982-.225 1.893-.62 2.727-1.13l2.215 2.216 3.024-3.023-2.214-2.213c.5-.814.89-1.713 1.118-2.668h3.12zm-12.023 1.93c-2.246 0-4.066-1.82-4.066-4.067 0-2.245 1.82-4.065 4.066-4.065 2.246 0 4.066 1.82 4.066 4.065 0 2.246-1.82 4.067-4.066 4.067z"/></svg><svg width="22" height="24" viewBox="0 0 22 24" id="nav-skills" x="191" y="318"><g fill="#999"><path d="M17.574.148c-2.44 0-4.55 1.956-4.55 4.368v14.712c0 2.412 2.11 4.367 4.55 4.367S22 21.64 22 19.228V4.518c0-2.414-1.984-4.37-4.426-4.37zM21 18.568c0 2.17-1.564 3.93-3.486 3.93-1.924 0-3.514-1.76-3.514-3.93V4.775c0-2.17 1.59-3.77 3.514-3.77 1.922 0 3.486 1.6 3.486 3.77v13.793z"/><path d="M17.994 6.013L18 4.01h-1v2l-2-.006v1l2.006-.008v2.008H18v-2l2-.008v-.984h-2.006"/><circle cx="17.533" cy="19.408" r="1.002"/></g><path fill="#999" d="M.878 12.58s2.668 2.65 7.043-.535C10.55 10.13 11.99 8.78 11.99 8.78l.01-5.935L.878 12.58zm10.114-4.074s-1.215.995-3.254 2.61c-3.004 2.38-5.238 1.32-5.238 1.32l8.5-7.46-.008 3.53zM10.98 15.452c-.863-.546-1.603-1.128-2.734-.923 0 0-.44 1.698.523 2.78.964 1.08 3.192 3.86 3.192 3.86l.006-4.83s-.012-.27-.99-.888zm-1.615 1.386c-.52-.582-.37-1.41-.37-1.41.61-.11 1.008.203 1.472.498.525.332.658.53.658.53l.03 2.58s-1.27-1.616-1.79-2.198z"/></svg><svg width="22" height="24" viewBox="0 0 22 24" id="nav-skills-active" x="73" y="318"><path fill="#111C24" d="M17.575.145c-2.44 0-4.55 1.956-4.55 4.368v14.72c0 2.412 2.108 4.367 4.55 4.367 2.44 0 4.425-1.955 4.425-4.367V4.513C22 2.1 20.016.145 17.575.145zm-.03 20.26c-.554 0-1.002-.448-1.002-1s.448-1.003 1-1.003c.555 0 1.003.45 1.003 1.002s-.448 1.002-1.002 1.002zM20.047 7.01l-2.028-.002V9H17V7.002L14.995 7V5.99L17 6l-.012-2h1.028l-.006 2h2.038v1.01zM7.923 12.04c2.614-1.935 4.067-3.263 4.067-3.263L12 2.842.88 12.577s2.692 2.686 7.043-.536zM10.98 15.448c-.862-.546-1.602-1.128-2.734-.923 0 0-.44 1.7.524 2.78.965 1.08 3.194 3.86 3.194 3.86l.006-4.83s-.013-.27-.99-.887z"/></svg><svg width="26" height="29" viewBox="0 0 26 29" id="nav-tools-goals" x="187" y="283"><path fill="#999" d="M23.446 14.494c-.23 0-.434-.092-.598-.23-.21-.172-.35-.424-.35-.717 0-.097.027-.185.055-.273.12-.388.466-.674.893-.674.522 0 .946.424.946.947 0 .523-.423.947-.946.947zm-3.33-6.834c.78-1.92.39-4.2-1.166-5.757C17.393.347 15.114-.042 13.197.735l3.998 3.998L15.627 6.3l-1.293 1.293-2.006-2.006-2.013-2.013c-.287.672-.42 1.39-.42 2.108.002 1.23.433 2.448 1.285 3.437.085.1.16.204.256.298 1.385 1.386 3.342 1.838 5.11 1.372.253-.067.504-.153.747-.258l5.547 5.547.2-.004 1.09-.018 1.492-1.492.064-1.335-5.57-5.57zM11.555 12.704c-2.406 0-4.356 1.95-4.356 4.356s1.95 4.355 4.355 4.355c2.405 0 4.356-1.95 4.356-4.355s-1.95-4.356-4.355-4.356zm0 7.737c-1.868 0-3.38-1.513-3.38-3.38s1.512-3.38 3.38-3.38c1.866 0 3.38 1.513 3.38 3.38s-1.514 3.38-3.38 3.38z"/><g fill="#999"><path d="M11.603 27.57C5.84 27.57 1.166 22.9 1.166 17.135c0-4.563 2.935-8.427 7.016-9.845-.09-.376-.145-.763-.172-1.16C3.37 7.622.005 11.955.005 17.09c0 6.37 5.163 11.532 11.532 11.532 5.774 0 10.54-4.25 11.38-9.79L22 17.916c-.4 5.4-4.896 9.656-10.397 9.656z"/><path d="M18.882 17.088c0 4.058-3.29 7.348-7.346 7.348-4.058 0-7.348-3.29-7.348-7.348 0-3.345 2.238-6.163 5.298-7.05-.208-.27-.4-.554-.567-.853-3.32 1.1-5.72 4.215-5.72 7.902 0 4.604 3.73 8.336 8.336 8.336 4.604 0 8.336-3.732 8.336-8.336 0-.492-.055-.97-.138-1.438l-1.498-1.5c.4.903.646 1.887.646 2.938z"/></g></svg><svg width="26" height="29" viewBox="0 0 26 29" id="nav-tools-goals-active" x="315" y="283"><g fill="#F60"><path d="M11.546 21.438c-2.406 0-4.356-1.95-4.356-4.355 0-2.406 1.95-4.356 4.356-4.356s4.356 1.95 4.356 4.356c0 2.405-1.95 4.355-4.356 4.355z"/><path d="M19.488 15.573c.1.504.154 1.023.154 1.557 0 4.434-3.595 8.028-8.03 8.028-4.433 0-8.027-3.595-8.027-8.028 0-3.516 2.264-6.496 5.41-7.583C8.33 8.49 7.97 7.327 7.89 6.155 3.318 7.685.017 11.995.017 17.085c0 6.37 5.163 11.533 11.532 11.533 6.005 0 10.933-4.59 11.478-10.45l-.928.014-2.61-2.61z"/><circle cx="11.546" cy="17.083" r="4.356"/><path d="M20.104 7.666c.778-1.92.39-4.2-1.167-5.757C17.382.352 15.102-.037 13.184.74l3.998 4-1.567 1.566L14.322 7.6l-2.006-2.007-2.013-2.013c-.287.67-.42 1.39-.42 2.108.002 1.23.432 2.448 1.285 3.437.085.1.162.205.256.3 1.385 1.385 3.342 1.837 5.11 1.37.253-.066.503-.152.747-.257l5.548 5.547.2-.003 1.09-.018 1.493-1.492.065-1.335-5.57-5.57zm3.33 6.834c-.23 0-.433-.092-.597-.23-.21-.172-.35-.424-.35-.717 0-.097.028-.185.056-.273.118-.388.465-.674.89-.674.524 0 .948.424.948.947 0 .523-.423.947-.946.947z"/></g></svg><svg width="26" height="29" viewBox="0 0 26 29" id="nav-tools-interview" x="289" y="283"><path fill="#999" d="M20.163 8.084c.78-1.92.39-4.2-1.166-5.757C17.44.77 15.16.382 13.243 1.16l3.998 3.997-1.566 1.567-1.293 1.293-2.005-2.007-2.013-2.013c-.288.672-.422 1.39-.42 2.108.002 1.23.432 2.448 1.285 3.437.085.1.162.205.256.3 1.385 1.385 3.343 1.837 5.11 1.37.253-.066.504-.152.747-.257l5.547 5.543.2-.002 1.09-.018 1.492-1.49.063-1.334-5.57-5.57zm3.37 6.963c-.23 0-.435-.092-.6-.228-.208-.174-.35-.426-.35-.72 0-.096.028-.184.056-.272.118-.388.465-.674.892-.674.522 0 .946.424.946.947 0 .524-.423.947-.946.947z"/><path fill="#999" d="M17.054 18.315c0 1.35-1.012 2.395-2.352 2.395H8.71l-3.65 3.863V20.71H3.515c-1.35 0-2.46-1.09-2.46-2.395v-7.23c0-1.304 1.11-2.367 2.46-2.367H7.89V7.72H3.513C1.598 7.72.067 9.227.067 11.086v7.23c0 1.858 1.533 3.366 3.447 3.366h.547v5.42l5.084-5.42h5.56c1.913 0 3.35-1.507 3.35-3.366v-4.598h-1v4.597z"/></svg><svg width="26" height="29" viewBox="0 0 26 29" id="nav-tools-interview-active" x="238" y="283"><g fill="#851782"><path d="M9.253 10.242c-.545-.786-.91-1.642-1.114-2.52H3.53C1.616 7.72.085 9.227.085 11.086v7.237c0 1.86 1.532 3.367 3.447 3.367h.52l-.003 5.42 5.084-5.42h5.56c1.914 0 3.352-1.507 3.352-3.366v-3.79l-1.21-1.323c-2.807.618-5.836-.46-7.58-2.968z"/><path d="M20.146 8.074c.778-1.918.39-4.2-1.167-5.757C17.423.762 15.144.373 13.226 1.15l3.998 3.997L14.37 8 10.343 3.99c-.507 1.186-.56 2.516-.167 3.732.25.77.675 1.498 1.288 2.11 1.584 1.585 3.917 1.95 5.858 1.114l.795.795 4.752 4.75 1.29-.02 1.492-1.492.064-1.334-5.57-5.57zm3.38 6.972c-.522 0-.946-.424-.946-.947 0-.523.424-.947.946-.947s.946.424.946.946-.423.946-.946.946z"/></g></svg><svg width="27" height="27" viewBox="0 0 27 27" id="nav-tools-jobs" x="394" y="283"><g fill="#999"><path d="M21.698 25.87l-5.635-5.634c1.328-1.568 2.133-3.594 2.133-5.81 0-.36-.025-.65-.068-1-.38 0-.725.03-1.076.03.04.317.064.64.064.97 0 4.374-3.546 7.92-7.92 7.92s-7.92-3.546-7.92-7.92c0-4.293 3.414-7.787 7.673-7.917V5.43C4.092 5.56.195 9.537.195 14.424c0 4.97 4.03 9 9 9 2.395 0 4.564-.94 6.178-2.466l5.617 5.617.708-.706z"/><path d="M21.185 7.735c.78-1.92.39-4.2-1.166-5.757C18.46.422 16.182.033 14.264.81l3.998 3.998-1.567 1.567-1.293 1.293-2.007-2.006-2.013-2.013c-.287.67-.42 1.39-.42 2.107.002 1.23.433 2.448 1.285 3.437.085.1.16.205.256.3 1.385 1.385 3.343 1.837 5.11 1.37.253-.066.504-.152.747-.257l5.616 5.606 1.29-.02L26.74 14.7l.063-1.335-5.618-5.63zm3.203 6.844c-.23 0-.434-.093-.598-.23-.21-.173-.35-.425-.35-.718 0-.097.027-.186.055-.273.12-.39.466-.675.893-.675.522 0 .946.424.946.947 0 .523-.424.947-.946.947z"/></g></svg><svg width="27" height="27" viewBox="0 0 27 27" id="nav-tools-jobs-active" x="367" y="283"><path fill="#D7234A" d="M21.074 23.16l-4.186-4.184c.797-1.34 1.262-2.9 1.262-4.573 0-.446-.043-.882-.105-1.31l-.232-.233c-1.326.29-2.695.19-3.96-.245.21.553.337 1.146.337 1.772 0 2.76-2.238 5-5 5s-5-2.24-5-5c0-2.762 2.24-5 5-5 .268 0 .524.037.78.078C9.22 8.21 8.89 6.813 8.94 5.438 4.093 5.563.198 9.524.198 14.404c0 4.958 4.02 8.977 8.977 8.977 1.866 0 3.6-.57 5.035-1.544l4.093 4.094 2.77-2.77z"/><path fill="#D7234A" d="M21.166 7.724c.777-1.92.39-4.2-1.168-5.757C18.443.41 16.164.022 14.246.8l3.998 3.998-2.86 2.86-4.02-4.02c-.268.627-.397 1.296-.414 1.967-.035 1.4.466 2.808 1.535 3.876 1.344 1.345 3.224 1.802 4.95 1.403.308-.07.612-.16.907-.288l5.613 5.613 1.29-.02 1.493-1.492.064-1.335-5.636-5.636zm3.215 6.843c-.522 0-.946-.424-.946-.947s.424-.947.947-.947c.522 0 .946.425.946.947s-.424.947-.945.947z"/></svg><svg width="31" height="22" viewBox="0 0 31 22" id="nav-tools-main" x="116" y="200"><path fill="#999" d="M8.35 1.082c1.9 0 3.624.68 4.858 1.914 1.995 1.995 2.6 4.975 1.538 7.59l-.25.614.47.47 6.354 6.353-.06 1.182-1.687 1.69-1.116.017-6.33-6.332-.48-.48-.623.27c-.342.146-.734.27-1.2.38-.526.12-1.067.183-1.606.183-1.86 0-3.606-.722-4.915-2.03-1.35-1.35-2.067-3.164-2.02-5.107.01-.386.09-.852.235-1.367l4.94 4.94.706.706.707-.707L11.79 7.45l.707-.707-.707-.707-4.827-4.83c.46-.083.926-.126 1.39-.126m0-1C7.22.082 6.092.3 5.058.718l6.023 6.024-3.916 3.917L1.11 4.602c-.403.945-.8 2.155-.826 3.165-.052 2.108.703 4.23 2.312 5.84 1.555 1.555 3.586 2.322 5.622 2.322.615 0 1.23-.07 1.833-.21.466-.107.926-.243 1.37-.435l6.632 6.632 1.943-.03 2.248-2.25.098-2.01-6.666-6.666c1.172-2.89.587-6.327-1.757-8.672C12.41.784 10.377.082 8.35.082z"/><circle fill="#999" cx="18.64" cy="18.112" r="1"/><path fill="#999" d="M22.508 5.27l4.105 6.367L30.72 5.27"/></svg><svg width="31" height="22" viewBox="0 0 31 22" id="nav-tools-main-active" x="85" y="200"><path d="M15.66 10.962c1.17-2.89.586-6.328-1.758-8.673C11.56-.056 7.934-.45 5.045.717l6.023 6.024L7.15 10.66 1.098 4.602C.693 5.548.295 6.758.27 7.768c-.052 2.108.703 4.23 2.312 5.84 2.025 2.024 4.857 2.713 7.455 2.112.465-.107.925-.243 1.37-.435l6.63 6.632 1.945-.03 2.247-2.25.098-2.01-6.67-6.665zm2.973 8.803c-.926 0-1.676-.75-1.676-1.675s.75-1.677 1.676-1.677 1.676.752 1.676 1.677-.75 1.675-1.677 1.675zM22.52 5.27l4.107 6.367 4.105-6.366"/></svg><svg width="24" height="24" viewBox="0 0 24 24" id="nav-tools-military" x="143" y="318"><path fill="#999" d="M20.137 3.864C17.964 1.69 15.074.492 12 .494c-3.073 0-5.963 1.194-8.137 3.368C1.69 6.036.493 8.924.493 12c0 3.075 1.197 5.965 3.372 8.138 2.172 2.172 5.062 3.37 8.135 3.37 3.076 0 5.965-1.196 8.14-3.37 2.173-2.173 3.366-5.063 3.366-8.135 0-3.075-1.195-5.965-3.37-8.14zm-.7 15.57C17.45 21.42 14.81 22.516 12 22.514c-2.81 0-5.445-1.095-7.432-3.08C2.58 17.448 1.488 14.81 1.488 12s1.092-5.448 3.08-7.435c4.097-4.097 10.768-4.098 14.867 0 1.986 1.987 3.078 4.63 3.078 7.44 0 2.805-1.09 5.444-3.077 7.43z"/><path fill="#999" d="M11.962 5.417l1.49 4.634h4.788l-3.865 2.762 1.494 4.598-3.908-2.838-3.906 2.838 1.493-4.598-3.866-2.76h4.79l1.488-4.635m0-3.267l-2.22 6.902h-7.18l5.81 4.148-2.22 6.828 5.81-4.22 5.81 4.22-2.22-6.828 5.81-4.148h-7.18l-2.22-6.902z"/></svg><svg width="24" height="24" viewBox="0 0 24 24" id="nav-tools-military-active" x="25" y="318"><path fill="#8C8035" d="M20.136 3.864C17.964 1.69 15.073.492 12 .494c-3.073 0-5.963 1.194-8.137 3.368C1.69 6.036.493 8.924.493 12c0 3.075 1.197 5.965 3.372 8.138 2.172 2.172 5.062 3.37 8.135 3.37 3.076 0 5.965-1.196 8.138-3.37 2.174-2.173 3.368-5.063 3.368-8.135 0-3.075-1.196-5.965-3.37-8.14zM18.95 18.948c-1.857 1.856-4.322 2.88-6.95 2.878-2.624 0-5.09-1.023-6.944-2.878C3.2 17.092 2.176 14.626 2.176 12c0-2.625 1.02-5.09 2.88-6.948 3.828-3.83 10.06-3.83 13.893 0 1.855 1.858 2.878 4.326 2.878 6.952 0 2.622-1.023 5.09-2.878 6.944z"/><path fill="#8C8035" d="M11.962 2.15l2.22 6.902h7.18L15.55 13.2l2.22 6.828-5.81-4.22-5.81 4.22 2.22-6.828-5.81-4.148h7.18"/></svg><svg width="26" height="29" viewBox="0 0 26 29" id="nav-tools-resume" x="341" y="283"><path fill="#999" d="M4.01 18v.99l13-.015V18h-13zm0 5h13v-1h-13v1zm7-9H4.03v.965h6.98V14zM20.13 8.046c.78-1.92.39-4.2-1.165-5.757C17.408.732 15.13.343 13.21 1.12l4 4-1.567 1.566L14.35 7.98l-2.008-2.007L10.33 3.96c-.29.67-.423 1.39-.422 2.107.002 1.23.432 2.448 1.285 3.437.085.1.162.205.256.3 1.384 1.385 3.343 1.837 5.11 1.37.254-.066.505-.152.748-.257l5.547 5.547.2-.003 1.09-.017 1.492-1.492.064-1.334-5.57-5.57zm3.413 6.998c-.23 0-.434-.092-.598-.23-.21-.172-.35-.424-.35-.717 0-.097.027-.185.055-.273.12-.388.466-.674.893-.674.522 0 .946.424.946.947 0 .523-.425.947-.947.947z"/><path fill="#999" d="M19.002 25.26c0 1.006-.783 1.764-1.824 1.764L3.848 27c-1.03 0-1.837-.79-1.837-1.8V8.84c0-1.014.825-1.838 1.838-1.838h4.14v-1h-4.14c-1.567 0-2.837 1.27-2.837 2.838V25.2c0 1.567 1.27 2.8 2.838 2.8l13.333.023c1.568 0 2.822-1.195 2.822-2.764v-8.83l-1-.973v9.803z"/></svg><svg width="26" height="29" viewBox="0 0 26 29" id="nav-tools-resume-active" x="161" y="283"><g fill="#09C"><path d="M9.165 10.213C8.267 8.92 7.85 7.463 7.865 6H3.837C2.27 6 1 7.246 1 8.813v16.36C1 26.744 2.27 28 3.838 28h13.33c1.568 0 2.822-1.258 2.822-2.826V16.48l-3.275-3.292c-2.8.604-5.814-.476-7.55-2.975zM3.96 13h7.064v2H3.96v-2zm13.03 10H3.97v-2.033h13.02V23zm.014-4H3.97v-2h13.034v2z"/><path d="M20.096 8.045c.777-1.918.39-4.2-1.168-5.757C17.373.732 15.094.343 13.176 1.12l4 3.998-1.956 1.955-.906.905-.34-.34-1.664-1.663-.316-.315-1.7-1.7c-.276.642-.406 1.328-.417 2.015-.02 1.383.48 2.77 1.537 3.827.183.183.377.345.578.495 1.47 1.1 3.37 1.325 5.033.704h.33l1.998 1.998.652.653 2.812 2.813 1.29-.02L25.6 14.95l.064-1.334-5.568-5.57zm3.43 6.998c-.522 0-.946-.423-.946-.946 0-.523.424-.947.947-.947s.947.424.947.947c0 .522-.37.946-.947.946z"/></g></svg><svg width="31" height="28" viewBox="0 0 31 28" id="nav-tools-skills" x="174" y="245"><g fill="#999"><path d="M20.125 22.833c0 2.172-1.562 3.93-3.486 3.93-1.924 0-3.514-1.758-3.514-3.93v-12.53c0-1.077.393-2.01 1.02-2.682-.117-.31-.2-.63-.267-.955-1.037.8-1.73 2.01-1.73 3.38v13.45c0 2.41 2.11 4.366 4.55 4.366s4.425-1.954 4.425-4.366l-.01-11.745s-.654-.006-.99-.004v11.087z"/><path d="M14.132 11.65v1.01l2.007.003v1.998h.997v-1.99h2.05v-.848c-.276-.036-.548-.09-.815-.162h-1.225l.002-.477c-.355-.18-.696-.384-1.02-.633l.01 1.11-2.008-.01zM16.686 25.024c-.553 0-1.002-.45-1.002-1.002s.45-1.002 1.002-1.002 1.002.45 1.002 1.002-.45 1.002-1.002 1.002zM7.05 17.694c2.6-1.953 4.066-3.264 4.066-3.264l.01-5.936L.006 18.23s2.713 2.716 7.043-.536zm3.24-7.205l-.172 3.665s-1.19 1.026-3.253 2.61C3.515 19.338 1.628 18.1 1.628 18.1l8.662-7.61zM10.097 20.113c-.862-.546-1.602-1.128-2.734-.923 0 0-.44 1.7.524 2.78.965 1.08 3.194 3.86 3.194 3.86l.007-4.83s-.014-.27-.99-.887zM8.482 21.5c-.52-.583-.37-1.41-.37-1.41.61-.11 1.008.202 1.472.497.526.332.658.53.658.53l.03 2.58s-1.27-1.616-1.79-2.198z"/><path d="M19.186 11.66h-.814c.268.07.54.126.814.162v-.162zM25.225 7.45c.78-1.918.39-4.2-1.166-5.756C22.5.138 20.222-.25 18.304.526l3.998 3.998-1.566 1.567-1.293 1.294-2.008-2.006-2.012-2.013c-.287.672-.42 1.39-.42 2.108.003 1.23.433 2.448 1.286 3.437.084.1.16.205.256.3 1.385 1.385 3.342 1.837 5.11 1.37.253-.066.503-.152.747-.257l5.547 5.547.2-.003 1.09-.018 1.49-1.493.065-1.335-5.57-5.57zm3.33 6.835c-.23 0-.434-.092-.598-.23-.21-.172-.35-.424-.35-.717 0-.097.027-.185.055-.273.12-.388.467-.674.893-.674.523 0 .947.425.947.948 0 .523-.424.947-.947.947z"/></g></svg><svg width="31" height="28" viewBox="0 0 31 28" id="nav-tools-skills-active" x="205" y="245"><g fill="#4A0259"><path d="M19.027 12.665l-1.887.006v1.995h-1.02v-1.99l-1.99-.002v-1.01l2.01-.01v-.22c-.694-.482-1.325-1.08-1.837-1.815-.49-.704-.83-1.466-1.043-2.25-.68.762-1.115 1.734-1.115 2.81v13.317c0 2.413 2.11 4.368 4.55 4.368s4.434-1.955 4.434-4.368v-10.8c-.708.08-1.407.094-2.103-.03zM16.664 25.02c-.553 0-1-.448-1-1 0-.555.447-1.003 1-1.003.555 0 1.002.448 1.002 1.002 0 .55-.447 1-1.002 1zM7.044 17.706c2.613-1.936 4.066-3.264 4.066-3.264l.01-5.936L0 18.242s2.692 2.686 7.044-.536zM10.1 20.113c-.86-.546-1.6-1.128-2.732-.923 0 0-.44 1.698.523 2.78.966 1.08 3.195 3.86 3.195 3.86L11.09 21s-.013-.27-.99-.887zM25.234 7.45c.777-1.92.39-4.2-1.168-5.756C22.51.14 20.232-.25 18.314.526l3.998 3.998-2.527 2.526-.334.333-1.317-1.318-2.7-2.702c-.374.875-.49 1.83-.375 2.758.14 1.128.63 2.22 1.495 3.087.172.172.355.323.543.466h.016v.012c1.178.89 2.635 1.215 4.03.993.43-.07.86-.18 1.27-.356l5.546 5.547 1.29-.022 1.493-1.493.065-1.335-5.57-5.57zm3.26 6.688c-.52 0-.945-.424-.945-.947 0-.52.423-.945.944-.945.523 0 .947.424.947.946 0 .524-.422.948-.946.948z"/><path d="M17.096 9.673l.016.012v-.012h-.016z"/></g></svg><svg width="45" height="45" viewBox="0 0 45 45" id="next-circle" x="223" y="115"><path fill="#007ECA" d="M22.5 0C10.074 0 0 10.073 0 22.5S10.074 45 22.5 45 45 34.927 45 22.5 34.926 0 22.5 0zm.666 34H13.024l11.833-12-11.833-12h9.298L35 22 23.166 34z"/></svg><svg width="21" height="21" viewBox="0 0 21 21" id="next-square" x="372" y="200"><path fill="#007ECA" d="M0 0v21h21V0H0zm11.586 10.533L6.076 5h4.43l5.54 5.543L10.615 16h-4.47l5.44-5.467z"/></svg><svg width="17" height="17" viewBox="0 0 17 17" id="pdf" x="240" y="183"><path d="M1 0v17h13.013L17 14.02V0H1zm15.04 13.34L13.4 16H13v-3.017l3.04.017v.34zM16 12h-4v4H2V1h14v11z"/><path d="M0 3v7h15V3H0zm5 2v2H3v2H2V4h3v1zm4 3H8v1H6V4h2v1h1v3zm4-3h-2v1h2v1h-2v2h-1V4h3v1z"/><path d="M3 5h1v1H3zM7 5h1v3H7z"/></svg><svg width="25" height="24" viewBox="0 0 25 24" id="preview" y="318"><path fill="#007ECA" d="M12.5 8.85c-6.627 0-12 7.498-12 7.498s5.373 7.5 12 7.5 12-7.5 12-7.5-5.373-7.5-12-7.5z"/><circle fill="#FFF" cx="12.5" cy="15.848" r="5"/><circle fill="#007ECA" cx="12.5" cy="15.849" r="2.05"/><path fill="#007ECA" d="M10.5 0s-.017 4.832 2 6.85c1.944-1.946 2-6.85 2-6.85h-4zM21.245 2.54S18.762 6.092 19.5 8.85c2.656-.713 5.21-4.31 5.21-4.31l-3.465-2zM3.755 1.54l-3.464 2S2.846 8.136 5.5 8.85c.738-2.757-1.745-7.31-1.745-7.31z"/></svg><svg width="79" height="79" viewBox="0 0 79 79" id="record" x="364" y="86"><path fill="#E9EAE8" d="M39.5.116C17.75.116.118 17.75.118 39.5S17.75 78.884 39.5 78.884c21.75 0 39.383-17.633 39.383-39.384S61.25.116 39.5.116zm0 73.045c-18.59 0-33.66-15.07-33.66-33.66S20.91 5.84 39.5 5.84c18.59 0 33.66 15.07 33.66 33.66S58.09 73.16 39.5 73.16z"/><path fill="#D7234A" d="M39.5 5.84C20.91 5.84 5.84 20.91 5.84 39.5S20.91 73.16 39.5 73.16c18.59 0 33.66-15.07 33.66-33.66S58.09 5.84 39.5 5.84zm8.17 40c0 2.208-1.79 4-4 4h-19c-2.208 0-4-1.792-4-4V33.836c0-2.21 1.792-4 4-4h19c2.21 0 4 1.79 4 4V45.84zm12 1h-3l-6-5v-4l6-5.003h3V46.84z"/></svg><svg width="21" height="21" viewBox="0 0 21 21" id="remove-goal" x="414" y="200"><g fill="#FFF"><path d="M4.99 8.96H16V12H4.99z"/><path d="M17.902 3.096C13.806-1 7.167-1 3.072 3.096c-4.096 4.095-4.096 10.736 0 14.832 4.095 4.096 10.734 4.096 14.83 0C22 13.832 22 7.19 17.902 3.096z"/></g><path fill="#007ECA" d="M5 9.026h11v3.04H5z"/></svg><svg viewBox="0 0 28 33" width="28" height="33" id="resume" x="105" y="283"><path fill="#666766" d="M24.8 32.9H2.9c-1.6 0-2.8-1.3-2.8-2.8V3C.1 1.4 1.4.2 2.9.2h15.2c.2 0 .4.1.5.3l9 9c.2.1.3.3.3.6v19.7c0 1.7-1.4 3.1-3.1 3.1zm-6-29.5v4.3c0 .9.7 1.6 1.6 1.6h4.3c.3 0 .4-.4.2-.6l-5.6-5.6c-.1-.1-.5 0-.5.3zm7.4 7.3h-6.3c-1.3 0-2.3-1.1-2.3-2.3V1.9c0-.2-.2-.3-.3-.3H3.2c-1 0-1.7.8-1.7 1.7v26.3c0 1 .8 1.7 1.7 1.7h21.5c1 0 1.7-.8 1.7-1.7V11c.1-.1-.1-.3-.2-.3zM16.9 14h-12c-.2 0-.3-.2-.3-.3v-1.1c0-.2.2-.3.3-.3h11.7c.2 0 .3.2.3.3V14zm6.2 6H4.9c-.2 0-.3-.2-.3-.3v-1.1c0-.2.2-.3.3-.3H23c.2 0 .3.2.3.3v1.1c.1.1-.1.3-.2.3zm0 6H4.9c-.2 0-.3-.2-.3-.3v-1.1c0-.2.2-.3.3-.3H23c.2 0 .3.2.3.3v1.1c.1.1-.1.3-.2.3z"/></svg><svg width="21" height="21" viewBox="0 0 21 21" id="rewind" x="393" y="200"><path fill="#007ECA" d="M0 0v21h21V0H0zm6 16H4V5h2v11zm10.932 0h-4.47l-5.43-5.457L12.57 5H17l-5.51 5.533L16.933 16z"/></svg><svg width="96" height="96" viewBox="0 0 96 96" id="ribbon" x="268" y="86"><path d="M76.624 40.31l-5.63-5.63-2.06-7.692-7.692-2.06-5.63-5.632-7.692 2.06-7.69-2.06-5.63 5.63-7.693 2.06-2.06 7.694-5.63 5.63 2.06 7.69-2.06 7.69 5.63 5.632 2.06 7.692 7.69 2.06 5.632 5.63 7.69-2.06 7.69 2.06 5.63-5.63 7.693-2.06 2.06-7.692 5.63-5.63-2.06-7.69 2.06-7.692zM47.922 69.167c-11.69 0-21.167-9.478-21.167-21.167s9.477-21.166 21.167-21.166S69.09 36.31 69.09 48 59.61 69.167 47.92 69.167z"/><path d="M47.922 61.97c-7.715 0-13.97-6.254-13.97-13.97 0-7.715 6.255-13.97 13.97-13.97 7.716 0 13.97 6.255 13.97 13.97 0 7.716-6.254 13.97-13.97 13.97z"/><circle cx="47.922" cy="48.001" r="13.97"/><path d="M64 95.172l-16.33-8.094L32 95.172v-20l8.162 6.423 7.758-2.036 7.764 2.025L64 75.172"/><g fill="#FFF"><path d="M21.737 31.684l-14.805-8.55-1 1.733 14.84 8.57.677-.677M17.056 47H0v2h17.098l.247-.922M15.857 38.352L8.71 36.437c-.187.638-.357 1.284-.512 1.934l7.052 1.89-.275-1.026.882-.882zM15.295 55.73L8.27 57.61c.162.65.336 1.293.528 1.93l6.935-1.858-.758-.758.32-1.195zM33.436 20.773L24.866 5.93l-1.732 1L31.717 21.8l.948-.254M40.295 15.378l-1.924-7.18c-.65.155-1.295.325-1.932.51l1.915 7.148.787-.787 1.155.308zM49 17.168V0h-2v17.176l.984.264M25.01 23.595l-5.27-5.268c-.482.46-.953.932-1.413 1.415l5.213 5.213.28-1.04 1.19-.32zM20.674 62.623L5.93 71.135l1 1.73 14.772-8.527-.252-.94M23.508 71.078l-5.017 5.018c.464.48.938.948 1.424 1.406l4.972-4.973-1.067-.286-.312-1.166zM74.27 64.323l14.8 8.543 1-1.73-14.763-8.525-.787.788M71.11 72.523l4.813 4.814c.482-.46.954-.93 1.414-1.414l-4.868-4.868-.32 1.19-1.04.278zM57.642 15.882l1.898-7.084c-.637-.19-1.28-.366-1.93-.527l-1.9 7.1 1.12-.3.812.812zM80.242 57.675l6.65 1.78c.188-.636.362-1.28.52-1.93l-6.74-1.806.322 1.204-.752.75zM78.87 49H96v-2H78.912l-.29 1.08M80.717 40.27l6.768-1.815c-.153-.65-.322-1.295-.506-1.934l-6.862 1.84.876.874-.277 1.036zM75.207 33.447l14.862-8.58-1-1.733L74.233 31.7l.285 1.06M64.278 21.806L72.866 6.93l-1.73-1-8.582 14.864.75.75M72.436 24.98l5.066-5.066c-.457-.486-.927-.96-1.407-1.423l-5.11 5.113 1.164.312.286 1.066z"/></g></svg><svg width="19" height="18" viewBox="0 0 19 18" id="save" x="352" y="182"><path fill="#007ECA" d="M18.865 7.003H11.71L9.5.2 7.29 7.002H.135l5.788 4.206-2.21 6.802L9.5 13.808l5.79 4.204-2.212-6.803 5.787-4.207zm-5.43 8.49L9.5 12.636l-3.936 2.86 1.504-4.628-3.937-2.86h4.866L9.5 3.382l1.502 4.628h4.865l-3.936 2.86 1.506 4.626z"/></svg><svg width="19" height="18" viewBox="0 0 19 18" id="saved" x="333" y="182"><path fill="#007ECA" d="M9.5.188l2.21 6.803h7.155l-5.787 4.207L15.288 18 9.5 13.796 3.712 18l2.21-6.803L.136 6.99H7.29"/></svg><svg viewBox="0 0 20 19" width="20" height="19" id="search" x="415" y="223"><path fill="#197DC2" d="M17.1 18.9l-4.5-4.5c-1.2.8-2.7 1.3-4.3 1.3C4 15.7.5 12.2.5 7.9.6 3.5 4 0 8.4 0c4.3 0 7.8 3.5 7.8 7.8 0 1.5-.4 2.9-1.2 4.1l4.5 4.5c.2.2 0 .8-.4 1.3l-.7.7c-.5.5-1 .7-1.3.5zM13.2 7.8C13.2 5.2 11 3 8.4 3 5.7 3 3.5 5.2 3.5 7.8s2.2 4.8 4.8 4.8c2.7.1 4.9-2.1 4.9-4.8z"/></svg><svg viewBox="0 0 35 35" width="35" height="35" id="searchapply" x="70" y="283"><path fill="#8B4E21" d="M32.9 34.1L34 33l-8.4-8.4c2.2-2.5 3.6-5.8 3.6-9.4C29.2 7.4 22.9 1 15 1S1 7.3 1 15.1s6.3 14.2 14.2 14.2c3.6 0 6.9-1.4 9.4-3.6l8.3 8.4zm-17.8-6.8C8.5 27.3 3 21.9 3 15.2 3 8.6 8.4 3.1 15.1 3.1s12.1 5.4 12.1 12.1c0 6.6-5.4 12.1-12.1 12.1z"/></svg><svg width="22" height="22" viewBox="0 0 22 22" id="settings" x="154" y="223"><path fill="#007ECA" d="M21.993 12.836V9.18h-2.815c-.2-.936-.568-1.83-1.048-2.623l2.005-2.005-2.77-2.77-1.99 1.99c-.778-.484-1.63-.858-2.55-1.066V.032H9.193v2.66c-.927.205-1.83.576-2.613 1.06l-1.97-1.97-2.773 2.77 1.975 1.975c-.49.8-.865 1.703-1.065 2.648H.007v3.66H2.79c.21.892.577 1.718 1.046 2.474l-2 1.997 2.773 2.77 2.01-2.01c.78.474 1.634.84 2.555 1.038v2.863h3.66v-2.885c.9-.205 1.733-.57 2.498-1.037l2.03 2.03 2.77-2.77-2.027-2.027c.46-.747.816-1.57 1.025-2.444h2.863zm-11.02 1.768c-2.057 0-3.726-1.67-3.726-3.727 0-2.058 1.67-3.727 3.727-3.727 2.06 0 3.727 1.67 3.727 3.727s-1.668 3.727-3.726 3.727z"/></svg><svg viewBox="0 0 28 33" width="28" height="33" id="skills" x="133" y="283"><path fill="none" stroke="#8C8035" stroke-width="1.5" stroke-miterlimit="10" d="M22.8 32.1H22c-2.4 0-4.3-1.9-4.3-4.3V5.1c0-2.4 1.9-4.3 4.3-4.3h.8c2.4 0 4.3 1.9 4.3 4.3v22.7c0 2.4-1.9 4.3-4.3 4.3z"/><text transform="translate(18.543 10.822)" fill="#8C8035" font-family="'SegoeUI'" font-size="11.358">+</text><circle fill="#8C8035" cx="22.4" cy="27.7" r="1"/><path fill="none" stroke="#8C8034" stroke-miterlimit="10" d="M15.4 5v5.3l-8.3 4.4s-1.5.7-5.8 0L15.4 5zM15.4 20.9v5.4L11.3 20z"/></svg><svg width="21" height="22" viewBox="0 0 21 22" id="symbol-computer" x="91" y="223"><g fill="#D7234A"><path d="M2 12V2h15v9.665l1.975 1.462c.005-.043.025-.082.025-.127V1c0-.552-.447-1-1-1H1C.447 0 0 .448 0 1v12c0 .553.447 1 1 1h8.875l-.055-2H2zM0 17h10v2H0z"/><path d="M16.778 18.174l3.413-.61-8.044-6.383.808 10.18 2.43-2.456L17.004 22l1.393-.73"/></g></svg><svg width="20" height="22" viewBox="0 0 20 22" id="symbol-edu" x="292" y="223"><g fill="#D7234A"><path d="M3 9h2v8H3zM7 9h2v8H7zM11 9h2v8h-2zM15 9h2v8h-2zM2 18h16v1H2zM1 20h18v2H1zM20 7H0l10-7"/></g></svg><svg width="24" height="23" viewBox="0 0 24 23" id="symbol-globe" x="318" y="245"><g fill="#D7234A"><path d="M13.006 22.025c1.674-.722 3.088-2.98 3.83-5.95-1.175-.32-2.468-.533-3.83-.61v6.56zM15.7.34c1.333 1.322 2.392 3.316 3.027 5.736 1.064-.452 1.963-1.004 2.636-1.625-1.41-1.893-3.376-3.345-5.662-4.11zM19.397 11.43c0 1.147-.093 2.247-.25 3.298 1.29.515 2.403 1.165 3.29 1.92.79-1.576 1.244-3.348 1.244-5.23 0-1.893-.46-3.674-1.258-5.255-.886.75-1.996 1.4-3.284 1.912.164 1.068.26 2.188.26 3.356zM13.006 13.464c1.498.075 2.91.296 4.207.637.116-.857.185-1.75.185-2.67 0-.94-.07-1.853-.192-2.73-1.294.34-2.704.56-4.2.635v4.13zM18.743 16.73c-.628 2.42-1.68 4.42-3.004 5.752 2.277-.77 4.235-2.225 5.64-4.12-.67-.624-1.57-1.178-2.637-1.633zM6.882 16.075c.786 3.14 2.314 5.478 4.114 6.05v-6.67c-1.47.06-2.855.277-4.114.62zM7.83 22.328c-1.255-1.33-2.25-3.27-2.854-5.6-.984.42-1.82.93-2.47 1.494 1.324 1.845 3.17 3.283 5.324 4.106zM11 .735c-1.79.57-3.313 2.882-4.104 5.99 1.256.342 2.64.558 4.104.62V.734zM16.822 6.727c-.747-2.94-2.153-5.174-3.816-5.89v6.497c1.356-.077 2.644-.29 3.816-.607zM2.522 4.59c.652.562 1.485 1.068 2.47 1.486C5.6 3.748 6.605 1.814 7.867.494 5.706 1.31 3.854 2.746 2.522 4.59zM4.32 11.43c0-1.166.097-2.287.26-3.355C3.382 7.6 2.344 7 1.49 6.317.74 7.86.308 9.587.308 11.417c0 1.82.43 3.538 1.17 5.075.855-.688 1.895-1.287 3.095-1.765-.158-1.05-.25-2.15-.25-3.296zM11 9.343c-1.603-.06-3.108-.28-4.486-.643-.12.877-.192 1.79-.192 2.73 0 .92.068 1.812.185 2.67 1.38-.362 2.89-.585 4.494-.646v-4.11z"/></g></svg><svg width="17" height="17" viewBox="0 0 17 17" id="symbol-time" x="223" y="183"><path fill="#B6B6B6" d="M8.5 0C3.806 0 0 3.806 0 8.5S3.806 17 8.5 17 17 13.194 17 8.5 13.194 0 8.5 0zM12 10H7V4h2v4h3v2z"/></svg><svg width="19" height="19" viewBox="0 0 19 19" id="symbol-tool" x="291" y="318"><path fill="#B6B6B6" d="M12.217 8.855c.906-2.238.453-4.9-1.36-6.715C9.04.326 6.382-.128 4.144.778L8.81 5.44 5.464 8.783.782 4.088C.192 5.47.13 7.023.59 8.442c.29.9.784 1.747 1.5 2.463 1.85 1.847 4.57 2.272 6.833 1.3l6.47 6.47 1.506-.024 1.74-1.74.074-1.556-6.497-6.5zm3.943 8.13c-.61 0-1.104-.493-1.104-1.104 0-.608.494-1.103 1.104-1.103.61 0 1.104.494 1.104 1.104 0 .612-.494 1.106-1.104 1.106z"/></svg><svg width="27" height="38" viewBox="0 0 27 38" id="symbol-tuition" y="245"><path d="M13.497 27.717l-3.19.932-1.91-1.168-.052 10.387 5.156-3.944 5.835 3.975.01-10.412-1.926 1.157M26.655 9.728l-2.58-2.58-.944-3.524-3.525-.944L17.025.1l-3.525.943L9.976.1l-2.58 2.58-3.526.943-.945 3.525-2.58 2.58.944 3.524-.945 3.524 2.58 2.58.945 3.527 3.524.942 2.582 2.583 3.524-.947 3.524.948 2.58-2.583 3.526-.942.944-3.526 2.58-2.58-.944-3.525.945-3.524zM13.5 23.853c-5.853 0-10.598-4.746-10.598-10.6 0-5.85 4.745-10.597 10.598-10.597 5.852 0 10.598 4.746 10.598 10.597 0 5.853-4.746 10.6-10.598 10.6z"/><path d="M13.5 22.58c-5.15 0-9.325-4.176-9.325-9.326 0-5.148 4.175-9.325 9.325-9.325 5.15 0 9.326 4.176 9.326 9.324 0 5.15-4.177 9.327-9.326 9.327z"/><g fill="#FFF"><path d="M15.66 13.29c-.405-.246-1.018-.5-1.835-.76V9.14c.802.057 1.59.238 2.367.546l.406-1.023c-.89-.36-1.815-.552-2.773-.578V6.678h-1.008V8.1c-.87.094-1.57.36-2.098.797-.53.438-.794.997-.794 1.68 0 .708.215 1.286.645 1.734s1.18.842 2.247 1.18v3.44c-.464 0-.98-.063-1.543-.185-.565-.122-1.064-.28-1.496-.473v1.22c.35.16.797.287 1.344.378s1.11.137 1.695.137v1.742h1.008v-1.813c.953-.12 1.695-.41 2.227-.87s.797-1.047.797-1.755c0-.458-.098-.848-.29-1.168-.194-.322-.493-.606-.9-.853z"/><path d="M15.66 13.29c-.405-.246-1.018-.5-1.835-.76V9.14c.802.057 1.59.238 2.367.546l.406-1.023c-.89-.36-1.815-.552-2.773-.578V6.678h-1.008V8.1c-.87.094-1.57.36-2.098.797-.53.438-.794.997-.794 1.68 0 .708.215 1.286.645 1.734s1.18.842 2.247 1.18v3.44c-.464 0-.98-.063-1.543-.185-.565-.122-1.064-.28-1.496-.473v1.22c.35.16.797.287 1.344.378s1.11.137 1.695.137v1.742h1.008v-1.813c.953-.12 1.695-.41 2.227-.87s.797-1.047.797-1.755c0-.458-.098-.848-.29-1.168-.194-.322-.493-.606-.9-.853z"/></g><path d="M13.825 13.81v3.04c1.13-.156 1.695-.636 1.695-1.438 0-.375-.116-.68-.348-.91-.232-.23-.68-.462-1.347-.69zM11.247 10.56c0 .397.117.715.352.954s.64.466 1.218.68V9.17c-.516.083-.906.246-1.172.488s-.4.543-.4.903z"/></svg><svg width="21" height="16" viewBox="0 0 21 16" id="symbol-video" x="364" y="165"><path fill="#B6B6B6" d="M19.2 0H1.8C.806 0 0 .806 0 1.8v12.4c0 .994.806 1.8 1.8 1.8h17.4c.994 0 1.8-.806 1.8-1.8V1.8c0-.994-.806-1.8-1.8-1.8zM4 15H2v-2h2v2zm0-4H2V9h2v2zm0-4H2V5h2v2zm0-4H2V1h2v2zm4 8.5v-7L13.95 8 8 11.5zM19 15h-2v-2h2v2zm0-4h-2V9h2v2zm0-4h-2V5h2v2zm0-4h-2V1h2v2z"/></svg><svg width="22" height="22" viewBox="0 0 22 22" id="tile" x="132" y="223"><g fill="#007ECA"><path d="M0 0h6v6H0zM8 0h6v6H8zM16 0h6v6h-6zM0 8h6v6H0zM8 8h6v6H8zM16 8h6v6h-6zM0 16h6v6H0zM8 16h6v6H8zM16 16h6v6h-6z"/></g></svg><svg width="13" height="13" viewBox="0 0 13 13" id="title" x="338" y="318"><g fill="#48AD04"><path d="M0 4h13v9H0zM3 0v3h2V2h3v1h2V0"/></g></svg></svg>